<?xml version="1.0" encoding="UTF-8" standalone="no"?>
<svg viewBox="0 0 1024 1024" fill="currentColor" focusable="false"
   xmlns="http://www.w3.org/2000/svg">
   <path d="m 712,294 a 56,56 0 1 0 112,0 56,56 0 1 0 -112,0 z" id="path5" />
   <path d="m 564,608 a 96,96 0 1 0 192,0 96,96 0 1 0 -192,0 z" id="path4" />
   <path d="m 406,380 a 48,48 0 1 0 96,0 48,48 0 1 0 -96,0 z" id="path3" />
   <path d="m 288,604 a 64,64 0 1 0 128,0 64,64 0 1 0 -128,0 z" id="path2" />
   <path d="M 888,792 H 200 V 168 c 0,-4.4 -3.6,-8 -8,-8 h -56 c -4.4,0 -8,3.6 -8,8 v 688 c 0,4.4 3.6,8 8,8 h 752 c 4.4,0 8,-3.6 8,-8 v -56 c 0,-4.4 -3.6,-8 -8,-8 z" id="path1" />
</svg>
