<?xml version='1.0' encoding='UTF-8' standalone='no'?>
<svg height="314pt" xmlns:xlink="http://www.w3.org/1999/xlink" width="418pt" xmlns="http://www.w3.org/2000/svg" viewBox="0 0 418 314">
 <title>Figure 1</title>
 <desc>
Creator: GL2PS 1.4.2, (C) 1999-2020 C. Geuzaine
For: Octave
CreationDate: Wed Jun  4 10:50:30 2025
</desc>
 <defs/>
 <polygon points="0,0 418,0 418,314 0,314" fill="#ffffff"/>
 <g>
  <polygon points="0,314 418,314 418,0 0,0" shape-rendering="crispEdges" fill="#ffffff"/>
  <clipPath id="cp00418314">
   <polygon points="0,314 418,314 418,0 0,0"/>
  </clipPath>
  <g clip-path="url(#cp00418314)">
   <polygon points="54.4343,279.499 378.946,279.499 378.946,23.5533 54.4343,23.5533" shape-rendering="crispEdges" fill="#ffffff"/>
   <polyline points="54.4343,279.499 54.4343,276.255" stroke="#262626" stroke-width="2" stroke-linecap="butt" stroke-linejoin="miter" fill="none"/>
   <polyline points="54.4343,23.5533 54.4343,26.7977" stroke="#262626" stroke-width="2" stroke-linecap="butt" stroke-linejoin="miter" fill="none"/>
   <polyline points="119.337,279.499 119.337,276.255" stroke="#262626" stroke-width="2" stroke-linecap="butt" stroke-linejoin="miter" fill="none"/>
   <polyline points="119.337,23.5533 119.337,26.7977" stroke="#262626" stroke-width="2" stroke-linecap="butt" stroke-linejoin="miter" fill="none"/>
   <polyline points="184.239,279.499 184.239,276.255" stroke="#262626" stroke-width="2" stroke-linecap="butt" stroke-linejoin="miter" fill="none"/>
   <polyline points="184.239,23.5533 184.239,26.7977" stroke="#262626" stroke-width="2" stroke-linecap="butt" stroke-linejoin="miter" fill="none"/>
   <polyline points="249.142,279.499 249.142,276.255" stroke="#262626" stroke-width="2" stroke-linecap="butt" stroke-linejoin="miter" fill="none"/>
   <polyline points="249.142,23.5533 249.142,26.7977" stroke="#262626" stroke-width="2" stroke-linecap="butt" stroke-linejoin="miter" fill="none"/>
   <polyline points="314.044,279.499 314.044,276.255" stroke="#262626" stroke-width="2" stroke-linecap="butt" stroke-linejoin="miter" fill="none"/>
   <polyline points="314.044,23.5533 314.044,26.7977" stroke="#262626" stroke-width="2" stroke-linecap="butt" stroke-linejoin="miter" fill="none"/>
   <polyline points="378.946,279.499 378.946,276.255" stroke="#262626" stroke-width="2" stroke-linecap="butt" stroke-linejoin="miter" fill="none"/>
   <polyline points="378.946,23.5533 378.946,26.7977" stroke="#262626" stroke-width="2" stroke-linecap="butt" stroke-linejoin="miter" fill="none"/>
   <g transform="translate(51.4343,294.998) rotate(-0,3,-8)" font-size="10" font-family="FreeSans" font-weight="normal" xml:space="preserve" font-style="normal">
    <text x="0 " y="-0" fill="rgb(38,38,38)">0</text>
   </g>
   <g transform="translate(113.337,294.998) rotate(-0,6,-8)" font-size="10" font-family="FreeSans" font-weight="normal" xml:space="preserve" font-style="normal">
    <text x="0 6 " y="-0" fill="rgb(38,38,38)">20</text>
   </g>
   <g transform="translate(178.239,294.998) rotate(-0,6,-8)" font-size="10" font-family="FreeSans" font-weight="normal" xml:space="preserve" font-style="normal">
    <text x="0 6 " y="-0" fill="rgb(38,38,38)">40</text>
   </g>
   <g transform="translate(243.142,294.998) rotate(-0,6,-8)" font-size="10" font-family="FreeSans" font-weight="normal" xml:space="preserve" font-style="normal">
    <text x="0 6 " y="-0" fill="rgb(38,38,38)">60</text>
   </g>
   <g transform="translate(308.044,294.998) rotate(-0,6,-8)" font-size="10" font-family="FreeSans" font-weight="normal" xml:space="preserve" font-style="normal">
    <text x="0 6 " y="-0" fill="rgb(38,38,38)">80</text>
   </g>
   <g transform="translate(369.946,294.998) rotate(-0,9,-8)" font-size="10" font-family="FreeSans" font-weight="normal" xml:space="preserve" font-style="normal">
    <text x="0 6 12 " y="-0" fill="rgb(38,38,38)">100</text>
   </g>
   <polyline points="54.4343,279.499 57.6745,279.499" stroke="#262626" stroke-width="2" stroke-linecap="butt" stroke-linejoin="miter" fill="none"/>
   <polyline points="378.946,279.499 375.706,279.499" stroke="#262626" stroke-width="2" stroke-linecap="butt" stroke-linejoin="miter" fill="none"/>
   <polyline points="54.4343,228.31 57.6745,228.31" stroke="#262626" stroke-width="2" stroke-linecap="butt" stroke-linejoin="miter" fill="none"/>
   <polyline points="378.946,228.31 375.706,228.31" stroke="#262626" stroke-width="2" stroke-linecap="butt" stroke-linejoin="miter" fill="none"/>
   <polyline points="54.4343,177.121 57.6745,177.121" stroke="#262626" stroke-width="2" stroke-linecap="butt" stroke-linejoin="miter" fill="none"/>
   <polyline points="378.946,177.121 375.706,177.121" stroke="#262626" stroke-width="2" stroke-linecap="butt" stroke-linejoin="miter" fill="none"/>
   <polyline points="54.4343,125.932 57.6745,125.932" stroke="#262626" stroke-width="2" stroke-linecap="butt" stroke-linejoin="miter" fill="none"/>
   <polyline points="378.946,125.932 375.706,125.932" stroke="#262626" stroke-width="2" stroke-linecap="butt" stroke-linejoin="miter" fill="none"/>
   <polyline points="54.4343,74.7425 57.6745,74.7425" stroke="#262626" stroke-width="2" stroke-linecap="butt" stroke-linejoin="miter" fill="none"/>
   <polyline points="378.946,74.7425 375.706,74.7425" stroke="#262626" stroke-width="2" stroke-linecap="butt" stroke-linejoin="miter" fill="none"/>
   <polyline points="54.4343,23.5533 57.6745,23.5533" stroke="#262626" stroke-width="2" stroke-linecap="butt" stroke-linejoin="miter" fill="none"/>
   <polyline points="378.946,23.5533 375.706,23.5533" stroke="#262626" stroke-width="2" stroke-linecap="butt" stroke-linejoin="miter" fill="none"/>
   <g transform="translate(43.4418,283.499) rotate(-0,6,-4)" font-size="10" font-family="FreeSans" font-weight="normal" xml:space="preserve" font-style="normal">
    <text x="0 " y="-0" fill="rgb(38,38,38)">0</text>
   </g>
   <g transform="translate(43.4418,232.31) rotate(-0,6,-4)" font-size="10" font-family="FreeSans" font-weight="normal" xml:space="preserve" font-style="normal">
    <text x="0 " y="-0" fill="rgb(38,38,38)">5</text>
   </g>
   <g transform="translate(37.4418,181.121) rotate(-0,12,-4)" font-size="10" font-family="FreeSans" font-weight="normal" xml:space="preserve" font-style="normal">
    <text x="0 6 " y="-0" fill="rgb(38,38,38)">10</text>
   </g>
   <g transform="translate(37.4418,129.932) rotate(-0,12,-4)" font-size="10" font-family="FreeSans" font-weight="normal" xml:space="preserve" font-style="normal">
    <text x="0 6 " y="-0" fill="rgb(38,38,38)">15</text>
   </g>
   <g transform="translate(37.4418,78.7425) rotate(-0,12,-4)" font-size="10" font-family="FreeSans" font-weight="normal" xml:space="preserve" font-style="normal">
    <text x="0 6 " y="-0" fill="rgb(38,38,38)">20</text>
   </g>
   <g transform="translate(37.4418,27.5533) rotate(-0,12,-4)" font-size="10" font-family="FreeSans" font-weight="normal" xml:space="preserve" font-style="normal">
    <text x="0 6 " y="-0" fill="rgb(38,38,38)">25</text>
   </g>
   <polyline points="54.4343,279.499 378.946,279.499" stroke="#262626" stroke-dasharray="32,0" stroke-width="2" stroke-linecap="square" stroke-linejoin="miter" fill="none"/>
   <polyline points="54.4343,23.5533 378.946,23.5533" stroke="#262626" stroke-dasharray="32,0" stroke-width="2" stroke-linecap="square" stroke-linejoin="miter" fill="none"/>
   <polyline points="54.4343,279.499 54.4343,23.5533" stroke="#262626" stroke-dasharray="32,0" stroke-width="2" stroke-linecap="square" stroke-linejoin="miter" fill="none"/>
   <polyline points="378.946,279.499 378.946,23.5533" stroke="#262626" stroke-dasharray="32,0" stroke-width="2" stroke-linecap="square" stroke-linejoin="miter" fill="none"/>
   <g transform="translate(213.19,308.998) rotate(-0,3.5,-9)" font-size="11" font-family="FreeSans" font-weight="normal" xml:space="preserve" font-style="normal">
    <text x="0 " y="-0" fill="rgb(38,38,38)">X</text>
   </g>
   <g transform="translate(28.9418,151.526) rotate(-90,3.5,0)" font-size="11" font-family="FreeSans" font-weight="normal" xml:space="preserve" font-style="normal">
    <text x="0 " y="-0" fill="rgb(38,38,38)">Y</text>
   </g>
   <polyline points="54.4343,228.31 55.2476,229.499 56.0609,230.631 56.8742,231.705 57.6875,232.722 58.5009,233.683 59.3142,234.59 60.1275,235.442 60.9408,236.24 61.7541,236.986 62.5674,237.68 63.3807,238.322 64.1941,238.914 65.0074,239.456 65.8207,239.949 66.634,240.394 67.4473,240.791 68.2606,241.141 69.0739,241.445 69.8872,241.703 70.7006,241.917 71.5139,242.086 72.3272,242.213 73.1405,242.296 73.9538,242.338 74.7671,242.339 75.5804,242.299 76.3938,242.219 77.2071,242.099 78.0204,241.942 78.8337,241.746 79.647,241.513 80.4603,241.244 81.2736,240.939 82.0869,240.599 82.9003,240.224 83.7136,239.815 84.5269,239.373 85.3402,238.898 86.1535,238.391 86.9668,237.853 87.7801,237.284 88.5935,236.685 89.4068,236.056 90.2201,235.399 91.0334,234.713 91.8467,233.999 92.66,233.259 93.4733,232.492 94.2867,231.699 95.1,230.881 95.9133,230.038 96.7266,229.171 97.5399,228.28 98.3532,227.367 99.1665,226.431 99.9798,225.473 100.793,224.494 101.606,223.494 102.42,222.474 103.233,221.434 104.046,220.376 104.86,219.298 105.673,218.203 106.486,217.09 107.3,215.961 108.113,214.815 108.926,213.653 109.74,212.475 110.553,211.283 111.366,210.077 112.18,208.856 112.993,207.623 113.806,206.376 114.619,205.117 115.433,203.846 116.246,202.564 117.059,201.271 117.873,199.968 118.686,198.654 119.499,197.331 120.313,195.999 121.126,194.659 121.939,193.31 122.753,191.954 123.566,190.59 124.379,189.22 125.193,187.844 126.006,186.461 126.819,185.073 127.632,183.681 128.446,182.283 129.259,180.881 130.072,179.476 130.886,178.067 131.699,176.656 132.512,175.241 133.326,173.825 134.139,172.407 134.952,170.988 135.766,169.567 136.579,168.146 137.392,166.725 138.206,165.304 139.019,163.884 139.832,162.464 140.646,161.046 141.459,159.629 142.272,158.215 143.085,156.803 143.899,155.393 144.712,153.987 145.525,152.583 146.339,151.184 147.152,149.789 147.965,148.398 148.779,147.011 149.592,145.63 150.405,144.254 151.219,142.884 152.032,141.52 152.845,140.162 153.659,138.81 154.472,137.465 155.285,136.128 156.098,134.798 156.912,133.475 157.725,132.161 158.538,130.855 159.352,129.557 160.165,128.268 160.978,126.988 161.792,125.718 162.605,124.457 163.418,123.206 164.232,121.965 165.045,120.734 165.858,119.514 166.672,118.305 167.485,117.107 168.298,115.919 169.111,114.744 169.925,113.58 170.738,112.428 171.551,111.288 172.365,110.16 173.178,109.045 173.991,107.943 174.805,106.853 175.618,105.777 176.431,104.714 177.245,103.664 178.058,102.628 178.871,101.606 179.685,100.598 180.498,99.604 181.311,98.6242 182.124,97.659 182.938,96.7083 183.751,95.7725 184.564,94.8516 185.378,93.9457 186.191,93.055 187.004,92.1797 187.818,91.3198 188.631,90.4755 189.444,89.6469 190.258,88.8342 191.071,88.0373 191.884,87.2566 192.698,86.4919 193.511,85.7436 194.324,85.0115 195.138,84.296 195.951,83.5969 196.764,82.9145 197.577,82.2488 198.391,81.5998 199.204,80.9677 200.017,80.3525 200.831,79.7543 201.644,79.1731 202.457,78.609 203.271,78.0621 204.084,77.5323 204.897,77.0199 205.711,76.5247 206.524,76.0468 207.337,75.5863 208.151,75.1431 208.964,74.7174 209.777,74.3091 210.59,73.9182 211.404,73.5448 212.217,73.1888 213.03,72.8503 213.844,72.5293 214.657,72.2257 215.47,71.9396 216.284,71.6709 217.097,71.4197 217.91,71.1859 218.724,70.9694 219.537,70.7703 220.35,70.5885 221.164,70.424 221.977,70.2768 222.79,70.1467 223.603,70.0338 224.417,69.938 225.23,69.8593 226.043,69.7975 226.857,69.7526 227.67,69.7246 228.483,69.7134 229.297,69.7189 230.11,69.7409 230.923,69.7796 231.737,69.8346 232.55,69.906 233.363,69.9937 234.177,70.0975 234.99,70.2174 235.803,70.3532 236.617,70.5049 237.43,70.6722 238.243,70.8552 239.056,71.0536 239.87,71.2673 240.683,71.4963 241.496,71.7403 242.31,71.9992 243.123,72.2729 243.936,72.5613 244.75,72.8641 245.563,73.1812 246.376,73.5125 247.19,73.8578 248.003,74.2168 248.816,74.5896 249.63,74.9758 250.443,75.3753 251.256,75.7879 252.069,76.2134 252.883,76.6517 253.696,77.1024 254.509,77.5655 255.323,78.0407 256.136,78.5277 256.949,79.0265 257.763,79.5368 258.576,80.0583 259.389,80.5908 260.203,81.1341 261.016,81.6879 261.829,82.2521 262.643,82.8264 263.456,83.4105 264.269,84.0042 265.082,84.6071 265.896,85.2192 266.709,85.8401 267.522,86.4695 268.336,87.1071 269.149,87.7528 269.962,88.4062 270.776,89.067 271.589,89.735 272.402,90.4098 273.216,91.0912 274.029,91.7788 274.842,92.4724 275.656,93.1716 276.469,93.8762 277.282,94.5858 278.095,95.3001 278.909,96.0188 279.722,96.7416 280.535,97.468 281.349,98.1979 282.162,98.9308 282.975,99.6664 283.789,100.404 284.602,101.144 285.415,101.886 286.229,102.629 287.042,103.373 287.855,104.117 288.669,104.862 289.482,105.606 290.295,106.35 291.108,107.093 291.922,107.835 292.735,108.574 293.548,109.312 294.362,110.047 295.175,110.78 295.988,111.509 296.802,112.234 297.615,112.955 298.428,113.671 299.242,114.383 300.055,115.089 300.868,115.789 301.682,116.483 302.495,117.17 303.308,117.85 304.122,118.522 304.935,119.186 305.748,119.842 306.561,120.488 307.375,121.125 308.188,121.753 309.001,122.369 309.815,122.975 310.628,123.57 311.441,124.152 312.255,124.723 313.068,125.28 313.881,125.824 314.695,126.355 315.508,126.871 316.321,127.372 317.135,127.858 317.948,128.328 318.761,128.781 319.574,129.218 320.388,129.637 321.201,130.038 322.014,130.421 322.828,130.784 323.641,131.128 324.454,131.452 325.268,131.755 326.081,132.037 326.894,132.297 327.708,132.535 328.521,132.749 329.334,132.94 330.148,133.107 330.961,133.249 331.774,133.366 332.587,133.458 333.401,133.522 334.214,133.56 335.027,133.57 335.841,133.551 336.654,133.504 337.467,133.427 338.281,133.321 339.094,133.183 339.907,133.014 340.721,132.813 341.534,132.58 342.347,132.313 343.161,132.012 343.974,131.677 344.787,131.306 345.601,130.9 346.414,130.457 347.227,129.977 348.04,129.459 348.854,128.903 349.667,128.307 350.48,127.672 351.294,126.996 352.107,126.278 352.92,125.519 353.734,124.717 354.547,123.872 355.36,122.983 356.174,122.049 356.987,121.07 357.8,120.044 358.614,118.972 359.427,117.852 360.24,116.684 361.053,115.466 361.867,114.199 362.68,112.882 363.493,111.513 364.307,110.092 365.12,108.618 365.933,107.091 366.747,105.509 367.56,103.873 368.373,102.18 369.187,100.431 370,98.6247 370.813,96.7602 371.627,94.8367 372.44,92.8535 373.253,90.8099 374.066,88.7049 374.88,86.5378 375.693,84.3078 376.506,82.0141 377.32,79.6558 378.133,77.2322 378.946,74.7425" stroke="#000000" stroke-width="2" stroke-linecap="butt" stroke-linejoin="round" fill="none"/>
  </g>
 </g>
</svg>
