<?xml version='1.0' encoding='UTF-8' standalone='no'?>
<svg width="418pt" xmlns="http://www.w3.org/2000/svg" height="314pt" viewBox="0 0 418 314" xmlns:xlink="http://www.w3.org/1999/xlink">
 <title>Figure 3</title>
 <desc>
Creator: GL2PS 1.4.2, (C) 1999-2020 C. Geuzaine
For: Octave
CreationDate: Wed Jun  4 10:50:31 2025
</desc>
 <defs/>
 <polygon fill="#ffffff" points="0,0 418,0 418,314 0,314"/>
 <g>
  <polygon fill="#ffffff" points="0,314 418,314 418,0 0,0" shape-rendering="crispEdges"/>
  <clipPath id="cp00418314">
   <polygon points="0,314 418,314 418,0 0,0"/>
  </clipPath>
  <g clip-path="url(#cp00418314)">
   <polygon fill="#ffffff" points="54.4343,279.499 378.946,279.499 378.946,23.5533 54.4343,23.5533" shape-rendering="crispEdges"/>
   <polyline fill="none" stroke-linecap="butt" stroke-width="2" stroke="#262626" points="54.4343,279.499 54.4343,276.255" stroke-linejoin="miter"/>
   <polyline fill="none" stroke-linecap="butt" stroke-width="2" stroke="#262626" points="54.4343,23.5533 54.4343,26.7977" stroke-linejoin="miter"/>
   <polyline fill="none" stroke-linecap="butt" stroke-width="2" stroke="#262626" points="119.337,279.499 119.337,276.255" stroke-linejoin="miter"/>
   <polyline fill="none" stroke-linecap="butt" stroke-width="2" stroke="#262626" points="119.337,23.5533 119.337,26.7977" stroke-linejoin="miter"/>
   <polyline fill="none" stroke-linecap="butt" stroke-width="2" stroke="#262626" points="184.239,279.499 184.239,276.255" stroke-linejoin="miter"/>
   <polyline fill="none" stroke-linecap="butt" stroke-width="2" stroke="#262626" points="184.239,23.5533 184.239,26.7977" stroke-linejoin="miter"/>
   <polyline fill="none" stroke-linecap="butt" stroke-width="2" stroke="#262626" points="249.142,279.499 249.142,276.255" stroke-linejoin="miter"/>
   <polyline fill="none" stroke-linecap="butt" stroke-width="2" stroke="#262626" points="249.142,23.5533 249.142,26.7977" stroke-linejoin="miter"/>
   <polyline fill="none" stroke-linecap="butt" stroke-width="2" stroke="#262626" points="314.044,279.499 314.044,276.255" stroke-linejoin="miter"/>
   <polyline fill="none" stroke-linecap="butt" stroke-width="2" stroke="#262626" points="314.044,23.5533 314.044,26.7977" stroke-linejoin="miter"/>
   <polyline fill="none" stroke-linecap="butt" stroke-width="2" stroke="#262626" points="378.946,279.499 378.946,276.255" stroke-linejoin="miter"/>
   <polyline fill="none" stroke-linecap="butt" stroke-width="2" stroke="#262626" points="378.946,23.5533 378.946,26.7977" stroke-linejoin="miter"/>
   <g font-style="normal" xml:space="preserve" font-family="FreeSans" font-weight="normal" transform="translate(51.4343,294.998) rotate(-0,3,-8)" font-size="10">
    <text fill="rgb(38,38,38)" x="0 " y="-0">0</text>
   </g>
   <g font-style="normal" xml:space="preserve" font-family="FreeSans" font-weight="normal" transform="translate(113.337,294.998) rotate(-0,6,-8)" font-size="10">
    <text fill="rgb(38,38,38)" x="0 6 " y="-0">20</text>
   </g>
   <g font-style="normal" xml:space="preserve" font-family="FreeSans" font-weight="normal" transform="translate(178.239,294.998) rotate(-0,6,-8)" font-size="10">
    <text fill="rgb(38,38,38)" x="0 6 " y="-0">40</text>
   </g>
   <g font-style="normal" xml:space="preserve" font-family="FreeSans" font-weight="normal" transform="translate(243.142,294.998) rotate(-0,6,-8)" font-size="10">
    <text fill="rgb(38,38,38)" x="0 6 " y="-0">60</text>
   </g>
   <g font-style="normal" xml:space="preserve" font-family="FreeSans" font-weight="normal" transform="translate(308.044,294.998) rotate(-0,6,-8)" font-size="10">
    <text fill="rgb(38,38,38)" x="0 6 " y="-0">80</text>
   </g>
   <g font-style="normal" xml:space="preserve" font-family="FreeSans" font-weight="normal" transform="translate(369.946,294.998) rotate(-0,9,-8)" font-size="10">
    <text fill="rgb(38,38,38)" x="0 6 12 " y="-0">100</text>
   </g>
   <polyline fill="none" stroke-linecap="butt" stroke-width="2" stroke="#262626" points="54.4343,279.499 57.6745,279.499" stroke-linejoin="miter"/>
   <polyline fill="none" stroke-linecap="butt" stroke-width="2" stroke="#262626" points="378.946,279.499 375.706,279.499" stroke-linejoin="miter"/>
   <polyline fill="none" stroke-linecap="butt" stroke-width="2" stroke="#262626" points="54.4343,228.31 57.6745,228.31" stroke-linejoin="miter"/>
   <polyline fill="none" stroke-linecap="butt" stroke-width="2" stroke="#262626" points="378.946,228.31 375.706,228.31" stroke-linejoin="miter"/>
   <polyline fill="none" stroke-linecap="butt" stroke-width="2" stroke="#262626" points="54.4343,177.121 57.6745,177.121" stroke-linejoin="miter"/>
   <polyline fill="none" stroke-linecap="butt" stroke-width="2" stroke="#262626" points="378.946,177.121 375.706,177.121" stroke-linejoin="miter"/>
   <polyline fill="none" stroke-linecap="butt" stroke-width="2" stroke="#262626" points="54.4343,125.932 57.6745,125.932" stroke-linejoin="miter"/>
   <polyline fill="none" stroke-linecap="butt" stroke-width="2" stroke="#262626" points="378.946,125.932 375.706,125.932" stroke-linejoin="miter"/>
   <polyline fill="none" stroke-linecap="butt" stroke-width="2" stroke="#262626" points="54.4343,74.7425 57.6745,74.7425" stroke-linejoin="miter"/>
   <polyline fill="none" stroke-linecap="butt" stroke-width="2" stroke="#262626" points="378.946,74.7425 375.706,74.7425" stroke-linejoin="miter"/>
   <polyline fill="none" stroke-linecap="butt" stroke-width="2" stroke="#262626" points="54.4343,23.5533 57.6745,23.5533" stroke-linejoin="miter"/>
   <polyline fill="none" stroke-linecap="butt" stroke-width="2" stroke="#262626" points="378.946,23.5533 375.706,23.5533" stroke-linejoin="miter"/>
   <g font-style="normal" xml:space="preserve" font-family="FreeSans" font-weight="normal" transform="translate(43.4418,283.499) rotate(-0,6,-4)" font-size="10">
    <text fill="rgb(38,38,38)" x="0 " y="-0">0</text>
   </g>
   <g font-style="normal" xml:space="preserve" font-family="FreeSans" font-weight="normal" transform="translate(43.4418,232.31) rotate(-0,6,-4)" font-size="10">
    <text fill="rgb(38,38,38)" x="0 " y="-0">5</text>
   </g>
   <g font-style="normal" xml:space="preserve" font-family="FreeSans" font-weight="normal" transform="translate(37.4418,181.121) rotate(-0,12,-4)" font-size="10">
    <text fill="rgb(38,38,38)" x="0 6 " y="-0">10</text>
   </g>
   <g font-style="normal" xml:space="preserve" font-family="FreeSans" font-weight="normal" transform="translate(37.4418,129.932) rotate(-0,12,-4)" font-size="10">
    <text fill="rgb(38,38,38)" x="0 6 " y="-0">15</text>
   </g>
   <g font-style="normal" xml:space="preserve" font-family="FreeSans" font-weight="normal" transform="translate(37.4418,78.7425) rotate(-0,12,-4)" font-size="10">
    <text fill="rgb(38,38,38)" x="0 6 " y="-0">20</text>
   </g>
   <g font-style="normal" xml:space="preserve" font-family="FreeSans" font-weight="normal" transform="translate(37.4418,27.5533) rotate(-0,12,-4)" font-size="10">
    <text fill="rgb(38,38,38)" x="0 6 " y="-0">25</text>
   </g>
   <polyline fill="none" stroke-linecap="square" stroke-width="2" stroke-dasharray="32,0" stroke="#262626" points="54.4343,279.499 378.946,279.499" stroke-linejoin="miter"/>
   <polyline fill="none" stroke-linecap="square" stroke-width="2" stroke-dasharray="32,0" stroke="#262626" points="54.4343,23.5533 378.946,23.5533" stroke-linejoin="miter"/>
   <polyline fill="none" stroke-linecap="square" stroke-width="2" stroke-dasharray="32,0" stroke="#262626" points="54.4343,279.499 54.4343,23.5533" stroke-linejoin="miter"/>
   <polyline fill="none" stroke-linecap="square" stroke-width="2" stroke-dasharray="32,0" stroke="#262626" points="378.946,279.499 378.946,23.5533" stroke-linejoin="miter"/>
   <g font-style="normal" xml:space="preserve" font-family="FreeSans" font-weight="normal" transform="translate(213.19,308.998) rotate(-0,3.5,-9)" font-size="11">
    <text fill="rgb(38,38,38)" x="0 " y="-0">X</text>
   </g>
   <g font-style="normal" xml:space="preserve" font-family="FreeSans" font-weight="normal" transform="translate(28.9418,151.526) rotate(-90,3.5,0)" font-size="11">
    <text fill="rgb(38,38,38)" x="0 " y="-0">Y</text>
   </g>
   <polyline fill="none" stroke-linecap="round" stroke-width="2" stroke="#ff0000" points="60.6794,258.657 60.1065,260.42 58.6065,261.51 56.7524,261.51 55.2523,260.42 54.6794,258.657 55.2523,256.894 56.7524,255.804 58.6065,255.804 60.1065,256.894 60.6794,258.657" stroke-linejoin="round"/>
   <polyline fill="none" stroke-linecap="round" stroke-width="2" stroke="#ff0000" points="70.4148,212.113 69.8418,213.876 68.3418,214.966 66.4877,214.966 64.9877,213.876 64.4148,212.113 64.9877,210.349 66.4877,209.26 68.3418,209.26 69.8418,210.349 70.4148,212.113" stroke-linejoin="round"/>
   <polyline fill="none" stroke-linecap="round" stroke-width="2" stroke="#ff0000" points="80.1501,256.169 79.5772,257.933 78.0772,259.022 76.2231,259.022 74.7231,257.933 74.1501,256.169 74.7231,254.406 76.2231,253.316 78.0772,253.316 79.5772,254.406 80.1501,256.169" stroke-linejoin="round"/>
   <polyline fill="none" stroke-linecap="round" stroke-width="2" stroke="#ff0000" points="89.8855,253.152 89.3126,254.915 87.8126,256.005 85.9585,256.005 84.4584,254.915 83.8855,253.152 84.4584,251.389 85.9585,250.299 87.8126,250.299 89.3126,251.389 89.8855,253.152" stroke-linejoin="round"/>
   <polyline fill="none" stroke-linecap="round" stroke-width="2" stroke="#ff0000" points="99.6209,246.818 99.0479,248.581 97.5479,249.671 95.6938,249.671 94.1938,248.581 93.6209,246.818 94.1938,245.055 95.6938,243.965 97.5479,243.965 99.0479,245.055 99.6209,246.818" stroke-linejoin="round"/>
   <polyline fill="none" stroke-linecap="round" stroke-width="2" stroke="#ff0000" points="109.356,231.972 108.783,233.735 107.283,234.825 105.429,234.825 103.929,233.735 103.356,231.972 103.929,230.209 105.429,229.119 107.283,229.119 108.783,230.209 109.356,231.972" stroke-linejoin="round"/>
   <polyline fill="none" stroke-linecap="round" stroke-width="2" stroke="#ff0000" points="119.092,188.908 118.519,190.671 117.019,191.761 115.165,191.761 113.665,190.671 113.092,188.908 113.665,187.144 115.165,186.054 117.019,186.054 118.519,187.144 119.092,188.908" stroke-linejoin="round"/>
   <polyline fill="none" stroke-linecap="round" stroke-width="2" stroke="#ff0000" points="128.827,197.17 128.254,198.933 126.754,200.023 124.9,200.023 123.4,198.933 122.827,197.17 123.4,195.406 124.9,194.316 126.754,194.316 128.254,195.406 128.827,197.17" stroke-linejoin="round"/>
   <polyline fill="none" stroke-linecap="round" stroke-width="2" stroke="#ff0000" points="138.562,178.572 137.989,180.335 136.489,181.425 134.635,181.425 133.135,180.335 132.562,178.572 133.135,176.808 134.635,175.718 136.489,175.718 137.989,176.808 138.562,178.572" stroke-linejoin="round"/>
   <polyline fill="none" stroke-linecap="round" stroke-width="2" stroke="#ff0000" points="148.298,128.942 147.725,130.705 146.225,131.795 144.371,131.795 142.871,130.705 142.298,128.942 142.871,127.178 144.371,126.088 146.225,126.088 147.725,127.178 148.298,128.942" stroke-linejoin="round"/>
   <polyline fill="none" stroke-linecap="round" stroke-width="2" stroke="#ff0000" points="158.033,108.48 157.46,110.244 155.96,111.333 154.106,111.333 152.606,110.244 152.033,108.48 152.606,106.717 154.106,105.627 155.96,105.627 157.46,106.717 158.033,108.48" stroke-linejoin="round"/>
   <polyline fill="none" stroke-linecap="round" stroke-width="2" stroke="#ff0000" points="167.768,111.199 167.195,112.963 165.695,114.053 163.841,114.053 162.341,112.963 161.768,111.199 162.341,109.436 163.841,108.346 165.695,108.346 167.195,109.436 167.768,111.199" stroke-linejoin="round"/>
   <polyline fill="none" stroke-linecap="round" stroke-width="2" stroke="#ff0000" points="177.504,118.888 176.931,120.651 175.431,121.741 173.577,121.741 172.077,120.651 171.504,118.888 172.077,117.125 173.577,116.035 175.431,116.035 176.931,117.125 177.504,118.888" stroke-linejoin="round"/>
   <polyline fill="none" stroke-linecap="round" stroke-width="2" stroke="#ff0000" points="187.239,76.8003 186.666,78.5636 185.166,79.6534 183.312,79.6534 181.812,78.5636 181.239,76.8003 181.812,75.0369 183.312,73.9471 185.166,73.9471 186.666,75.0369 187.239,76.8003" stroke-linejoin="round"/>
   <polyline fill="none" stroke-linecap="round" stroke-width="2" stroke="#ff0000" points="196.974,93.4562 196.402,95.2196 194.902,96.3094 193.047,96.3094 191.547,95.2196 190.974,93.4562 191.547,91.6929 193.047,90.603 194.902,90.603 196.402,91.6929 196.974,93.4562" stroke-linejoin="round"/>
   <polyline fill="none" stroke-linecap="round" stroke-width="2" stroke="#ff0000" points="206.71,70.8296 206.137,72.5929 204.637,73.6827 202.783,73.6827 201.283,72.5929 200.71,70.8296 201.283,69.0662 202.783,67.9764 204.637,67.9764 206.137,69.0662 206.71,70.8296" stroke-linejoin="round"/>
   <polyline fill="none" stroke-linecap="round" stroke-width="2" stroke="#ff0000" points="216.445,64.6961 215.872,66.4594 214.372,67.5493 212.518,67.5493 211.018,66.4594 210.445,64.6961 211.018,62.9327 212.518,61.8429 214.372,61.8429 215.872,62.9327 216.445,64.6961" stroke-linejoin="round"/>
   <polyline fill="none" stroke-linecap="round" stroke-width="2" stroke="#ff0000" points="226.181,43.6143 225.608,45.3777 224.108,46.4675 222.254,46.4675 220.754,45.3777 220.181,43.6143 220.754,41.851 222.254,40.7612 224.108,40.7612 225.608,41.851 226.181,43.6143" stroke-linejoin="round"/>
   <polyline fill="none" stroke-linecap="round" stroke-width="2" stroke="#ff0000" points="235.916,72.0172 235.343,73.7805 233.843,74.8703 231.989,74.8703 230.489,73.7805 229.916,72.0172 230.489,70.2538 231.989,69.164 233.843,69.164 235.343,70.2538 235.916,72.0172" stroke-linejoin="round"/>
   <polyline fill="none" stroke-linecap="round" stroke-width="2" stroke="#ff0000" points="245.651,43.3154 245.078,45.0787 243.578,46.1685 241.724,46.1685 240.224,45.0787 239.651,43.3154 240.224,41.552 241.724,40.4622 243.578,40.4622 245.078,41.552 245.651,43.3154" stroke-linejoin="round"/>
   <polyline fill="none" stroke-linecap="round" stroke-width="2" stroke="#ff0000" points="255.387,46.6232 254.814,48.3866 253.314,49.4764 251.46,49.4764 249.96,48.3866 249.387,46.6232 249.96,44.8599 251.46,43.7701 253.314,43.7701 254.814,44.8599 255.387,46.6232" stroke-linejoin="round"/>
   <polyline fill="none" stroke-linecap="round" stroke-width="2" stroke="#ff0000" points="265.122,80.015 264.549,81.7783 263.049,82.8681 261.195,82.8681 259.695,81.7783 259.122,80.015 259.695,78.2516 261.195,77.1618 263.049,77.1618 264.549,78.2516 265.122,80.015" stroke-linejoin="round"/>
   <polyline fill="none" stroke-linecap="round" stroke-width="2" stroke="#ff0000" points="274.857,81.6397 274.284,83.4031 272.784,84.4929 270.93,84.4929 269.43,83.4031 268.857,81.6397 269.43,79.8763 270.93,78.7865 272.784,78.7865 274.284,79.8763 274.857,81.6397" stroke-linejoin="round"/>
   <polyline fill="none" stroke-linecap="round" stroke-width="2" stroke="#ff0000" points="284.593,112.466 284.02,114.229 282.52,115.319 280.666,115.319 279.166,114.229 278.593,112.466 279.166,110.702 280.666,109.613 282.52,109.613 284.02,110.702 284.593,112.466" stroke-linejoin="round"/>
   <polyline fill="none" stroke-linecap="round" stroke-width="2" stroke="#ff0000" points="294.328,110.269 293.755,112.032 292.255,113.122 290.401,113.122 288.901,112.032 288.328,110.269 288.901,108.505 290.401,107.416 292.255,107.416 293.755,108.505 294.328,110.269" stroke-linejoin="round"/>
   <polyline fill="none" stroke-linecap="round" stroke-width="2" stroke="#ff0000" points="304.064,91.6042 303.491,93.3675 301.991,94.4574 300.136,94.4574 298.636,93.3675 298.064,91.6042 298.636,89.8408 300.136,88.751 301.991,88.751 303.491,89.8408 304.064,91.6042" stroke-linejoin="round"/>
   <polyline fill="none" stroke-linecap="round" stroke-width="2" stroke="#ff0000" points="313.799,110.087 313.226,111.85 311.726,112.94 309.872,112.94 308.372,111.85 307.799,110.087 308.372,108.323 309.872,107.233 311.726,107.233 313.226,108.323 313.799,110.087" stroke-linejoin="round"/>
   <polyline fill="none" stroke-linecap="round" stroke-width="2" stroke="#ff0000" points="323.534,146.357 322.961,148.121 321.461,149.21 319.607,149.21 318.107,148.121 317.534,146.357 318.107,144.594 319.607,143.504 321.461,143.504 322.961,144.594 323.534,146.357" stroke-linejoin="round"/>
   <polyline fill="none" stroke-linecap="round" stroke-width="2" stroke="#ff0000" points="333.27,134.908 332.697,136.672 331.197,137.761 329.343,137.761 327.843,136.672 327.27,134.908 327.843,133.145 329.343,132.055 331.197,132.055 332.697,133.145 333.27,134.908" stroke-linejoin="round"/>
   <polyline fill="none" stroke-linecap="round" stroke-width="2" stroke="#ff0000" points="343.005,120.059 342.432,121.823 340.932,122.912 339.078,122.912 337.578,121.823 337.005,120.059 337.578,118.296 339.078,117.206 340.932,117.206 342.432,118.296 343.005,120.059" stroke-linejoin="round"/>
   <polyline fill="none" stroke-linecap="round" stroke-width="2" stroke="#ff0000" points="352.74,158.837 352.167,160.6 350.667,161.69 348.813,161.69 347.313,160.6 346.74,158.837 347.313,157.074 348.813,155.984 350.667,155.984 352.167,157.074 352.74,158.837" stroke-linejoin="round"/>
   <polyline fill="none" stroke-linecap="round" stroke-width="2" stroke="#ff0000" points="362.476,126.377 361.903,128.14 360.403,129.23 358.549,129.23 357.049,128.14 356.476,126.377 357.049,124.614 358.549,123.524 360.403,123.524 361.903,124.614 362.476,126.377" stroke-linejoin="round"/>
   <polyline fill="none" stroke-linecap="round" stroke-width="2" stroke="#ff0000" points="372.211,128.656 371.638,130.419 370.138,131.509 368.284,131.509 366.784,130.419 366.211,128.656 366.784,126.893 368.284,125.803 370.138,125.803 371.638,126.893 372.211,128.656" stroke-linejoin="round"/>
   <polyline fill="none" stroke-linecap="round" stroke-width="2" stroke="#ff0000" points="381.946,73.7207 381.373,75.4841 379.873,76.5739 378.019,76.5739 376.519,75.4841 375.946,73.7207 376.519,71.9574 378.019,70.8676 379.873,70.8676 381.373,71.9574 381.946,73.7207" stroke-linejoin="round"/>
  </g>
 </g>
</svg>
