<?xml version='1.0' encoding='UTF-8' standalone='no'?>
<svg xmlns="http://www.w3.org/2000/svg" height="314pt" xmlns:xlink="http://www.w3.org/1999/xlink" width="418pt" viewBox="0 0 418 314">
 <title>Figure 6</title>
 <desc>
Creator: GL2PS 1.4.2, (C) 1999-2020 C. Geuzaine
For: Octave
CreationDate: Wed Jun  4 10:50:33 2025
</desc>
 <defs/>
 <polygon points="0,0 418,0 418,314 0,314" fill="#ffffff"/>
 <g>
  <polygon points="0,314 418,314 418,0 0,0" fill="#ffffff" shape-rendering="crispEdges"/>
  <clipPath id="cp00418314">
   <polygon points="0,314 418,314 418,0 0,0"/>
  </clipPath>
  <g clip-path="url(#cp00418314)">
   <polygon points="54.4343,279.499 378.946,279.499 378.946,23.5533 54.4343,23.5533" fill="#ffffff" shape-rendering="crispEdges"/>
   <polyline stroke-linecap="butt" points="54.4343,279.499 54.4343,276.255" fill="none" stroke="#262626" stroke-linejoin="miter" stroke-width="2"/>
   <polyline stroke-linecap="butt" points="54.4343,23.5533 54.4343,26.7977" fill="none" stroke="#262626" stroke-linejoin="miter" stroke-width="2"/>
   <polyline stroke-linecap="butt" points="119.337,279.499 119.337,276.255" fill="none" stroke="#262626" stroke-linejoin="miter" stroke-width="2"/>
   <polyline stroke-linecap="butt" points="119.337,23.5533 119.337,26.7977" fill="none" stroke="#262626" stroke-linejoin="miter" stroke-width="2"/>
   <polyline stroke-linecap="butt" points="184.239,279.499 184.239,276.255" fill="none" stroke="#262626" stroke-linejoin="miter" stroke-width="2"/>
   <polyline stroke-linecap="butt" points="184.239,23.5533 184.239,26.7977" fill="none" stroke="#262626" stroke-linejoin="miter" stroke-width="2"/>
   <polyline stroke-linecap="butt" points="249.142,279.499 249.142,276.255" fill="none" stroke="#262626" stroke-linejoin="miter" stroke-width="2"/>
   <polyline stroke-linecap="butt" points="249.142,23.5533 249.142,26.7977" fill="none" stroke="#262626" stroke-linejoin="miter" stroke-width="2"/>
   <polyline stroke-linecap="butt" points="314.044,279.499 314.044,276.255" fill="none" stroke="#262626" stroke-linejoin="miter" stroke-width="2"/>
   <polyline stroke-linecap="butt" points="314.044,23.5533 314.044,26.7977" fill="none" stroke="#262626" stroke-linejoin="miter" stroke-width="2"/>
   <polyline stroke-linecap="butt" points="378.946,279.499 378.946,276.255" fill="none" stroke="#262626" stroke-linejoin="miter" stroke-width="2"/>
   <polyline stroke-linecap="butt" points="378.946,23.5533 378.946,26.7977" fill="none" stroke="#262626" stroke-linejoin="miter" stroke-width="2"/>
   <g xml:space="preserve" font-weight="normal" transform="translate(51.4343,294.998) rotate(-0,3,-8)" font-family="FreeSans" font-style="normal" font-size="10">
    <text x="0 " fill="rgb(38,38,38)" y="-0">0</text>
   </g>
   <g xml:space="preserve" font-weight="normal" transform="translate(113.337,294.998) rotate(-0,6,-8)" font-family="FreeSans" font-style="normal" font-size="10">
    <text x="0 6 " fill="rgb(38,38,38)" y="-0">20</text>
   </g>
   <g xml:space="preserve" font-weight="normal" transform="translate(178.239,294.998) rotate(-0,6,-8)" font-family="FreeSans" font-style="normal" font-size="10">
    <text x="0 6 " fill="rgb(38,38,38)" y="-0">40</text>
   </g>
   <g xml:space="preserve" font-weight="normal" transform="translate(243.142,294.998) rotate(-0,6,-8)" font-family="FreeSans" font-style="normal" font-size="10">
    <text x="0 6 " fill="rgb(38,38,38)" y="-0">60</text>
   </g>
   <g xml:space="preserve" font-weight="normal" transform="translate(308.044,294.998) rotate(-0,6,-8)" font-family="FreeSans" font-style="normal" font-size="10">
    <text x="0 6 " fill="rgb(38,38,38)" y="-0">80</text>
   </g>
   <g xml:space="preserve" font-weight="normal" transform="translate(369.946,294.998) rotate(-0,9,-8)" font-family="FreeSans" font-style="normal" font-size="10">
    <text x="0 6 12 " fill="rgb(38,38,38)" y="-0">100</text>
   </g>
   <polyline stroke-linecap="butt" points="54.4343,279.499 57.6745,279.499" fill="none" stroke="#262626" stroke-linejoin="miter" stroke-width="2"/>
   <polyline stroke-linecap="butt" points="378.946,279.499 375.706,279.499" fill="none" stroke="#262626" stroke-linejoin="miter" stroke-width="2"/>
   <polyline stroke-linecap="butt" points="54.4343,228.31 57.6745,228.31" fill="none" stroke="#262626" stroke-linejoin="miter" stroke-width="2"/>
   <polyline stroke-linecap="butt" points="378.946,228.31 375.706,228.31" fill="none" stroke="#262626" stroke-linejoin="miter" stroke-width="2"/>
   <polyline stroke-linecap="butt" points="54.4343,177.121 57.6745,177.121" fill="none" stroke="#262626" stroke-linejoin="miter" stroke-width="2"/>
   <polyline stroke-linecap="butt" points="378.946,177.121 375.706,177.121" fill="none" stroke="#262626" stroke-linejoin="miter" stroke-width="2"/>
   <polyline stroke-linecap="butt" points="54.4343,125.932 57.6745,125.932" fill="none" stroke="#262626" stroke-linejoin="miter" stroke-width="2"/>
   <polyline stroke-linecap="butt" points="378.946,125.932 375.706,125.932" fill="none" stroke="#262626" stroke-linejoin="miter" stroke-width="2"/>
   <polyline stroke-linecap="butt" points="54.4343,74.7425 57.6745,74.7425" fill="none" stroke="#262626" stroke-linejoin="miter" stroke-width="2"/>
   <polyline stroke-linecap="butt" points="378.946,74.7425 375.706,74.7425" fill="none" stroke="#262626" stroke-linejoin="miter" stroke-width="2"/>
   <polyline stroke-linecap="butt" points="54.4343,23.5533 57.6745,23.5533" fill="none" stroke="#262626" stroke-linejoin="miter" stroke-width="2"/>
   <polyline stroke-linecap="butt" points="378.946,23.5533 375.706,23.5533" fill="none" stroke="#262626" stroke-linejoin="miter" stroke-width="2"/>
   <g xml:space="preserve" font-weight="normal" transform="translate(43.4418,283.499) rotate(-0,6,-4)" font-family="FreeSans" font-style="normal" font-size="10">
    <text x="0 " fill="rgb(38,38,38)" y="-0">0</text>
   </g>
   <g xml:space="preserve" font-weight="normal" transform="translate(43.4418,232.31) rotate(-0,6,-4)" font-family="FreeSans" font-style="normal" font-size="10">
    <text x="0 " fill="rgb(38,38,38)" y="-0">5</text>
   </g>
   <g xml:space="preserve" font-weight="normal" transform="translate(37.4418,181.121) rotate(-0,12,-4)" font-family="FreeSans" font-style="normal" font-size="10">
    <text x="0 6 " fill="rgb(38,38,38)" y="-0">10</text>
   </g>
   <g xml:space="preserve" font-weight="normal" transform="translate(37.4418,129.932) rotate(-0,12,-4)" font-family="FreeSans" font-style="normal" font-size="10">
    <text x="0 6 " fill="rgb(38,38,38)" y="-0">15</text>
   </g>
   <g xml:space="preserve" font-weight="normal" transform="translate(37.4418,78.7425) rotate(-0,12,-4)" font-family="FreeSans" font-style="normal" font-size="10">
    <text x="0 6 " fill="rgb(38,38,38)" y="-0">20</text>
   </g>
   <g xml:space="preserve" font-weight="normal" transform="translate(37.4418,27.5533) rotate(-0,12,-4)" font-family="FreeSans" font-style="normal" font-size="10">
    <text x="0 6 " fill="rgb(38,38,38)" y="-0">25</text>
   </g>
   <polyline stroke-linecap="square" stroke-dasharray="32,0" points="54.4343,279.499 378.946,279.499" fill="none" stroke="#262626" stroke-linejoin="miter" stroke-width="2"/>
   <polyline stroke-linecap="square" stroke-dasharray="32,0" points="54.4343,23.5533 378.946,23.5533" fill="none" stroke="#262626" stroke-linejoin="miter" stroke-width="2"/>
   <polyline stroke-linecap="square" stroke-dasharray="32,0" points="54.4343,279.499 54.4343,23.5533" fill="none" stroke="#262626" stroke-linejoin="miter" stroke-width="2"/>
   <polyline stroke-linecap="square" stroke-dasharray="32,0" points="378.946,279.499 378.946,23.5533" fill="none" stroke="#262626" stroke-linejoin="miter" stroke-width="2"/>
   <g xml:space="preserve" font-weight="normal" transform="translate(213.19,308.998) rotate(-0,3.5,-9)" font-family="FreeSans" font-style="normal" font-size="11">
    <text x="0 " fill="rgb(38,38,38)" y="-0">X</text>
   </g>
   <g xml:space="preserve" font-weight="normal" transform="translate(28.9418,151.526) rotate(-90,3.5,0)" font-family="FreeSans" font-style="normal" font-size="11">
    <text x="0 " fill="rgb(38,38,38)" y="-0">Y</text>
   </g>
   <polyline stroke-linecap="round" points="60.6794,258.657 60.1065,260.42 58.6065,261.51 56.7524,261.51 55.2523,260.42 54.6794,258.657 55.2523,256.894 56.7524,255.804 58.6065,255.804 60.1065,256.894 60.6794,258.657" fill="none" stroke="#ff0000" stroke-linejoin="round" stroke-width="2"/>
   <polyline stroke-linecap="round" points="70.4148,212.113 69.8418,213.876 68.3418,214.966 66.4877,214.966 64.9877,213.876 64.4148,212.113 64.9877,210.349 66.4877,209.26 68.3418,209.26 69.8418,210.349 70.4148,212.113" fill="none" stroke="#ff0000" stroke-linejoin="round" stroke-width="2"/>
   <polyline stroke-linecap="round" points="80.1501,256.169 79.5772,257.933 78.0772,259.022 76.2231,259.022 74.7231,257.933 74.1501,256.169 74.7231,254.406 76.2231,253.316 78.0772,253.316 79.5772,254.406 80.1501,256.169" fill="none" stroke="#ff0000" stroke-linejoin="round" stroke-width="2"/>
   <polyline stroke-linecap="round" points="89.8855,253.152 89.3126,254.915 87.8126,256.005 85.9585,256.005 84.4584,254.915 83.8855,253.152 84.4584,251.389 85.9585,250.299 87.8126,250.299 89.3126,251.389 89.8855,253.152" fill="none" stroke="#ff0000" stroke-linejoin="round" stroke-width="2"/>
   <polyline stroke-linecap="round" points="99.6209,246.818 99.0479,248.581 97.5479,249.671 95.6938,249.671 94.1938,248.581 93.6209,246.818 94.1938,245.055 95.6938,243.965 97.5479,243.965 99.0479,245.055 99.6209,246.818" fill="none" stroke="#ff0000" stroke-linejoin="round" stroke-width="2"/>
   <polyline stroke-linecap="round" points="109.356,231.972 108.783,233.735 107.283,234.825 105.429,234.825 103.929,233.735 103.356,231.972 103.929,230.209 105.429,229.119 107.283,229.119 108.783,230.209 109.356,231.972" fill="none" stroke="#ff0000" stroke-linejoin="round" stroke-width="2"/>
   <polyline stroke-linecap="round" points="119.092,188.908 118.519,190.671 117.019,191.761 115.165,191.761 113.665,190.671 113.092,188.908 113.665,187.144 115.165,186.054 117.019,186.054 118.519,187.144 119.092,188.908" fill="none" stroke="#ff0000" stroke-linejoin="round" stroke-width="2"/>
   <polyline stroke-linecap="round" points="128.827,197.17 128.254,198.933 126.754,200.023 124.9,200.023 123.4,198.933 122.827,197.17 123.4,195.406 124.9,194.316 126.754,194.316 128.254,195.406 128.827,197.17" fill="none" stroke="#ff0000" stroke-linejoin="round" stroke-width="2"/>
   <polyline stroke-linecap="round" points="138.562,178.572 137.989,180.335 136.489,181.425 134.635,181.425 133.135,180.335 132.562,178.572 133.135,176.808 134.635,175.718 136.489,175.718 137.989,176.808 138.562,178.572" fill="none" stroke="#ff0000" stroke-linejoin="round" stroke-width="2"/>
   <polyline stroke-linecap="round" points="148.298,128.942 147.725,130.705 146.225,131.795 144.371,131.795 142.871,130.705 142.298,128.942 142.871,127.178 144.371,126.088 146.225,126.088 147.725,127.178 148.298,128.942" fill="none" stroke="#ff0000" stroke-linejoin="round" stroke-width="2"/>
   <polyline stroke-linecap="round" points="158.033,108.48 157.46,110.244 155.96,111.333 154.106,111.333 152.606,110.244 152.033,108.48 152.606,106.717 154.106,105.627 155.96,105.627 157.46,106.717 158.033,108.48" fill="none" stroke="#ff0000" stroke-linejoin="round" stroke-width="2"/>
   <polyline stroke-linecap="round" points="167.768,111.199 167.195,112.963 165.695,114.053 163.841,114.053 162.341,112.963 161.768,111.199 162.341,109.436 163.841,108.346 165.695,108.346 167.195,109.436 167.768,111.199" fill="none" stroke="#ff0000" stroke-linejoin="round" stroke-width="2"/>
   <polyline stroke-linecap="round" points="177.504,118.888 176.931,120.651 175.431,121.741 173.577,121.741 172.077,120.651 171.504,118.888 172.077,117.125 173.577,116.035 175.431,116.035 176.931,117.125 177.504,118.888" fill="none" stroke="#ff0000" stroke-linejoin="round" stroke-width="2"/>
   <polyline stroke-linecap="round" points="187.239,76.8003 186.666,78.5636 185.166,79.6534 183.312,79.6534 181.812,78.5636 181.239,76.8003 181.812,75.0369 183.312,73.9471 185.166,73.9471 186.666,75.0369 187.239,76.8003" fill="none" stroke="#ff0000" stroke-linejoin="round" stroke-width="2"/>
   <polyline stroke-linecap="round" points="196.974,93.4562 196.402,95.2196 194.902,96.3094 193.047,96.3094 191.547,95.2196 190.974,93.4562 191.547,91.6929 193.047,90.603 194.902,90.603 196.402,91.6929 196.974,93.4562" fill="none" stroke="#ff0000" stroke-linejoin="round" stroke-width="2"/>
   <polyline stroke-linecap="round" points="206.71,70.8296 206.137,72.5929 204.637,73.6827 202.783,73.6827 201.283,72.5929 200.71,70.8296 201.283,69.0662 202.783,67.9764 204.637,67.9764 206.137,69.0662 206.71,70.8296" fill="none" stroke="#ff0000" stroke-linejoin="round" stroke-width="2"/>
   <polyline stroke-linecap="round" points="216.445,64.6961 215.872,66.4594 214.372,67.5493 212.518,67.5493 211.018,66.4594 210.445,64.6961 211.018,62.9327 212.518,61.8429 214.372,61.8429 215.872,62.9327 216.445,64.6961" fill="none" stroke="#ff0000" stroke-linejoin="round" stroke-width="2"/>
   <polyline stroke-linecap="round" points="226.181,43.6143 225.608,45.3777 224.108,46.4675 222.254,46.4675 220.754,45.3777 220.181,43.6143 220.754,41.851 222.254,40.7612 224.108,40.7612 225.608,41.851 226.181,43.6143" fill="none" stroke="#ff0000" stroke-linejoin="round" stroke-width="2"/>
   <polyline stroke-linecap="round" points="235.916,72.0172 235.343,73.7805 233.843,74.8703 231.989,74.8703 230.489,73.7805 229.916,72.0172 230.489,70.2538 231.989,69.164 233.843,69.164 235.343,70.2538 235.916,72.0172" fill="none" stroke="#ff0000" stroke-linejoin="round" stroke-width="2"/>
   <polyline stroke-linecap="round" points="245.651,43.3154 245.078,45.0787 243.578,46.1685 241.724,46.1685 240.224,45.0787 239.651,43.3154 240.224,41.552 241.724,40.4622 243.578,40.4622 245.078,41.552 245.651,43.3154" fill="none" stroke="#ff0000" stroke-linejoin="round" stroke-width="2"/>
   <polyline stroke-linecap="round" points="255.387,46.6232 254.814,48.3866 253.314,49.4764 251.46,49.4764 249.96,48.3866 249.387,46.6232 249.96,44.8599 251.46,43.7701 253.314,43.7701 254.814,44.8599 255.387,46.6232" fill="none" stroke="#ff0000" stroke-linejoin="round" stroke-width="2"/>
   <polyline stroke-linecap="round" points="265.122,80.015 264.549,81.7783 263.049,82.8681 261.195,82.8681 259.695,81.7783 259.122,80.015 259.695,78.2516 261.195,77.1618 263.049,77.1618 264.549,78.2516 265.122,80.015" fill="none" stroke="#ff0000" stroke-linejoin="round" stroke-width="2"/>
   <polyline stroke-linecap="round" points="274.857,81.6397 274.284,83.4031 272.784,84.4929 270.93,84.4929 269.43,83.4031 268.857,81.6397 269.43,79.8763 270.93,78.7865 272.784,78.7865 274.284,79.8763 274.857,81.6397" fill="none" stroke="#ff0000" stroke-linejoin="round" stroke-width="2"/>
   <polyline stroke-linecap="round" points="284.593,112.466 284.02,114.229 282.52,115.319 280.666,115.319 279.166,114.229 278.593,112.466 279.166,110.702 280.666,109.613 282.52,109.613 284.02,110.702 284.593,112.466" fill="none" stroke="#ff0000" stroke-linejoin="round" stroke-width="2"/>
   <polyline stroke-linecap="round" points="294.328,110.269 293.755,112.032 292.255,113.122 290.401,113.122 288.901,112.032 288.328,110.269 288.901,108.505 290.401,107.416 292.255,107.416 293.755,108.505 294.328,110.269" fill="none" stroke="#ff0000" stroke-linejoin="round" stroke-width="2"/>
   <polyline stroke-linecap="round" points="304.064,91.6042 303.491,93.3675 301.991,94.4574 300.136,94.4574 298.636,93.3675 298.064,91.6042 298.636,89.8408 300.136,88.751 301.991,88.751 303.491,89.8408 304.064,91.6042" fill="none" stroke="#ff0000" stroke-linejoin="round" stroke-width="2"/>
   <polyline stroke-linecap="round" points="313.799,110.087 313.226,111.85 311.726,112.94 309.872,112.94 308.372,111.85 307.799,110.087 308.372,108.323 309.872,107.233 311.726,107.233 313.226,108.323 313.799,110.087" fill="none" stroke="#ff0000" stroke-linejoin="round" stroke-width="2"/>
   <polyline stroke-linecap="round" points="323.534,146.357 322.961,148.121 321.461,149.21 319.607,149.21 318.107,148.121 317.534,146.357 318.107,144.594 319.607,143.504 321.461,143.504 322.961,144.594 323.534,146.357" fill="none" stroke="#ff0000" stroke-linejoin="round" stroke-width="2"/>
   <polyline stroke-linecap="round" points="333.27,134.908 332.697,136.672 331.197,137.761 329.343,137.761 327.843,136.672 327.27,134.908 327.843,133.145 329.343,132.055 331.197,132.055 332.697,133.145 333.27,134.908" fill="none" stroke="#ff0000" stroke-linejoin="round" stroke-width="2"/>
   <polyline stroke-linecap="round" points="343.005,120.059 342.432,121.823 340.932,122.912 339.078,122.912 337.578,121.823 337.005,120.059 337.578,118.296 339.078,117.206 340.932,117.206 342.432,118.296 343.005,120.059" fill="none" stroke="#ff0000" stroke-linejoin="round" stroke-width="2"/>
   <polyline stroke-linecap="round" points="352.74,158.837 352.167,160.6 350.667,161.69 348.813,161.69 347.313,160.6 346.74,158.837 347.313,157.074 348.813,155.984 350.667,155.984 352.167,157.074 352.74,158.837" fill="none" stroke="#ff0000" stroke-linejoin="round" stroke-width="2"/>
   <polyline stroke-linecap="round" points="362.476,126.377 361.903,128.14 360.403,129.23 358.549,129.23 357.049,128.14 356.476,126.377 357.049,124.614 358.549,123.524 360.403,123.524 361.903,124.614 362.476,126.377" fill="none" stroke="#ff0000" stroke-linejoin="round" stroke-width="2"/>
   <polyline stroke-linecap="round" points="372.211,128.656 371.638,130.419 370.138,131.509 368.284,131.509 366.784,130.419 366.211,128.656 366.784,126.893 368.284,125.803 370.138,125.803 371.638,126.893 372.211,128.656" fill="none" stroke="#ff0000" stroke-linejoin="round" stroke-width="2"/>
   <polyline stroke-linecap="round" points="381.946,73.7207 381.373,75.4841 379.873,76.5739 378.019,76.5739 376.519,75.4841 375.946,73.7207 376.519,71.9574 378.019,70.8676 379.873,70.8676 381.373,71.9574 381.946,73.7207" fill="none" stroke="#ff0000" stroke-linejoin="round" stroke-width="2"/>
   <polyline stroke-linecap="butt" points="54.4343,236.323 55.2476,237.644 56.0609,238.899 56.8742,240.089 57.6875,241.214 58.5009,242.276 59.3142,243.275 60.1275,244.212 60.9408,245.088 61.7541,245.904 62.5674,246.66 63.3807,247.358 64.1941,247.999 65.0074,248.583 65.8207,249.111 66.634,249.584 67.4473,250.003 68.2606,250.369 69.0739,250.682 69.8872,250.944 70.7006,251.154 71.5139,251.315 72.3272,251.426 73.1405,251.489 73.9538,251.504 74.7671,251.472 75.5804,251.395 76.3938,251.272 77.2071,251.104 78.0204,250.893 78.8337,250.639 79.647,250.343 80.4603,250.005 81.2736,249.626 82.0869,249.208 82.9003,248.751 83.7136,248.255 84.5269,247.721 85.3402,247.15 86.1535,246.544 86.9668,245.901 87.7801,245.224 88.5935,244.513 89.4068,243.769 90.2201,242.992 91.0334,242.183 91.8467,241.343 92.66,240.472 93.4733,239.571 94.2867,238.641 95.1,237.683 95.9133,236.697 96.7266,235.683 97.5399,234.643 98.3532,233.578 99.1665,232.487 99.9798,231.371 100.793,230.232 101.606,229.07 102.42,227.884 103.233,226.677 104.046,225.449 104.86,224.199 105.673,222.93 106.486,221.641 107.3,220.333 108.113,219.007 108.926,217.664 109.74,216.303 110.553,214.925 111.366,213.532 112.18,212.123 112.993,210.7 113.806,209.262 114.619,207.811 115.433,206.347 116.246,204.87 117.059,203.381 117.873,201.881 118.686,200.37 119.499,198.848 120.313,197.317 121.126,195.777 121.939,194.227 122.753,192.67 123.566,191.105 124.379,189.532 125.193,187.953 126.006,186.368 126.819,184.777 127.632,183.181 128.446,181.58 129.259,179.974 130.072,178.365 130.886,176.753 131.699,175.138 132.512,173.521 133.326,171.901 134.139,170.28 134.952,168.659 135.766,167.036 136.579,165.414 137.392,163.792 138.206,162.17 139.019,160.55 139.832,158.931 140.646,157.315 141.459,155.7 142.272,154.089 143.085,152.481 143.899,150.876 144.712,149.276 145.525,147.68 146.339,146.089 147.152,144.503 147.965,142.922 148.779,141.348 149.592,139.779 150.405,138.218 151.219,136.663 152.032,135.116 152.845,133.576 153.659,132.045 154.472,130.521 155.285,129.007 156.098,127.502 156.912,126.006 157.725,124.519 158.538,123.043 159.352,121.577 160.165,120.122 160.978,118.677 161.792,117.244 162.605,115.822 163.418,114.412 164.232,113.015 165.045,111.629 165.858,110.256 166.672,108.896 167.485,107.549 168.298,106.216 169.111,104.896 169.925,103.59 170.738,102.298 171.551,101.021 172.365,99.7585 173.178,98.5107 173.991,97.2779 174.805,96.0605 175.618,94.8586 176.431,93.6725 177.245,92.5023 178.058,91.3482 178.871,90.2105 179.685,89.0893 180.498,87.9848 181.311,86.8973 182.124,85.8268 182.938,84.7736 183.751,83.7379 184.564,82.7197 185.378,81.7193 186.191,80.7368 187.004,79.7724 187.818,78.8261 188.631,77.8983 189.444,76.9889 190.258,76.0981 191.071,75.2261 191.884,74.3729 192.698,73.5388 193.511,72.7237 194.324,71.9279 195.138,71.1514 195.951,70.3943 196.764,69.6567 197.577,68.9387 198.391,68.2404 199.204,67.5619 200.017,66.9032 200.831,66.2645 201.644,65.6457 202.457,65.047 203.271,64.4684 204.084,63.9099 204.897,63.3716 205.711,62.8536 206.524,62.3559 207.337,61.8785 208.151,61.4215 208.964,60.9848 209.777,60.5686 210.59,60.1727 211.404,59.7973 212.217,59.4423 213.03,59.1078 213.844,58.7937 214.657,58.5 215.47,58.2267 216.284,57.9738 217.097,57.7413 217.91,57.5291 218.724,57.3373 219.537,57.1657 220.35,57.0144 221.164,56.8833 221.977,56.7723 222.79,56.6814 223.603,56.6106 224.417,56.5597 225.23,56.5287 226.043,56.5175 226.857,56.5262 227.67,56.5544 228.483,56.6023 229.297,56.6697 230.11,56.7564 230.923,56.8625 231.737,56.9877 232.55,57.132 233.363,57.2953 234.177,57.4774 234.99,57.6783 235.803,57.8977 236.617,58.1356 237.43,58.3918 238.243,58.6663 239.056,58.9587 239.87,59.269 240.683,59.597 241.496,59.9426 242.31,60.3056 243.123,60.6858 243.936,61.0831 244.75,61.4973 245.563,61.9281 246.376,62.3754 247.19,62.839 248.003,63.3187 248.816,63.8143 249.63,64.3257 250.443,64.8525 251.256,65.3945 252.069,65.9516 252.883,66.5235 253.696,67.11 254.509,67.7109 255.323,68.3258 256.136,68.9546 256.949,69.597 257.763,70.2528 258.576,70.9216 259.389,71.6033 260.203,72.2976 261.016,73.0042 261.829,73.7227 262.643,74.453 263.456,75.1947 264.269,75.9476 265.082,76.7113 265.896,77.4856 266.709,78.2702 267.522,79.0647 268.336,79.8688 269.149,80.6821 269.962,81.5045 270.776,82.3356 271.589,83.1749 272.402,84.0222 273.216,84.8771 274.029,85.7394 274.842,86.6085 275.656,87.4843 276.469,88.3662 277.282,89.254 278.095,90.1473 278.909,91.0456 279.722,91.9487 280.535,92.8561 281.349,93.7675 282.162,94.6824 282.975,95.6005 283.789,96.5213 284.602,97.4444 285.415,98.3695 286.229,99.2961 287.042,100.224 287.855,101.152 288.669,102.081 289.482,103.009 290.295,103.937 291.108,104.863 291.922,105.788 292.735,106.711 293.548,107.632 294.362,108.55 295.175,109.464 295.988,110.374 296.802,111.28 297.615,112.181 298.428,113.077 299.242,113.967 300.055,114.851 300.868,115.728 301.682,116.598 302.495,117.459 303.308,118.313 304.122,119.158 304.935,119.993 305.748,120.818 306.561,121.633 307.375,122.437 308.188,123.229 309.001,124.009 309.815,124.777 310.628,125.531 311.441,126.272 312.255,126.998 313.068,127.71 313.881,128.406 314.695,129.085 315.508,129.749 316.321,130.395 317.135,131.023 317.948,131.633 318.761,132.223 319.574,132.795 320.388,133.345 321.201,133.875 322.014,134.384 322.828,134.87 323.641,135.334 324.454,135.774 325.268,136.19 326.081,136.582 326.894,136.948 327.708,137.288 328.521,137.602 329.334,137.888 330.148,138.147 330.961,138.376 331.774,138.577 332.587,138.747 333.401,138.887 334.214,138.995 335.027,139.071 335.841,139.114 336.654,139.124 337.467,139.1 338.281,139.04 339.094,138.945 339.907,138.814 340.721,138.646 341.534,138.439 342.347,138.194 343.161,137.91 343.974,137.586 344.787,137.221 345.601,136.814 346.414,136.365 347.227,135.873 348.04,135.337 348.854,134.756 349.667,134.13 350.48,133.458 351.294,132.739 352.107,131.971 352.92,131.156 353.734,130.29 354.547,129.375 355.36,128.408 356.174,127.39 356.987,126.319 357.8,125.194 358.614,124.015 359.427,122.781 360.24,121.491 361.053,120.144 361.867,118.739 362.68,117.276 363.493,115.753 364.307,114.17 365.12,112.526 365.933,110.82 366.747,109.05 367.56,107.217 368.373,105.32 369.187,103.356 370,101.326 370.813,99.2291 371.627,97.0635 372.44,94.8287 373.253,92.5238 374.066,90.1478 374.88,87.6999 375.693,85.179 376.506,82.5843 377.32,79.9148 378.133,77.1696 378.946,74.3476" fill="none" stroke="#0071bc" stroke-linejoin="round" stroke-width="3"/>
  </g>
 </g>
</svg>
