<?xml version='1.0' encoding='UTF-8' standalone='no'?>
<svg xmlns:xlink="http://www.w3.org/1999/xlink" xmlns="http://www.w3.org/2000/svg" height="314pt" width="418pt" viewBox="0 0 418 314">
 <title>Figure 4</title>
 <desc>
Creator: GL2PS 1.4.2, (C) 1999-2020 C. Geuzaine
For: Octave
CreationDate: Wed Jun  4 10:50:32 2025
</desc>
 <defs/>
 <polygon fill="#ffffff" points="0,0 418,0 418,314 0,314"/>
 <g>
  <polygon fill="#ffffff" points="0,314 418,314 418,0 0,0" shape-rendering="crispEdges"/>
  <clipPath id="cp00418314">
   <polygon points="0,314 418,314 418,0 0,0"/>
  </clipPath>
  <g clip-path="url(#cp00418314)">
   <polygon fill="#ffffff" shape-rendering="crispEdges" points="54.4343,279.499 378.946,279.499 378.946,23.5533 54.4343,23.5533"/>
   <polyline stroke="#262626" stroke-width="2" stroke-linecap="butt" fill="none" stroke-linejoin="miter" points="54.4343,279.499 54.4343,276.255"/>
   <polyline stroke="#262626" stroke-width="2" stroke-linecap="butt" fill="none" stroke-linejoin="miter" points="54.4343,23.5533 54.4343,26.7977"/>
   <polyline stroke="#262626" stroke-width="2" stroke-linecap="butt" fill="none" stroke-linejoin="miter" points="119.337,279.499 119.337,276.255"/>
   <polyline stroke="#262626" stroke-width="2" stroke-linecap="butt" fill="none" stroke-linejoin="miter" points="119.337,23.5533 119.337,26.7977"/>
   <polyline stroke="#262626" stroke-width="2" stroke-linecap="butt" fill="none" stroke-linejoin="miter" points="184.239,279.499 184.239,276.255"/>
   <polyline stroke="#262626" stroke-width="2" stroke-linecap="butt" fill="none" stroke-linejoin="miter" points="184.239,23.5533 184.239,26.7977"/>
   <polyline stroke="#262626" stroke-width="2" stroke-linecap="butt" fill="none" stroke-linejoin="miter" points="249.142,279.499 249.142,276.255"/>
   <polyline stroke="#262626" stroke-width="2" stroke-linecap="butt" fill="none" stroke-linejoin="miter" points="249.142,23.5533 249.142,26.7977"/>
   <polyline stroke="#262626" stroke-width="2" stroke-linecap="butt" fill="none" stroke-linejoin="miter" points="314.044,279.499 314.044,276.255"/>
   <polyline stroke="#262626" stroke-width="2" stroke-linecap="butt" fill="none" stroke-linejoin="miter" points="314.044,23.5533 314.044,26.7977"/>
   <polyline stroke="#262626" stroke-width="2" stroke-linecap="butt" fill="none" stroke-linejoin="miter" points="378.946,279.499 378.946,276.255"/>
   <polyline stroke="#262626" stroke-width="2" stroke-linecap="butt" fill="none" stroke-linejoin="miter" points="378.946,23.5533 378.946,26.7977"/>
   <g xml:space="preserve" font-family="FreeSans" font-style="normal" font-weight="normal" transform="translate(51.4343,294.998) rotate(-0,3,-8)" font-size="10">
    <text fill="rgb(38,38,38)" y="-0" x="0 ">0</text>
   </g>
   <g xml:space="preserve" font-family="FreeSans" font-style="normal" font-weight="normal" transform="translate(113.337,294.998) rotate(-0,6,-8)" font-size="10">
    <text fill="rgb(38,38,38)" y="-0" x="0 6 ">20</text>
   </g>
   <g xml:space="preserve" font-family="FreeSans" font-style="normal" font-weight="normal" transform="translate(178.239,294.998) rotate(-0,6,-8)" font-size="10">
    <text fill="rgb(38,38,38)" y="-0" x="0 6 ">40</text>
   </g>
   <g xml:space="preserve" font-family="FreeSans" font-style="normal" font-weight="normal" transform="translate(243.142,294.998) rotate(-0,6,-8)" font-size="10">
    <text fill="rgb(38,38,38)" y="-0" x="0 6 ">60</text>
   </g>
   <g xml:space="preserve" font-family="FreeSans" font-style="normal" font-weight="normal" transform="translate(308.044,294.998) rotate(-0,6,-8)" font-size="10">
    <text fill="rgb(38,38,38)" y="-0" x="0 6 ">80</text>
   </g>
   <g xml:space="preserve" font-family="FreeSans" font-style="normal" font-weight="normal" transform="translate(369.946,294.998) rotate(-0,9,-8)" font-size="10">
    <text fill="rgb(38,38,38)" y="-0" x="0 6 12 ">100</text>
   </g>
   <polyline stroke="#262626" stroke-width="2" stroke-linecap="butt" fill="none" stroke-linejoin="miter" points="54.4343,279.499 57.6745,279.499"/>
   <polyline stroke="#262626" stroke-width="2" stroke-linecap="butt" fill="none" stroke-linejoin="miter" points="378.946,279.499 375.706,279.499"/>
   <polyline stroke="#262626" stroke-width="2" stroke-linecap="butt" fill="none" stroke-linejoin="miter" points="54.4343,228.31 57.6745,228.31"/>
   <polyline stroke="#262626" stroke-width="2" stroke-linecap="butt" fill="none" stroke-linejoin="miter" points="378.946,228.31 375.706,228.31"/>
   <polyline stroke="#262626" stroke-width="2" stroke-linecap="butt" fill="none" stroke-linejoin="miter" points="54.4343,177.121 57.6745,177.121"/>
   <polyline stroke="#262626" stroke-width="2" stroke-linecap="butt" fill="none" stroke-linejoin="miter" points="378.946,177.121 375.706,177.121"/>
   <polyline stroke="#262626" stroke-width="2" stroke-linecap="butt" fill="none" stroke-linejoin="miter" points="54.4343,125.932 57.6745,125.932"/>
   <polyline stroke="#262626" stroke-width="2" stroke-linecap="butt" fill="none" stroke-linejoin="miter" points="378.946,125.932 375.706,125.932"/>
   <polyline stroke="#262626" stroke-width="2" stroke-linecap="butt" fill="none" stroke-linejoin="miter" points="54.4343,74.7425 57.6745,74.7425"/>
   <polyline stroke="#262626" stroke-width="2" stroke-linecap="butt" fill="none" stroke-linejoin="miter" points="378.946,74.7425 375.706,74.7425"/>
   <polyline stroke="#262626" stroke-width="2" stroke-linecap="butt" fill="none" stroke-linejoin="miter" points="54.4343,23.5533 57.6745,23.5533"/>
   <polyline stroke="#262626" stroke-width="2" stroke-linecap="butt" fill="none" stroke-linejoin="miter" points="378.946,23.5533 375.706,23.5533"/>
   <g xml:space="preserve" font-family="FreeSans" font-style="normal" font-weight="normal" transform="translate(43.4418,283.499) rotate(-0,6,-4)" font-size="10">
    <text fill="rgb(38,38,38)" y="-0" x="0 ">0</text>
   </g>
   <g xml:space="preserve" font-family="FreeSans" font-style="normal" font-weight="normal" transform="translate(43.4418,232.31) rotate(-0,6,-4)" font-size="10">
    <text fill="rgb(38,38,38)" y="-0" x="0 ">5</text>
   </g>
   <g xml:space="preserve" font-family="FreeSans" font-style="normal" font-weight="normal" transform="translate(37.4418,181.121) rotate(-0,12,-4)" font-size="10">
    <text fill="rgb(38,38,38)" y="-0" x="0 6 ">10</text>
   </g>
   <g xml:space="preserve" font-family="FreeSans" font-style="normal" font-weight="normal" transform="translate(37.4418,129.932) rotate(-0,12,-4)" font-size="10">
    <text fill="rgb(38,38,38)" y="-0" x="0 6 ">15</text>
   </g>
   <g xml:space="preserve" font-family="FreeSans" font-style="normal" font-weight="normal" transform="translate(37.4418,78.7425) rotate(-0,12,-4)" font-size="10">
    <text fill="rgb(38,38,38)" y="-0" x="0 6 ">20</text>
   </g>
   <g xml:space="preserve" font-family="FreeSans" font-style="normal" font-weight="normal" transform="translate(37.4418,27.5533) rotate(-0,12,-4)" font-size="10">
    <text fill="rgb(38,38,38)" y="-0" x="0 6 ">25</text>
   </g>
   <polyline stroke="#262626" stroke-width="2" stroke-linecap="square" fill="none" stroke-linejoin="miter" stroke-dasharray="32,0" points="54.4343,279.499 378.946,279.499"/>
   <polyline stroke="#262626" stroke-width="2" stroke-linecap="square" fill="none" stroke-linejoin="miter" stroke-dasharray="32,0" points="54.4343,23.5533 378.946,23.5533"/>
   <polyline stroke="#262626" stroke-width="2" stroke-linecap="square" fill="none" stroke-linejoin="miter" stroke-dasharray="32,0" points="54.4343,279.499 54.4343,23.5533"/>
   <polyline stroke="#262626" stroke-width="2" stroke-linecap="square" fill="none" stroke-linejoin="miter" stroke-dasharray="32,0" points="378.946,279.499 378.946,23.5533"/>
   <g xml:space="preserve" font-family="FreeSans" font-style="normal" font-weight="normal" transform="translate(213.19,308.998) rotate(-0,3.5,-9)" font-size="11">
    <text fill="rgb(38,38,38)" y="-0" x="0 ">X</text>
   </g>
   <g xml:space="preserve" font-family="FreeSans" font-style="normal" font-weight="normal" transform="translate(28.9418,151.526) rotate(-90,3.5,0)" font-size="11">
    <text fill="rgb(38,38,38)" y="-0" x="0 ">Y</text>
   </g>
   <polyline stroke="#ff0000" stroke-width="2" stroke-linecap="round" fill="none" stroke-linejoin="round" points="60.6794,258.657 60.1065,260.42 58.6065,261.51 56.7524,261.51 55.2523,260.42 54.6794,258.657 55.2523,256.894 56.7524,255.804 58.6065,255.804 60.1065,256.894 60.6794,258.657"/>
   <polyline stroke="#ff0000" stroke-width="2" stroke-linecap="round" fill="none" stroke-linejoin="round" points="70.4148,212.113 69.8418,213.876 68.3418,214.966 66.4877,214.966 64.9877,213.876 64.4148,212.113 64.9877,210.349 66.4877,209.26 68.3418,209.26 69.8418,210.349 70.4148,212.113"/>
   <polyline stroke="#ff0000" stroke-width="2" stroke-linecap="round" fill="none" stroke-linejoin="round" points="80.1501,256.169 79.5772,257.933 78.0772,259.022 76.2231,259.022 74.7231,257.933 74.1501,256.169 74.7231,254.406 76.2231,253.316 78.0772,253.316 79.5772,254.406 80.1501,256.169"/>
   <polyline stroke="#ff0000" stroke-width="2" stroke-linecap="round" fill="none" stroke-linejoin="round" points="89.8855,253.152 89.3126,254.915 87.8126,256.005 85.9585,256.005 84.4584,254.915 83.8855,253.152 84.4584,251.389 85.9585,250.299 87.8126,250.299 89.3126,251.389 89.8855,253.152"/>
   <polyline stroke="#ff0000" stroke-width="2" stroke-linecap="round" fill="none" stroke-linejoin="round" points="99.6209,246.818 99.0479,248.581 97.5479,249.671 95.6938,249.671 94.1938,248.581 93.6209,246.818 94.1938,245.055 95.6938,243.965 97.5479,243.965 99.0479,245.055 99.6209,246.818"/>
   <polyline stroke="#ff0000" stroke-width="2" stroke-linecap="round" fill="none" stroke-linejoin="round" points="109.356,231.972 108.783,233.735 107.283,234.825 105.429,234.825 103.929,233.735 103.356,231.972 103.929,230.209 105.429,229.119 107.283,229.119 108.783,230.209 109.356,231.972"/>
   <polyline stroke="#ff0000" stroke-width="2" stroke-linecap="round" fill="none" stroke-linejoin="round" points="119.092,188.908 118.519,190.671 117.019,191.761 115.165,191.761 113.665,190.671 113.092,188.908 113.665,187.144 115.165,186.054 117.019,186.054 118.519,187.144 119.092,188.908"/>
   <polyline stroke="#ff0000" stroke-width="2" stroke-linecap="round" fill="none" stroke-linejoin="round" points="128.827,197.17 128.254,198.933 126.754,200.023 124.9,200.023 123.4,198.933 122.827,197.17 123.4,195.406 124.9,194.316 126.754,194.316 128.254,195.406 128.827,197.17"/>
   <polyline stroke="#ff0000" stroke-width="2" stroke-linecap="round" fill="none" stroke-linejoin="round" points="138.562,178.572 137.989,180.335 136.489,181.425 134.635,181.425 133.135,180.335 132.562,178.572 133.135,176.808 134.635,175.718 136.489,175.718 137.989,176.808 138.562,178.572"/>
   <polyline stroke="#ff0000" stroke-width="2" stroke-linecap="round" fill="none" stroke-linejoin="round" points="148.298,128.942 147.725,130.705 146.225,131.795 144.371,131.795 142.871,130.705 142.298,128.942 142.871,127.178 144.371,126.088 146.225,126.088 147.725,127.178 148.298,128.942"/>
   <polyline stroke="#ff0000" stroke-width="2" stroke-linecap="round" fill="none" stroke-linejoin="round" points="158.033,108.48 157.46,110.244 155.96,111.333 154.106,111.333 152.606,110.244 152.033,108.48 152.606,106.717 154.106,105.627 155.96,105.627 157.46,106.717 158.033,108.48"/>
   <polyline stroke="#ff0000" stroke-width="2" stroke-linecap="round" fill="none" stroke-linejoin="round" points="167.768,111.199 167.195,112.963 165.695,114.053 163.841,114.053 162.341,112.963 161.768,111.199 162.341,109.436 163.841,108.346 165.695,108.346 167.195,109.436 167.768,111.199"/>
   <polyline stroke="#ff0000" stroke-width="2" stroke-linecap="round" fill="none" stroke-linejoin="round" points="177.504,118.888 176.931,120.651 175.431,121.741 173.577,121.741 172.077,120.651 171.504,118.888 172.077,117.125 173.577,116.035 175.431,116.035 176.931,117.125 177.504,118.888"/>
   <polyline stroke="#ff0000" stroke-width="2" stroke-linecap="round" fill="none" stroke-linejoin="round" points="187.239,76.8003 186.666,78.5636 185.166,79.6534 183.312,79.6534 181.812,78.5636 181.239,76.8003 181.812,75.0369 183.312,73.9471 185.166,73.9471 186.666,75.0369 187.239,76.8003"/>
   <polyline stroke="#ff0000" stroke-width="2" stroke-linecap="round" fill="none" stroke-linejoin="round" points="196.974,93.4562 196.402,95.2196 194.902,96.3094 193.047,96.3094 191.547,95.2196 190.974,93.4562 191.547,91.6929 193.047,90.603 194.902,90.603 196.402,91.6929 196.974,93.4562"/>
   <polyline stroke="#ff0000" stroke-width="2" stroke-linecap="round" fill="none" stroke-linejoin="round" points="206.71,70.8296 206.137,72.5929 204.637,73.6827 202.783,73.6827 201.283,72.5929 200.71,70.8296 201.283,69.0662 202.783,67.9764 204.637,67.9764 206.137,69.0662 206.71,70.8296"/>
   <polyline stroke="#ff0000" stroke-width="2" stroke-linecap="round" fill="none" stroke-linejoin="round" points="216.445,64.6961 215.872,66.4594 214.372,67.5493 212.518,67.5493 211.018,66.4594 210.445,64.6961 211.018,62.9327 212.518,61.8429 214.372,61.8429 215.872,62.9327 216.445,64.6961"/>
   <polyline stroke="#ff0000" stroke-width="2" stroke-linecap="round" fill="none" stroke-linejoin="round" points="226.181,43.6143 225.608,45.3777 224.108,46.4675 222.254,46.4675 220.754,45.3777 220.181,43.6143 220.754,41.851 222.254,40.7612 224.108,40.7612 225.608,41.851 226.181,43.6143"/>
   <polyline stroke="#ff0000" stroke-width="2" stroke-linecap="round" fill="none" stroke-linejoin="round" points="235.916,72.0172 235.343,73.7805 233.843,74.8703 231.989,74.8703 230.489,73.7805 229.916,72.0172 230.489,70.2538 231.989,69.164 233.843,69.164 235.343,70.2538 235.916,72.0172"/>
   <polyline stroke="#ff0000" stroke-width="2" stroke-linecap="round" fill="none" stroke-linejoin="round" points="245.651,43.3154 245.078,45.0787 243.578,46.1685 241.724,46.1685 240.224,45.0787 239.651,43.3154 240.224,41.552 241.724,40.4622 243.578,40.4622 245.078,41.552 245.651,43.3154"/>
   <polyline stroke="#ff0000" stroke-width="2" stroke-linecap="round" fill="none" stroke-linejoin="round" points="255.387,46.6232 254.814,48.3866 253.314,49.4764 251.46,49.4764 249.96,48.3866 249.387,46.6232 249.96,44.8599 251.46,43.7701 253.314,43.7701 254.814,44.8599 255.387,46.6232"/>
   <polyline stroke="#ff0000" stroke-width="2" stroke-linecap="round" fill="none" stroke-linejoin="round" points="265.122,80.015 264.549,81.7783 263.049,82.8681 261.195,82.8681 259.695,81.7783 259.122,80.015 259.695,78.2516 261.195,77.1618 263.049,77.1618 264.549,78.2516 265.122,80.015"/>
   <polyline stroke="#ff0000" stroke-width="2" stroke-linecap="round" fill="none" stroke-linejoin="round" points="274.857,81.6397 274.284,83.4031 272.784,84.4929 270.93,84.4929 269.43,83.4031 268.857,81.6397 269.43,79.8763 270.93,78.7865 272.784,78.7865 274.284,79.8763 274.857,81.6397"/>
   <polyline stroke="#ff0000" stroke-width="2" stroke-linecap="round" fill="none" stroke-linejoin="round" points="284.593,112.466 284.02,114.229 282.52,115.319 280.666,115.319 279.166,114.229 278.593,112.466 279.166,110.702 280.666,109.613 282.52,109.613 284.02,110.702 284.593,112.466"/>
   <polyline stroke="#ff0000" stroke-width="2" stroke-linecap="round" fill="none" stroke-linejoin="round" points="294.328,110.269 293.755,112.032 292.255,113.122 290.401,113.122 288.901,112.032 288.328,110.269 288.901,108.505 290.401,107.416 292.255,107.416 293.755,108.505 294.328,110.269"/>
   <polyline stroke="#ff0000" stroke-width="2" stroke-linecap="round" fill="none" stroke-linejoin="round" points="304.064,91.6042 303.491,93.3675 301.991,94.4574 300.136,94.4574 298.636,93.3675 298.064,91.6042 298.636,89.8408 300.136,88.751 301.991,88.751 303.491,89.8408 304.064,91.6042"/>
   <polyline stroke="#ff0000" stroke-width="2" stroke-linecap="round" fill="none" stroke-linejoin="round" points="313.799,110.087 313.226,111.85 311.726,112.94 309.872,112.94 308.372,111.85 307.799,110.087 308.372,108.323 309.872,107.233 311.726,107.233 313.226,108.323 313.799,110.087"/>
   <polyline stroke="#ff0000" stroke-width="2" stroke-linecap="round" fill="none" stroke-linejoin="round" points="323.534,146.357 322.961,148.121 321.461,149.21 319.607,149.21 318.107,148.121 317.534,146.357 318.107,144.594 319.607,143.504 321.461,143.504 322.961,144.594 323.534,146.357"/>
   <polyline stroke="#ff0000" stroke-width="2" stroke-linecap="round" fill="none" stroke-linejoin="round" points="333.27,134.908 332.697,136.672 331.197,137.761 329.343,137.761 327.843,136.672 327.27,134.908 327.843,133.145 329.343,132.055 331.197,132.055 332.697,133.145 333.27,134.908"/>
   <polyline stroke="#ff0000" stroke-width="2" stroke-linecap="round" fill="none" stroke-linejoin="round" points="343.005,120.059 342.432,121.823 340.932,122.912 339.078,122.912 337.578,121.823 337.005,120.059 337.578,118.296 339.078,117.206 340.932,117.206 342.432,118.296 343.005,120.059"/>
   <polyline stroke="#ff0000" stroke-width="2" stroke-linecap="round" fill="none" stroke-linejoin="round" points="352.74,158.837 352.167,160.6 350.667,161.69 348.813,161.69 347.313,160.6 346.74,158.837 347.313,157.074 348.813,155.984 350.667,155.984 352.167,157.074 352.74,158.837"/>
   <polyline stroke="#ff0000" stroke-width="2" stroke-linecap="round" fill="none" stroke-linejoin="round" points="362.476,126.377 361.903,128.14 360.403,129.23 358.549,129.23 357.049,128.14 356.476,126.377 357.049,124.614 358.549,123.524 360.403,123.524 361.903,124.614 362.476,126.377"/>
   <polyline stroke="#ff0000" stroke-width="2" stroke-linecap="round" fill="none" stroke-linejoin="round" points="372.211,128.656 371.638,130.419 370.138,131.509 368.284,131.509 366.784,130.419 366.211,128.656 366.784,126.893 368.284,125.803 370.138,125.803 371.638,126.893 372.211,128.656"/>
   <polyline stroke="#ff0000" stroke-width="2" stroke-linecap="round" fill="none" stroke-linejoin="round" points="381.946,73.7207 381.373,75.4841 379.873,76.5739 378.019,76.5739 376.519,75.4841 375.946,73.7207 376.519,71.9574 378.019,70.8676 379.873,70.8676 381.373,71.9574 381.946,73.7207"/>
   <polyline stroke="#0071bc" stroke-width="3" stroke-linecap="butt" fill="none" stroke-linejoin="round" points="54.4343,201.182 55.2476,200.831 56.0609,200.48 56.8742,200.129 57.6875,199.778 58.5009,199.428 59.3142,199.077 60.1275,198.726 60.9408,198.375 61.7541,198.024 62.5674,197.673 63.3807,197.323 64.1941,196.972 65.0074,196.621 65.8207,196.27 66.634,195.919 67.4473,195.568 68.2606,195.217 69.0739,194.867 69.8872,194.516 70.7006,194.165 71.5139,193.814 72.3272,193.463 73.1405,193.112 73.9538,192.762 74.7671,192.411 75.5804,192.06 76.3938,191.709 77.2071,191.358 78.0204,191.007 78.8337,190.656 79.647,190.306 80.4603,189.955 81.2736,189.604 82.0869,189.253 82.9003,188.902 83.7136,188.551 84.5269,188.201 85.3402,187.85 86.1535,187.499 86.9668,187.148 87.7801,186.797 88.5935,186.446 89.4068,186.095 90.2201,185.745 91.0334,185.394 91.8467,185.043 92.66,184.692 93.4733,184.341 94.2867,183.99 95.1,183.64 95.9133,183.289 96.7266,182.938 97.5399,182.587 98.3532,182.236 99.1665,181.885 99.9798,181.534 100.793,181.184 101.606,180.833 102.42,180.482 103.233,180.131 104.046,179.78 104.86,179.429 105.673,179.079 106.486,178.728 107.3,178.377 108.113,178.026 108.926,177.675 109.74,177.324 110.553,176.973 111.366,176.623 112.18,176.272 112.993,175.921 113.806,175.57 114.619,175.219 115.433,174.868 116.246,174.518 117.059,174.167 117.873,173.816 118.686,173.465 119.499,173.114 120.313,172.763 121.126,172.413 121.939,172.062 122.753,171.711 123.566,171.36 124.379,171.009 125.193,170.658 126.006,170.307 126.819,169.957 127.632,169.606 128.446,169.255 129.259,168.904 130.072,168.553 130.886,168.202 131.699,167.852 132.512,167.501 133.326,167.15 134.139,166.799 134.952,166.448 135.766,166.097 136.579,165.746 137.392,165.396 138.206,165.045 139.019,164.694 139.832,164.343 140.646,163.992 141.459,163.641 142.272,163.291 143.085,162.94 143.899,162.589 144.712,162.238 145.525,161.887 146.339,161.536 147.152,161.185 147.965,160.835 148.779,160.484 149.592,160.133 150.405,159.782 151.219,159.431 152.032,159.08 152.845,158.73 153.659,158.379 154.472,158.028 155.285,157.677 156.098,157.326 156.912,156.975 157.725,156.624 158.538,156.274 159.352,155.923 160.165,155.572 160.978,155.221 161.792,154.87 162.605,154.519 163.418,154.169 164.232,153.818 165.045,153.467 165.858,153.116 166.672,152.765 167.485,152.414 168.298,152.064 169.111,151.713 169.925,151.362 170.738,151.011 171.551,150.66 172.365,150.309 173.178,149.958 173.991,149.608 174.805,149.257 175.618,148.906 176.431,148.555 177.245,148.204 178.058,147.853 178.871,147.503 179.685,147.152 180.498,146.801 181.311,146.45 182.124,146.099 182.938,145.748 183.751,145.397 184.564,145.047 185.378,144.696 186.191,144.345 187.004,143.994 187.818,143.643 188.631,143.292 189.444,142.942 190.258,142.591 191.071,142.24 191.884,141.889 192.698,141.538 193.511,141.187 194.324,140.836 195.138,140.486 195.951,140.135 196.764,139.784 197.577,139.433 198.391,139.082 199.204,138.731 200.017,138.381 200.831,138.03 201.644,137.679 202.457,137.328 203.271,136.977 204.084,136.626 204.897,136.275 205.711,135.925 206.524,135.574 207.337,135.223 208.151,134.872 208.964,134.521 209.777,134.17 210.59,133.82 211.404,133.469 212.217,133.118 213.03,132.767 213.844,132.416 214.657,132.065 215.47,131.715 216.284,131.364 217.097,131.013 217.91,130.662 218.724,130.311 219.537,129.96 220.35,129.609 221.164,129.259 221.977,128.908 222.79,128.557 223.603,128.206 224.417,127.855 225.23,127.504 226.043,127.154 226.857,126.803 227.67,126.452 228.483,126.101 229.297,125.75 230.11,125.399 230.923,125.048 231.737,124.698 232.55,124.347 233.363,123.996 234.177,123.645 234.99,123.294 235.803,122.943 236.617,122.593 237.43,122.242 238.243,121.891 239.056,121.54 239.87,121.189 240.683,120.838 241.496,120.487 242.31,120.137 243.123,119.786 243.936,119.435 244.75,119.084 245.563,118.733 246.376,118.382 247.19,118.032 248.003,117.681 248.816,117.33 249.63,116.979 250.443,116.628 251.256,116.277 252.069,115.926 252.883,115.576 253.696,115.225 254.509,114.874 255.323,114.523 256.136,114.172 256.949,113.821 257.763,113.471 258.576,113.12 259.389,112.769 260.203,112.418 261.016,112.067 261.829,111.716 262.643,111.366 263.456,111.015 264.269,110.664 265.082,110.313 265.896,109.962 266.709,109.611 267.522,109.26 268.336,108.91 269.149,108.559 269.962,108.208 270.776,107.857 271.589,107.506 272.402,107.155 273.216,106.805 274.029,106.454 274.842,106.103 275.656,105.752 276.469,105.401 277.282,105.05 278.095,104.699 278.909,104.349 279.722,103.998 280.535,103.647 281.349,103.296 282.162,102.945 282.975,102.594 283.789,102.244 284.602,101.893 285.415,101.542 286.229,101.191 287.042,100.84 287.855,100.489 288.669,100.138 289.482,99.7876 290.295,99.4368 291.108,99.0859 291.922,98.7351 292.735,98.3842 293.548,98.0334 294.362,97.6826 295.175,97.3317 295.988,96.9809 296.802,96.63 297.615,96.2792 298.428,95.9283 299.242,95.5775 300.055,95.2267 300.868,94.8758 301.682,94.525 302.495,94.1741 303.308,93.8233 304.122,93.4724 304.935,93.1216 305.748,92.7707 306.561,92.4199 307.375,92.069 308.188,91.7182 309.001,91.3674 309.815,91.0165 310.628,90.6657 311.441,90.3148 312.255,89.964 313.068,89.6131 313.881,89.2623 314.695,88.9115 315.508,88.5606 316.321,88.2098 317.135,87.8589 317.948,87.508 318.761,87.1572 319.574,86.8064 320.388,86.4555 321.201,86.1047 322.014,85.7538 322.828,85.403 323.641,85.0522 324.454,84.7013 325.268,84.3504 326.081,83.9996 326.894,83.6488 327.708,83.2979 328.521,82.9471 329.334,82.5962 330.148,82.2454 330.961,81.8945 331.774,81.5437 332.587,81.1928 333.401,80.842 334.214,80.4911 335.027,80.1403 335.841,79.7895 336.654,79.4386 337.467,79.0878 338.281,78.7369 339.094,78.3861 339.907,78.0353 340.721,77.6844 341.534,77.3336 342.347,76.9827 343.161,76.6319 343.974,76.281 344.787,75.9302 345.601,75.5793 346.414,75.2285 347.227,74.8777 348.04,74.5268 348.854,74.1759 349.667,73.8251 350.48,73.4743 351.294,73.1234 352.107,72.7726 352.92,72.4217 353.734,72.0709 354.547,71.72 355.36,71.3692 356.174,71.0184 356.987,70.6675 357.8,70.3167 358.614,69.9658 359.427,69.615 360.24,69.2641 361.053,68.9133 361.867,68.5624 362.68,68.2116 363.493,67.8607 364.307,67.5099 365.12,67.1591 365.933,66.8082 366.747,66.4574 367.56,66.1065 368.373,65.7557 369.187,65.4048 370,65.054 370.813,64.7031 371.627,64.3523 372.44,64.0015 373.253,63.6506 374.066,63.2998 374.88,62.9489 375.693,62.5981 376.506,62.2472 377.32,61.8964 378.133,61.5455 378.946,61.1947"/>
   <polyline stroke="#d85218" stroke-width="3" stroke-linecap="butt" fill="none" stroke-linejoin="round" points="54.4343,246.605 55.2476,245.445 56.0609,244.289 56.8742,243.137 57.6875,241.989 58.5009,240.846 59.3142,239.706 60.1275,238.571 60.9408,237.44 61.7541,236.313 62.5674,235.19 63.3807,234.071 64.1941,232.957 65.0074,231.847 65.8207,230.74 66.634,229.638 67.4473,228.54 68.2606,227.447 69.0739,226.357 69.8872,225.272 70.7006,224.19 71.5139,223.113 72.3272,222.04 73.1405,220.971 73.9538,219.907 74.7671,218.846 75.5804,217.79 76.3938,216.737 77.2071,215.689 78.0204,214.645 78.8337,213.605 79.647,212.57 80.4603,211.538 81.2736,210.511 82.0869,209.488 82.9003,208.469 83.7136,207.454 84.5269,206.443 85.3402,205.436 86.1535,204.434 86.9668,203.436 87.7801,202.442 88.5935,201.452 89.4068,200.466 90.2201,199.484 91.0334,198.506 91.8467,197.533 92.66,196.564 93.4733,195.599 94.2867,194.638 95.1,193.681 95.9133,192.728 96.7266,191.78 97.5399,190.835 98.3532,189.895 99.1665,188.959 99.9798,188.027 100.793,187.1 101.606,186.176 102.42,185.257 103.233,184.341 104.046,183.43 104.86,182.523 105.673,181.62 106.486,180.722 107.3,179.827 108.113,178.937 108.926,178.05 109.74,177.168 110.553,176.29 111.366,175.417 112.18,174.547 112.993,173.681 113.806,172.82 114.619,171.963 115.433,171.11 116.246,170.261 117.059,169.416 117.873,168.576 118.686,167.739 119.499,166.907 120.313,166.079 121.126,165.255 121.939,164.435 122.753,163.619 123.566,162.808 124.379,162 125.193,161.197 126.006,160.398 126.819,159.603 127.632,158.812 128.446,158.025 129.259,157.243 130.072,156.465 130.886,155.69 131.699,154.92 132.512,154.154 133.326,153.393 134.139,152.635 134.952,151.882 135.766,151.132 136.579,150.387 137.392,149.646 138.206,148.909 139.019,148.177 139.832,147.448 140.646,146.724 141.459,146.003 142.272,145.287 143.085,144.575 143.899,143.868 144.712,143.164 145.525,142.465 146.339,141.769 147.152,141.078 147.965,140.391 148.779,139.708 149.592,139.029 150.405,138.355 151.219,137.684 152.032,137.018 152.845,136.356 153.659,135.698 154.472,135.044 155.285,134.394 156.098,133.749 156.912,133.107 157.725,132.47 158.538,131.837 159.352,131.208 160.165,130.583 160.978,129.963 161.792,129.346 162.605,128.734 163.418,128.126 164.232,127.522 165.045,126.922 165.858,126.326 166.672,125.734 167.485,125.147 168.298,124.564 169.111,123.984 169.925,123.41 170.738,122.839 171.551,122.272 172.365,121.709 173.178,121.151 173.991,120.597 174.805,120.047 175.618,119.501 176.431,118.959 177.245,118.421 178.058,117.888 178.871,117.359 179.685,116.833 180.498,116.312 181.311,115.795 182.124,115.283 182.938,114.774 183.751,114.27 184.564,113.769 185.378,113.273 186.191,112.781 187.004,112.293 187.818,111.81 188.631,111.33 189.444,110.855 190.258,110.383 191.071,109.916 191.884,109.453 192.698,108.995 193.511,108.54 194.324,108.09 195.138,107.643 195.951,107.201 196.764,106.763 197.577,106.329 198.391,105.899 199.204,105.474 200.017,105.052 200.831,104.635 201.644,104.222 202.457,103.813 203.271,103.408 204.084,103.007 204.897,102.611 205.711,102.218 206.524,101.83 207.337,101.446 208.151,101.066 208.964,100.69 209.777,100.319 210.59,99.9513 211.404,99.588 212.217,99.2288 213.03,98.8737 213.844,98.5229 214.657,98.1761 215.47,97.8335 216.284,97.4951 217.097,97.1608 217.91,96.8307 218.724,96.5047 219.537,96.1829 220.35,95.8652 221.164,95.5517 221.977,95.2423 222.79,94.937 223.603,94.6359 224.417,94.339 225.23,94.0462 226.043,93.7576 226.857,93.4731 227.67,93.1927 228.483,92.9166 229.297,92.6445 230.11,92.3767 230.923,92.1129 231.737,91.8533 232.55,91.5979 233.363,91.3466 234.177,91.0995 234.99,90.8565 235.803,90.6177 236.617,90.383 237.43,90.1524 238.243,89.9261 239.056,89.7038 239.87,89.4857 240.683,89.2718 241.496,89.062 242.31,88.8564 243.123,88.6549 243.936,88.4576 244.75,88.2644 245.563,88.0754 246.376,87.8905 247.19,87.7097 248.003,87.5332 248.816,87.3607 249.63,87.1925 250.443,87.0283 251.256,86.8683 252.069,86.7125 252.883,86.5608 253.696,86.4133 254.509,86.2699 255.323,86.1307 256.136,85.9956 256.949,85.8647 257.763,85.7379 258.576,85.6152 259.389,85.4968 260.203,85.3824 261.016,85.2722 261.829,85.1662 262.643,85.0643 263.456,84.9666 264.269,84.873 265.082,84.7836 265.896,84.6983 266.709,84.6172 267.522,84.5402 268.336,84.4674 269.149,84.3987 269.962,84.3342 270.776,84.2738 271.589,84.2176 272.402,84.1655 273.216,84.1176 274.029,84.0738 274.842,84.0341 275.656,83.9987 276.469,83.9673 277.282,83.9402 278.095,83.9171 278.909,83.8982 279.722,83.8835 280.535,83.8729 281.349,83.8665 282.162,83.8642 282.975,83.8661 283.789,83.8721 284.602,83.8823 285.415,83.8966 286.229,83.9151 287.042,83.9377 287.855,83.9645 288.669,83.9954 289.482,84.0305 290.295,84.0697 291.108,84.1131 291.922,84.1606 292.735,84.2123 293.548,84.2681 294.362,84.3281 295.175,84.3922 295.988,84.4604 296.802,84.5329 297.615,84.6095 298.428,84.6902 299.242,84.7751 300.055,84.8641 300.868,84.9572 301.682,85.0546 302.495,85.156 303.308,85.2617 304.122,85.3714 304.935,85.4854 305.748,85.6034 306.561,85.7257 307.375,85.852 308.188,85.9826 309.001,86.1172 309.815,86.256 310.628,86.399 311.441,86.5462 312.255,86.6974 313.068,86.8529 313.881,87.0124 314.695,87.1762 315.508,87.344 316.321,87.5161 317.135,87.6922 317.948,87.8726 318.761,88.057 319.574,88.2457 320.388,88.4384 321.201,88.6354 322.014,88.8364 322.828,89.0417 323.641,89.2511 324.454,89.4646 325.268,89.6823 326.081,89.9041 326.894,90.1301 327.708,90.3602 328.521,90.5945 329.334,90.8329 330.148,91.0754 330.961,91.3222 331.774,91.5731 332.587,91.8281 333.401,92.0872 334.214,92.3506 335.027,92.6181 335.841,92.8897 336.654,93.1655 337.467,93.4454 338.281,93.7295 339.094,94.0177 339.907,94.3101 340.721,94.6066 341.534,94.9073 342.347,95.2121 343.161,95.5211 343.974,95.8342 344.787,96.1515 345.601,96.4729 346.414,96.7985 347.227,97.1282 348.04,97.4621 348.854,97.8001 349.667,98.1423 350.48,98.4886 351.294,98.8391 352.107,99.1937 352.92,99.5525 353.734,99.9155 354.547,100.283 355.36,100.654 356.174,101.029 356.987,101.409 357.8,101.792 358.614,102.18 359.427,102.572 360.24,102.968 361.053,103.369 361.867,103.773 362.68,104.182 363.493,104.594 364.307,105.011 365.12,105.432 365.933,105.857 366.747,106.287 367.56,106.72 368.373,107.158 369.187,107.6 370,108.046 370.813,108.496 371.627,108.95 372.44,109.408 373.253,109.871 374.066,110.337 374.88,110.808 375.693,111.283 376.506,111.762 377.32,112.246 378.133,112.733 378.946,113.225"/>
   <polyline stroke="#ecb01f" stroke-width="3" stroke-linecap="butt" fill="none" stroke-linejoin="round" points="54.4343,236.323 55.2476,237.644 56.0609,238.899 56.8742,240.089 57.6875,241.214 58.5009,242.276 59.3142,243.275 60.1275,244.212 60.9408,245.088 61.7541,245.904 62.5674,246.66 63.3807,247.358 64.1941,247.999 65.0074,248.583 65.8207,249.111 66.634,249.584 67.4473,250.003 68.2606,250.369 69.0739,250.682 69.8872,250.944 70.7006,251.154 71.5139,251.315 72.3272,251.426 73.1405,251.489 73.9538,251.504 74.7671,251.472 75.5804,251.395 76.3938,251.272 77.2071,251.104 78.0204,250.893 78.8337,250.639 79.647,250.343 80.4603,250.005 81.2736,249.626 82.0869,249.208 82.9003,248.751 83.7136,248.255 84.5269,247.721 85.3402,247.15 86.1535,246.544 86.9668,245.901 87.7801,245.224 88.5935,244.513 89.4068,243.769 90.2201,242.992 91.0334,242.183 91.8467,241.343 92.66,240.472 93.4733,239.571 94.2867,238.641 95.1,237.683 95.9133,236.697 96.7266,235.683 97.5399,234.643 98.3532,233.578 99.1665,232.487 99.9798,231.371 100.793,230.232 101.606,229.07 102.42,227.884 103.233,226.677 104.046,225.449 104.86,224.199 105.673,222.93 106.486,221.641 107.3,220.333 108.113,219.007 108.926,217.664 109.74,216.303 110.553,214.925 111.366,213.532 112.18,212.123 112.993,210.7 113.806,209.262 114.619,207.811 115.433,206.347 116.246,204.87 117.059,203.381 117.873,201.881 118.686,200.37 119.499,198.848 120.313,197.317 121.126,195.777 121.939,194.227 122.753,192.67 123.566,191.105 124.379,189.532 125.193,187.953 126.006,186.368 126.819,184.777 127.632,183.181 128.446,181.58 129.259,179.974 130.072,178.365 130.886,176.753 131.699,175.138 132.512,173.521 133.326,171.901 134.139,170.28 134.952,168.659 135.766,167.036 136.579,165.414 137.392,163.792 138.206,162.17 139.019,160.55 139.832,158.931 140.646,157.315 141.459,155.7 142.272,154.089 143.085,152.481 143.899,150.876 144.712,149.276 145.525,147.68 146.339,146.089 147.152,144.503 147.965,142.922 148.779,141.348 149.592,139.779 150.405,138.218 151.219,136.663 152.032,135.116 152.845,133.576 153.659,132.045 154.472,130.521 155.285,129.007 156.098,127.502 156.912,126.006 157.725,124.519 158.538,123.043 159.352,121.577 160.165,120.122 160.978,118.677 161.792,117.244 162.605,115.822 163.418,114.412 164.232,113.015 165.045,111.629 165.858,110.256 166.672,108.896 167.485,107.549 168.298,106.216 169.111,104.896 169.925,103.59 170.738,102.298 171.551,101.021 172.365,99.7585 173.178,98.5107 173.991,97.2779 174.805,96.0605 175.618,94.8586 176.431,93.6725 177.245,92.5023 178.058,91.3482 178.871,90.2105 179.685,89.0893 180.498,87.9848 181.311,86.8973 182.124,85.8268 182.938,84.7736 183.751,83.7379 184.564,82.7197 185.378,81.7193 186.191,80.7368 187.004,79.7724 187.818,78.8261 188.631,77.8983 189.444,76.9889 190.258,76.0981 191.071,75.2261 191.884,74.3729 192.698,73.5388 193.511,72.7237 194.324,71.9279 195.138,71.1514 195.951,70.3943 196.764,69.6567 197.577,68.9387 198.391,68.2404 199.204,67.5619 200.017,66.9032 200.831,66.2645 201.644,65.6457 202.457,65.047 203.271,64.4684 204.084,63.9099 204.897,63.3716 205.711,62.8536 206.524,62.3559 207.337,61.8785 208.151,61.4215 208.964,60.9848 209.777,60.5686 210.59,60.1727 211.404,59.7973 212.217,59.4423 213.03,59.1078 213.844,58.7937 214.657,58.5 215.47,58.2267 216.284,57.9738 217.097,57.7413 217.91,57.5291 218.724,57.3373 219.537,57.1657 220.35,57.0144 221.164,56.8833 221.977,56.7723 222.79,56.6814 223.603,56.6106 224.417,56.5597 225.23,56.5287 226.043,56.5175 226.857,56.5262 227.67,56.5544 228.483,56.6023 229.297,56.6697 230.11,56.7564 230.923,56.8625 231.737,56.9877 232.55,57.132 233.363,57.2953 234.177,57.4774 234.99,57.6783 235.803,57.8977 236.617,58.1356 237.43,58.3918 238.243,58.6663 239.056,58.9587 239.87,59.269 240.683,59.597 241.496,59.9426 242.31,60.3056 243.123,60.6858 243.936,61.0831 244.75,61.4973 245.563,61.9281 246.376,62.3754 247.19,62.839 248.003,63.3187 248.816,63.8143 249.63,64.3257 250.443,64.8525 251.256,65.3945 252.069,65.9516 252.883,66.5235 253.696,67.11 254.509,67.7109 255.323,68.3258 256.136,68.9546 256.949,69.597 257.763,70.2528 258.576,70.9216 259.389,71.6033 260.203,72.2976 261.016,73.0042 261.829,73.7227 262.643,74.453 263.456,75.1947 264.269,75.9476 265.082,76.7113 265.896,77.4856 266.709,78.2702 267.522,79.0647 268.336,79.8688 269.149,80.6821 269.962,81.5045 270.776,82.3356 271.589,83.1749 272.402,84.0222 273.216,84.8771 274.029,85.7394 274.842,86.6085 275.656,87.4843 276.469,88.3662 277.282,89.254 278.095,90.1473 278.909,91.0456 279.722,91.9487 280.535,92.8561 281.349,93.7675 282.162,94.6824 282.975,95.6005 283.789,96.5213 284.602,97.4444 285.415,98.3695 286.229,99.2961 287.042,100.224 287.855,101.152 288.669,102.081 289.482,103.009 290.295,103.937 291.108,104.863 291.922,105.788 292.735,106.711 293.548,107.632 294.362,108.55 295.175,109.464 295.988,110.374 296.802,111.28 297.615,112.181 298.428,113.077 299.242,113.967 300.055,114.851 300.868,115.728 301.682,116.598 302.495,117.459 303.308,118.313 304.122,119.158 304.935,119.993 305.748,120.818 306.561,121.633 307.375,122.437 308.188,123.229 309.001,124.009 309.815,124.777 310.628,125.531 311.441,126.272 312.255,126.998 313.068,127.71 313.881,128.406 314.695,129.085 315.508,129.749 316.321,130.395 317.135,131.023 317.948,131.633 318.761,132.223 319.574,132.795 320.388,133.345 321.201,133.875 322.014,134.384 322.828,134.87 323.641,135.334 324.454,135.774 325.268,136.19 326.081,136.582 326.894,136.948 327.708,137.288 328.521,137.602 329.334,137.888 330.148,138.147 330.961,138.376 331.774,138.577 332.587,138.747 333.401,138.887 334.214,138.995 335.027,139.071 335.841,139.114 336.654,139.124 337.467,139.1 338.281,139.04 339.094,138.945 339.907,138.814 340.721,138.646 341.534,138.439 342.347,138.194 343.161,137.91 343.974,137.586 344.787,137.221 345.601,136.814 346.414,136.365 347.227,135.873 348.04,135.337 348.854,134.756 349.667,134.13 350.48,133.458 351.294,132.739 352.107,131.971 352.92,131.156 353.734,130.29 354.547,129.375 355.36,128.408 356.174,127.39 356.987,126.319 357.8,125.194 358.614,124.015 359.427,122.781 360.24,121.491 361.053,120.144 361.867,118.739 362.68,117.276 363.493,115.753 364.307,114.17 365.12,112.526 365.933,110.82 366.747,109.05 367.56,107.217 368.373,105.32 369.187,103.356 370,101.326 370.813,99.2291 371.627,97.0635 372.44,94.8287 373.253,92.5238 374.066,90.1478 374.88,87.6999 375.693,85.179 376.506,82.5843 377.32,79.9148 378.133,77.1696 378.946,74.3476"/>
   <polyline stroke="#7d2e8d" stroke-width="3" stroke-linecap="butt" fill="none" stroke-linejoin="round" points="54.4343,258.07 55.2476,259.505 56.0609,259.646 56.8742,258.638 57.6875,256.65 58.5009,253.866 59.3142,250.476 60.1275,246.669 60.9408,242.629 61.7541,238.527 62.5674,234.52 63.3807,230.747 64.1941,227.327 65.0074,224.357 65.8207,221.914 66.634,220.053 67.4473,218.808 68.2606,218.192 69.0739,218.203 69.8872,218.82 70.7006,220.009 71.5139,221.724 72.3272,223.908 73.1405,226.496 73.9538,229.419 74.7671,232.602 75.5804,235.969 76.3938,239.444 77.2071,242.954 78.0204,246.426 78.8337,249.793 79.647,252.995 80.4603,255.974 81.2736,258.682 82.0869,261.078 82.9003,263.127 83.7136,264.803 84.5269,266.088 85.3402,266.97 86.1535,267.445 86.9668,267.517 87.7801,267.195 88.5935,266.493 89.4068,265.432 90.2201,264.037 91.0334,262.336 91.8467,260.361 92.66,258.146 93.4733,255.726 94.2867,253.138 95.1,250.42 95.9133,247.607 96.7266,244.736 97.5399,241.841 98.3532,238.955 99.1665,236.108 99.9798,233.327 100.793,230.638 101.606,228.062 102.42,225.617 103.233,223.319 104.046,221.178 104.86,219.203 105.673,217.398 106.486,215.764 107.3,214.3 108.113,213.001 108.926,211.858 109.74,210.862 110.553,210 111.366,209.257 112.18,208.619 112.993,208.066 113.806,207.581 114.619,207.145 115.433,206.737 116.246,206.339 117.059,205.93 117.873,205.491 118.686,205.005 119.499,204.453 120.313,203.821 121.126,203.091 121.939,202.253 122.753,201.293 123.566,200.202 124.379,198.972 125.193,197.597 126.006,196.073 126.819,194.398 127.632,192.572 128.446,190.597 129.259,188.476 130.072,186.216 130.886,183.823 131.699,181.306 132.512,178.675 133.326,175.943 134.139,173.12 134.952,170.222 135.766,167.262 136.579,164.255 137.392,161.217 138.206,158.164 139.019,155.11 139.832,152.072 140.646,149.065 141.459,146.104 142.272,143.202 143.085,140.375 143.899,137.634 144.712,134.991 145.525,132.457 146.339,130.042 147.152,127.753 147.965,125.597 148.779,123.581 149.592,121.708 150.405,119.981 151.219,118.402 152.032,116.971 152.845,115.686 153.659,114.545 154.472,113.544 155.285,112.678 156.098,111.94 156.912,111.324 157.725,110.822 158.538,110.424 159.352,110.121 160.165,109.902 160.978,109.757 161.792,109.675 162.605,109.645 163.418,109.653 164.232,109.691 165.045,109.744 165.858,109.804 166.672,109.858 167.485,109.896 168.298,109.908 169.111,109.885 169.925,109.818 170.738,109.699 171.551,109.52 172.365,109.277 173.178,108.963 173.991,108.574 174.805,108.107 175.618,107.559 176.431,106.928 177.245,106.215 178.058,105.419 178.871,104.543 179.685,103.588 180.498,102.558 181.311,101.456 182.124,100.287 182.938,99.0576 183.751,97.7725 184.564,96.4386 185.378,95.0629 186.191,93.6527 187.004,92.2158 187.818,90.7597 188.631,89.2926 189.444,87.8224 190.258,86.3569 191.071,84.9038 191.884,83.4708 192.698,82.0649 193.511,80.693 194.324,79.3615 195.138,78.0762 195.951,76.8423 196.764,75.6647 197.577,74.5472 198.391,73.4933 199.204,72.5054 200.017,71.5855 200.831,70.7347 201.644,69.9533 202.457,69.2409 203.271,68.5965 204.084,68.0181 204.897,67.5033 205.711,67.0488 206.524,66.651 207.337,66.3054 208.151,66.0072 208.964,65.7511 209.777,65.5315 210.59,65.3425 211.404,65.1777 212.217,65.0309 213.03,64.8956 213.844,64.7653 214.657,64.6337 215.47,64.4945 216.284,64.3417 217.097,64.1696 217.91,63.9729 218.724,63.7465 219.537,63.4862 220.35,63.188 221.164,62.8488 221.977,62.4658 222.79,62.0373 223.603,61.562 224.417,61.0396 225.23,60.4704 226.043,59.8555 226.857,59.1969 227.67,58.4974 228.483,57.7603 229.297,56.99 230.11,56.1913 230.923,55.3698 231.737,54.5318 232.55,53.6841 233.363,52.8339 234.177,51.9892 234.99,51.158 235.803,50.3488 236.617,49.5702 237.43,48.8311 238.243,48.1404 239.056,47.5068 239.87,46.9391 240.683,46.4456 241.496,46.0349 242.31,45.7142 243.123,45.4913 243.936,45.3726 244.75,45.3645 245.563,45.4718 246.376,45.7 247.19,46.0518 248.003,46.5309 248.816,47.1393 249.63,47.8768 250.443,48.7446 251.256,49.7409 252.069,50.8638 252.883,52.1099 253.696,53.4753 254.509,54.9544 255.323,56.5414 256.136,58.2283 256.949,60.008 257.763,61.8712 258.576,63.808 259.389,65.8087 260.203,67.8617 261.016,69.9562 261.829,72.0798 262.643,74.2206 263.456,76.3658 264.269,78.5034 265.082,80.6212 265.896,82.7057 266.709,84.7455 267.522,86.7297 268.336,88.6457 269.149,90.4842 269.962,92.2352 270.776,93.8889 271.589,95.4372 272.402,96.8734 273.216,98.1919 274.029,99.3854 274.842,100.454 275.656,101.392 276.469,102.2 277.282,102.878 278.095,103.426 278.909,103.848 279.722,104.146 280.535,104.33 281.349,104.401 282.162,104.372 282.975,104.246 283.789,104.039 284.602,103.758 285.415,103.412 286.229,103.02 287.042,102.589 287.855,102.136 288.669,101.67 289.482,101.211 290.295,100.764 291.108,100.351 291.922,99.9781 292.735,99.6561 293.548,99.4075 294.362,99.2352 295.175,99.1476 295.988,99.16 296.802,99.2767 297.615,99.5052 298.428,99.8401 299.242,100.303 300.055,100.885 300.868,101.591 301.682,102.411 302.495,103.353 303.308,104.404 304.122,105.565 304.935,106.83 305.748,108.174 306.561,109.597 307.375,111.094 308.188,112.648 309.001,114.25 309.815,115.868 310.628,117.511 311.441,119.145 312.255,120.768 313.068,122.35 313.881,123.886 314.695,125.366 315.508,126.778 316.321,128.101 317.135,129.316 317.948,130.429 318.761,131.448 319.574,132.333 320.388,133.099 321.201,133.718 322.014,134.213 322.828,134.604 323.641,134.861 324.454,135.027 325.268,135.051 326.081,134.991 326.894,134.852 327.708,134.641 328.521,134.402 329.334,134.091 330.148,133.786 330.961,133.473 331.774,133.184 332.587,132.914 333.401,132.683 334.214,132.512 335.027,132.447 335.841,132.506 336.654,132.604 337.467,132.861 338.281,133.192 339.094,133.673 339.907,134.272 340.721,134.97 341.534,135.772 342.347,136.677 343.161,137.69 343.974,138.66 344.787,139.656 345.601,140.699 346.414,141.693 347.227,142.621 348.04,143.448 348.854,144.173 349.667,144.713 350.48,145.111 351.294,145.262 352.107,145.172 352.92,144.863 353.734,144.285 354.547,143.387 355.36,142.262 356.174,140.953 356.987,139.406 357.8,137.528 358.614,135.593 359.427,133.629 360.24,131.611 361.053,129.597 361.867,127.743 362.68,126 363.493,124.537 364.307,123.535 365.12,122.957 365.933,122.73 366.747,122.948 367.56,123.637 368.373,124.988 369.187,126.514 370,128.13 370.813,130.039 371.627,131.9 372.44,133.2 373.253,133.594 374.066,132.756 374.88,130.526 375.693,125.586 376.506,118.168 377.32,107.351 378.133,92.8153 378.946,73.8444"/>
  </g>
 </g>
</svg>
