<?xml version='1.0' encoding='UTF-8' standalone='no'?>
<svg width="418pt" height="314pt" viewBox="0 0 418 314" xmlns="http://www.w3.org/2000/svg" xmlns:xlink="http://www.w3.org/1999/xlink">
 <title>Figure 5</title>
 <desc>
Creator: GL2PS 1.4.2, (C) 1999-2020 C. Geuzaine
For: Octave
CreationDate: Wed Jun  4 10:50:32 2025
</desc>
 <defs/>
 <polygon fill="#ffffff" points="0,0 418,0 418,314 0,314"/>
 <g>
  <polygon fill="#ffffff" points="0,314 418,314 418,0 0,0" shape-rendering="crispEdges"/>
  <clipPath id="cp00418314">
   <polygon points="0,314 418,314 418,0 0,0"/>
  </clipPath>
  <g clip-path="url(#cp00418314)">
   <polygon fill="#ffffff" points="54.4343,279.499 378.946,279.499 378.946,23.5533 54.4343,23.5533" shape-rendering="crispEdges"/>
   <polyline fill="none" points="54.4343,279.499 54.4343,276.255" stroke-width="2" stroke="#262626" stroke-linecap="butt" stroke-linejoin="miter"/>
   <polyline fill="none" points="54.4343,23.5533 54.4343,26.7977" stroke-width="2" stroke="#262626" stroke-linecap="butt" stroke-linejoin="miter"/>
   <polyline fill="none" points="119.337,279.499 119.337,276.255" stroke-width="2" stroke="#262626" stroke-linecap="butt" stroke-linejoin="miter"/>
   <polyline fill="none" points="119.337,23.5533 119.337,26.7977" stroke-width="2" stroke="#262626" stroke-linecap="butt" stroke-linejoin="miter"/>
   <polyline fill="none" points="184.239,279.499 184.239,276.255" stroke-width="2" stroke="#262626" stroke-linecap="butt" stroke-linejoin="miter"/>
   <polyline fill="none" points="184.239,23.5533 184.239,26.7977" stroke-width="2" stroke="#262626" stroke-linecap="butt" stroke-linejoin="miter"/>
   <polyline fill="none" points="249.142,279.499 249.142,276.255" stroke-width="2" stroke="#262626" stroke-linecap="butt" stroke-linejoin="miter"/>
   <polyline fill="none" points="249.142,23.5533 249.142,26.7977" stroke-width="2" stroke="#262626" stroke-linecap="butt" stroke-linejoin="miter"/>
   <polyline fill="none" points="314.044,279.499 314.044,276.255" stroke-width="2" stroke="#262626" stroke-linecap="butt" stroke-linejoin="miter"/>
   <polyline fill="none" points="314.044,23.5533 314.044,26.7977" stroke-width="2" stroke="#262626" stroke-linecap="butt" stroke-linejoin="miter"/>
   <polyline fill="none" points="378.946,279.499 378.946,276.255" stroke-width="2" stroke="#262626" stroke-linecap="butt" stroke-linejoin="miter"/>
   <polyline fill="none" points="378.946,23.5533 378.946,26.7977" stroke-width="2" stroke="#262626" stroke-linecap="butt" stroke-linejoin="miter"/>
   <g font-family="FreeSans" xml:space="preserve" transform="translate(51.4343,294.998) rotate(-0,3,-8)" font-size="10" font-weight="normal" font-style="normal">
    <text fill="rgb(38,38,38)" x="0 " y="-0">0</text>
   </g>
   <g font-family="FreeSans" xml:space="preserve" transform="translate(113.337,294.998) rotate(-0,6,-8)" font-size="10" font-weight="normal" font-style="normal">
    <text fill="rgb(38,38,38)" x="0 6 " y="-0">20</text>
   </g>
   <g font-family="FreeSans" xml:space="preserve" transform="translate(178.239,294.998) rotate(-0,6,-8)" font-size="10" font-weight="normal" font-style="normal">
    <text fill="rgb(38,38,38)" x="0 6 " y="-0">40</text>
   </g>
   <g font-family="FreeSans" xml:space="preserve" transform="translate(243.142,294.998) rotate(-0,6,-8)" font-size="10" font-weight="normal" font-style="normal">
    <text fill="rgb(38,38,38)" x="0 6 " y="-0">60</text>
   </g>
   <g font-family="FreeSans" xml:space="preserve" transform="translate(308.044,294.998) rotate(-0,6,-8)" font-size="10" font-weight="normal" font-style="normal">
    <text fill="rgb(38,38,38)" x="0 6 " y="-0">80</text>
   </g>
   <g font-family="FreeSans" xml:space="preserve" transform="translate(369.946,294.998) rotate(-0,9,-8)" font-size="10" font-weight="normal" font-style="normal">
    <text fill="rgb(38,38,38)" x="0 6 12 " y="-0">100</text>
   </g>
   <polyline fill="none" points="54.4343,279.499 57.6745,279.499" stroke-width="2" stroke="#262626" stroke-linecap="butt" stroke-linejoin="miter"/>
   <polyline fill="none" points="378.946,279.499 375.706,279.499" stroke-width="2" stroke="#262626" stroke-linecap="butt" stroke-linejoin="miter"/>
   <polyline fill="none" points="54.4343,228.31 57.6745,228.31" stroke-width="2" stroke="#262626" stroke-linecap="butt" stroke-linejoin="miter"/>
   <polyline fill="none" points="378.946,228.31 375.706,228.31" stroke-width="2" stroke="#262626" stroke-linecap="butt" stroke-linejoin="miter"/>
   <polyline fill="none" points="54.4343,177.121 57.6745,177.121" stroke-width="2" stroke="#262626" stroke-linecap="butt" stroke-linejoin="miter"/>
   <polyline fill="none" points="378.946,177.121 375.706,177.121" stroke-width="2" stroke="#262626" stroke-linecap="butt" stroke-linejoin="miter"/>
   <polyline fill="none" points="54.4343,125.932 57.6745,125.932" stroke-width="2" stroke="#262626" stroke-linecap="butt" stroke-linejoin="miter"/>
   <polyline fill="none" points="378.946,125.932 375.706,125.932" stroke-width="2" stroke="#262626" stroke-linecap="butt" stroke-linejoin="miter"/>
   <polyline fill="none" points="54.4343,74.7425 57.6745,74.7425" stroke-width="2" stroke="#262626" stroke-linecap="butt" stroke-linejoin="miter"/>
   <polyline fill="none" points="378.946,74.7425 375.706,74.7425" stroke-width="2" stroke="#262626" stroke-linecap="butt" stroke-linejoin="miter"/>
   <polyline fill="none" points="54.4343,23.5533 57.6745,23.5533" stroke-width="2" stroke="#262626" stroke-linecap="butt" stroke-linejoin="miter"/>
   <polyline fill="none" points="378.946,23.5533 375.706,23.5533" stroke-width="2" stroke="#262626" stroke-linecap="butt" stroke-linejoin="miter"/>
   <g font-family="FreeSans" xml:space="preserve" transform="translate(43.4418,283.499) rotate(-0,6,-4)" font-size="10" font-weight="normal" font-style="normal">
    <text fill="rgb(38,38,38)" x="0 " y="-0">0</text>
   </g>
   <g font-family="FreeSans" xml:space="preserve" transform="translate(43.4418,232.31) rotate(-0,6,-4)" font-size="10" font-weight="normal" font-style="normal">
    <text fill="rgb(38,38,38)" x="0 " y="-0">5</text>
   </g>
   <g font-family="FreeSans" xml:space="preserve" transform="translate(37.4418,181.121) rotate(-0,12,-4)" font-size="10" font-weight="normal" font-style="normal">
    <text fill="rgb(38,38,38)" x="0 6 " y="-0">10</text>
   </g>
   <g font-family="FreeSans" xml:space="preserve" transform="translate(37.4418,129.932) rotate(-0,12,-4)" font-size="10" font-weight="normal" font-style="normal">
    <text fill="rgb(38,38,38)" x="0 6 " y="-0">15</text>
   </g>
   <g font-family="FreeSans" xml:space="preserve" transform="translate(37.4418,78.7425) rotate(-0,12,-4)" font-size="10" font-weight="normal" font-style="normal">
    <text fill="rgb(38,38,38)" x="0 6 " y="-0">20</text>
   </g>
   <g font-family="FreeSans" xml:space="preserve" transform="translate(37.4418,27.5533) rotate(-0,12,-4)" font-size="10" font-weight="normal" font-style="normal">
    <text fill="rgb(38,38,38)" x="0 6 " y="-0">25</text>
   </g>
   <polyline fill="none" points="54.4343,279.499 378.946,279.499" stroke-width="2" stroke="#262626" stroke-linecap="square" stroke-linejoin="miter" stroke-dasharray="32,0"/>
   <polyline fill="none" points="54.4343,23.5533 378.946,23.5533" stroke-width="2" stroke="#262626" stroke-linecap="square" stroke-linejoin="miter" stroke-dasharray="32,0"/>
   <polyline fill="none" points="54.4343,279.499 54.4343,23.5533" stroke-width="2" stroke="#262626" stroke-linecap="square" stroke-linejoin="miter" stroke-dasharray="32,0"/>
   <polyline fill="none" points="378.946,279.499 378.946,23.5533" stroke-width="2" stroke="#262626" stroke-linecap="square" stroke-linejoin="miter" stroke-dasharray="32,0"/>
   <g font-family="FreeSans" xml:space="preserve" transform="translate(213.19,308.998) rotate(-0,3.5,-9)" font-size="11" font-weight="normal" font-style="normal">
    <text fill="rgb(38,38,38)" x="0 " y="-0">X</text>
   </g>
   <g font-family="FreeSans" xml:space="preserve" transform="translate(28.9418,151.526) rotate(-90,3.5,0)" font-size="11" font-weight="normal" font-style="normal">
    <text fill="rgb(38,38,38)" x="0 " y="-0">Y</text>
   </g>
   <polyline fill="none" points="60.6794,258.657 60.1065,260.42 58.6065,261.51 56.7524,261.51 55.2523,260.42 54.6794,258.657 55.2523,256.894 56.7524,255.804 58.6065,255.804 60.1065,256.894 60.6794,258.657" stroke-width="2" stroke="#ff0000" stroke-linecap="round" stroke-linejoin="round"/>
   <polyline fill="none" points="70.4148,212.113 69.8418,213.876 68.3418,214.966 66.4877,214.966 64.9877,213.876 64.4148,212.113 64.9877,210.349 66.4877,209.26 68.3418,209.26 69.8418,210.349 70.4148,212.113" stroke-width="2" stroke="#ff0000" stroke-linecap="round" stroke-linejoin="round"/>
   <polyline fill="none" points="80.1501,256.169 79.5772,257.933 78.0772,259.022 76.2231,259.022 74.7231,257.933 74.1501,256.169 74.7231,254.406 76.2231,253.316 78.0772,253.316 79.5772,254.406 80.1501,256.169" stroke-width="2" stroke="#ff0000" stroke-linecap="round" stroke-linejoin="round"/>
   <polyline fill="none" points="89.8855,253.152 89.3126,254.915 87.8126,256.005 85.9585,256.005 84.4584,254.915 83.8855,253.152 84.4584,251.389 85.9585,250.299 87.8126,250.299 89.3126,251.389 89.8855,253.152" stroke-width="2" stroke="#ff0000" stroke-linecap="round" stroke-linejoin="round"/>
   <polyline fill="none" points="99.6209,246.818 99.0479,248.581 97.5479,249.671 95.6938,249.671 94.1938,248.581 93.6209,246.818 94.1938,245.055 95.6938,243.965 97.5479,243.965 99.0479,245.055 99.6209,246.818" stroke-width="2" stroke="#ff0000" stroke-linecap="round" stroke-linejoin="round"/>
   <polyline fill="none" points="109.356,231.972 108.783,233.735 107.283,234.825 105.429,234.825 103.929,233.735 103.356,231.972 103.929,230.209 105.429,229.119 107.283,229.119 108.783,230.209 109.356,231.972" stroke-width="2" stroke="#ff0000" stroke-linecap="round" stroke-linejoin="round"/>
   <polyline fill="none" points="119.092,188.908 118.519,190.671 117.019,191.761 115.165,191.761 113.665,190.671 113.092,188.908 113.665,187.144 115.165,186.054 117.019,186.054 118.519,187.144 119.092,188.908" stroke-width="2" stroke="#ff0000" stroke-linecap="round" stroke-linejoin="round"/>
   <polyline fill="none" points="128.827,197.17 128.254,198.933 126.754,200.023 124.9,200.023 123.4,198.933 122.827,197.17 123.4,195.406 124.9,194.316 126.754,194.316 128.254,195.406 128.827,197.17" stroke-width="2" stroke="#ff0000" stroke-linecap="round" stroke-linejoin="round"/>
   <polyline fill="none" points="138.562,178.572 137.989,180.335 136.489,181.425 134.635,181.425 133.135,180.335 132.562,178.572 133.135,176.808 134.635,175.718 136.489,175.718 137.989,176.808 138.562,178.572" stroke-width="2" stroke="#ff0000" stroke-linecap="round" stroke-linejoin="round"/>
   <polyline fill="none" points="148.298,128.942 147.725,130.705 146.225,131.795 144.371,131.795 142.871,130.705 142.298,128.942 142.871,127.178 144.371,126.088 146.225,126.088 147.725,127.178 148.298,128.942" stroke-width="2" stroke="#ff0000" stroke-linecap="round" stroke-linejoin="round"/>
   <polyline fill="none" points="158.033,108.48 157.46,110.244 155.96,111.333 154.106,111.333 152.606,110.244 152.033,108.48 152.606,106.717 154.106,105.627 155.96,105.627 157.46,106.717 158.033,108.48" stroke-width="2" stroke="#ff0000" stroke-linecap="round" stroke-linejoin="round"/>
   <polyline fill="none" points="167.768,111.199 167.195,112.963 165.695,114.053 163.841,114.053 162.341,112.963 161.768,111.199 162.341,109.436 163.841,108.346 165.695,108.346 167.195,109.436 167.768,111.199" stroke-width="2" stroke="#ff0000" stroke-linecap="round" stroke-linejoin="round"/>
   <polyline fill="none" points="177.504,118.888 176.931,120.651 175.431,121.741 173.577,121.741 172.077,120.651 171.504,118.888 172.077,117.125 173.577,116.035 175.431,116.035 176.931,117.125 177.504,118.888" stroke-width="2" stroke="#ff0000" stroke-linecap="round" stroke-linejoin="round"/>
   <polyline fill="none" points="187.239,76.8003 186.666,78.5636 185.166,79.6534 183.312,79.6534 181.812,78.5636 181.239,76.8003 181.812,75.0369 183.312,73.9471 185.166,73.9471 186.666,75.0369 187.239,76.8003" stroke-width="2" stroke="#ff0000" stroke-linecap="round" stroke-linejoin="round"/>
   <polyline fill="none" points="196.974,93.4562 196.402,95.2196 194.902,96.3094 193.047,96.3094 191.547,95.2196 190.974,93.4562 191.547,91.6929 193.047,90.603 194.902,90.603 196.402,91.6929 196.974,93.4562" stroke-width="2" stroke="#ff0000" stroke-linecap="round" stroke-linejoin="round"/>
   <polyline fill="none" points="206.71,70.8296 206.137,72.5929 204.637,73.6827 202.783,73.6827 201.283,72.5929 200.71,70.8296 201.283,69.0662 202.783,67.9764 204.637,67.9764 206.137,69.0662 206.71,70.8296" stroke-width="2" stroke="#ff0000" stroke-linecap="round" stroke-linejoin="round"/>
   <polyline fill="none" points="216.445,64.6961 215.872,66.4594 214.372,67.5493 212.518,67.5493 211.018,66.4594 210.445,64.6961 211.018,62.9327 212.518,61.8429 214.372,61.8429 215.872,62.9327 216.445,64.6961" stroke-width="2" stroke="#ff0000" stroke-linecap="round" stroke-linejoin="round"/>
   <polyline fill="none" points="226.181,43.6143 225.608,45.3777 224.108,46.4675 222.254,46.4675 220.754,45.3777 220.181,43.6143 220.754,41.851 222.254,40.7612 224.108,40.7612 225.608,41.851 226.181,43.6143" stroke-width="2" stroke="#ff0000" stroke-linecap="round" stroke-linejoin="round"/>
   <polyline fill="none" points="235.916,72.0172 235.343,73.7805 233.843,74.8703 231.989,74.8703 230.489,73.7805 229.916,72.0172 230.489,70.2538 231.989,69.164 233.843,69.164 235.343,70.2538 235.916,72.0172" stroke-width="2" stroke="#ff0000" stroke-linecap="round" stroke-linejoin="round"/>
   <polyline fill="none" points="245.651,43.3154 245.078,45.0787 243.578,46.1685 241.724,46.1685 240.224,45.0787 239.651,43.3154 240.224,41.552 241.724,40.4622 243.578,40.4622 245.078,41.552 245.651,43.3154" stroke-width="2" stroke="#ff0000" stroke-linecap="round" stroke-linejoin="round"/>
   <polyline fill="none" points="255.387,46.6232 254.814,48.3866 253.314,49.4764 251.46,49.4764 249.96,48.3866 249.387,46.6232 249.96,44.8599 251.46,43.7701 253.314,43.7701 254.814,44.8599 255.387,46.6232" stroke-width="2" stroke="#ff0000" stroke-linecap="round" stroke-linejoin="round"/>
   <polyline fill="none" points="265.122,80.015 264.549,81.7783 263.049,82.8681 261.195,82.8681 259.695,81.7783 259.122,80.015 259.695,78.2516 261.195,77.1618 263.049,77.1618 264.549,78.2516 265.122,80.015" stroke-width="2" stroke="#ff0000" stroke-linecap="round" stroke-linejoin="round"/>
   <polyline fill="none" points="274.857,81.6397 274.284,83.4031 272.784,84.4929 270.93,84.4929 269.43,83.4031 268.857,81.6397 269.43,79.8763 270.93,78.7865 272.784,78.7865 274.284,79.8763 274.857,81.6397" stroke-width="2" stroke="#ff0000" stroke-linecap="round" stroke-linejoin="round"/>
   <polyline fill="none" points="284.593,112.466 284.02,114.229 282.52,115.319 280.666,115.319 279.166,114.229 278.593,112.466 279.166,110.702 280.666,109.613 282.52,109.613 284.02,110.702 284.593,112.466" stroke-width="2" stroke="#ff0000" stroke-linecap="round" stroke-linejoin="round"/>
   <polyline fill="none" points="294.328,110.269 293.755,112.032 292.255,113.122 290.401,113.122 288.901,112.032 288.328,110.269 288.901,108.505 290.401,107.416 292.255,107.416 293.755,108.505 294.328,110.269" stroke-width="2" stroke="#ff0000" stroke-linecap="round" stroke-linejoin="round"/>
   <polyline fill="none" points="304.064,91.6042 303.491,93.3675 301.991,94.4574 300.136,94.4574 298.636,93.3675 298.064,91.6042 298.636,89.8408 300.136,88.751 301.991,88.751 303.491,89.8408 304.064,91.6042" stroke-width="2" stroke="#ff0000" stroke-linecap="round" stroke-linejoin="round"/>
   <polyline fill="none" points="313.799,110.087 313.226,111.85 311.726,112.94 309.872,112.94 308.372,111.85 307.799,110.087 308.372,108.323 309.872,107.233 311.726,107.233 313.226,108.323 313.799,110.087" stroke-width="2" stroke="#ff0000" stroke-linecap="round" stroke-linejoin="round"/>
   <polyline fill="none" points="323.534,146.357 322.961,148.121 321.461,149.21 319.607,149.21 318.107,148.121 317.534,146.357 318.107,144.594 319.607,143.504 321.461,143.504 322.961,144.594 323.534,146.357" stroke-width="2" stroke="#ff0000" stroke-linecap="round" stroke-linejoin="round"/>
   <polyline fill="none" points="333.27,134.908 332.697,136.672 331.197,137.761 329.343,137.761 327.843,136.672 327.27,134.908 327.843,133.145 329.343,132.055 331.197,132.055 332.697,133.145 333.27,134.908" stroke-width="2" stroke="#ff0000" stroke-linecap="round" stroke-linejoin="round"/>
   <polyline fill="none" points="343.005,120.059 342.432,121.823 340.932,122.912 339.078,122.912 337.578,121.823 337.005,120.059 337.578,118.296 339.078,117.206 340.932,117.206 342.432,118.296 343.005,120.059" stroke-width="2" stroke="#ff0000" stroke-linecap="round" stroke-linejoin="round"/>
   <polyline fill="none" points="352.74,158.837 352.167,160.6 350.667,161.69 348.813,161.69 347.313,160.6 346.74,158.837 347.313,157.074 348.813,155.984 350.667,155.984 352.167,157.074 352.74,158.837" stroke-width="2" stroke="#ff0000" stroke-linecap="round" stroke-linejoin="round"/>
   <polyline fill="none" points="362.476,126.377 361.903,128.14 360.403,129.23 358.549,129.23 357.049,128.14 356.476,126.377 357.049,124.614 358.549,123.524 360.403,123.524 361.903,124.614 362.476,126.377" stroke-width="2" stroke="#ff0000" stroke-linecap="round" stroke-linejoin="round"/>
   <polyline fill="none" points="372.211,128.656 371.638,130.419 370.138,131.509 368.284,131.509 366.784,130.419 366.211,128.656 366.784,126.893 368.284,125.803 370.138,125.803 371.638,126.893 372.211,128.656" stroke-width="2" stroke="#ff0000" stroke-linecap="round" stroke-linejoin="round"/>
   <polyline fill="none" points="381.946,73.7207 381.373,75.4841 379.873,76.5739 378.019,76.5739 376.519,75.4841 375.946,73.7207 376.519,71.9574 378.019,70.8676 379.873,70.8676 381.373,71.9574 381.946,73.7207" stroke-width="2" stroke="#ff0000" stroke-linecap="round" stroke-linejoin="round"/>
   <polyline fill="none" points="54.4343,201.182 55.2476,200.831 56.0609,200.48 56.8742,200.129 57.6875,199.778 58.5009,199.428 59.3142,199.077 60.1275,198.726 60.9408,198.375 61.7541,198.024 62.5674,197.673 63.3807,197.323 64.1941,196.972 65.0074,196.621 65.8207,196.27 66.634,195.919 67.4473,195.568 68.2606,195.217 69.0739,194.867 69.8872,194.516 70.7006,194.165 71.5139,193.814 72.3272,193.463 73.1405,193.112 73.9538,192.762 74.7671,192.411 75.5804,192.06 76.3938,191.709 77.2071,191.358 78.0204,191.007 78.8337,190.656 79.647,190.306 80.4603,189.955 81.2736,189.604 82.0869,189.253 82.9003,188.902 83.7136,188.551 84.5269,188.201 85.3402,187.85 86.1535,187.499 86.9668,187.148 87.7801,186.797 88.5935,186.446 89.4068,186.095 90.2201,185.745 91.0334,185.394 91.8467,185.043 92.66,184.692 93.4733,184.341 94.2867,183.99 95.1,183.64 95.9133,183.289 96.7266,182.938 97.5399,182.587 98.3532,182.236 99.1665,181.885 99.9798,181.534 100.793,181.184 101.606,180.833 102.42,180.482 103.233,180.131 104.046,179.78 104.86,179.429 105.673,179.079 106.486,178.728 107.3,178.377 108.113,178.026 108.926,177.675 109.74,177.324 110.553,176.973 111.366,176.623 112.18,176.272 112.993,175.921 113.806,175.57 114.619,175.219 115.433,174.868 116.246,174.518 117.059,174.167 117.873,173.816 118.686,173.465 119.499,173.114 120.313,172.763 121.126,172.413 121.939,172.062 122.753,171.711 123.566,171.36 124.379,171.009 125.193,170.658 126.006,170.307 126.819,169.957 127.632,169.606 128.446,169.255 129.259,168.904 130.072,168.553 130.886,168.202 131.699,167.852 132.512,167.501 133.326,167.15 134.139,166.799 134.952,166.448 135.766,166.097 136.579,165.746 137.392,165.396 138.206,165.045 139.019,164.694 139.832,164.343 140.646,163.992 141.459,163.641 142.272,163.291 143.085,162.94 143.899,162.589 144.712,162.238 145.525,161.887 146.339,161.536 147.152,161.185 147.965,160.835 148.779,160.484 149.592,160.133 150.405,159.782 151.219,159.431 152.032,159.08 152.845,158.73 153.659,158.379 154.472,158.028 155.285,157.677 156.098,157.326 156.912,156.975 157.725,156.624 158.538,156.274 159.352,155.923 160.165,155.572 160.978,155.221 161.792,154.87 162.605,154.519 163.418,154.169 164.232,153.818 165.045,153.467 165.858,153.116 166.672,152.765 167.485,152.414 168.298,152.064 169.111,151.713 169.925,151.362 170.738,151.011 171.551,150.66 172.365,150.309 173.178,149.958 173.991,149.608 174.805,149.257 175.618,148.906 176.431,148.555 177.245,148.204 178.058,147.853 178.871,147.503 179.685,147.152 180.498,146.801 181.311,146.45 182.124,146.099 182.938,145.748 183.751,145.397 184.564,145.047 185.378,144.696 186.191,144.345 187.004,143.994 187.818,143.643 188.631,143.292 189.444,142.942 190.258,142.591 191.071,142.24 191.884,141.889 192.698,141.538 193.511,141.187 194.324,140.836 195.138,140.486 195.951,140.135 196.764,139.784 197.577,139.433 198.391,139.082 199.204,138.731 200.017,138.381 200.831,138.03 201.644,137.679 202.457,137.328 203.271,136.977 204.084,136.626 204.897,136.275 205.711,135.925 206.524,135.574 207.337,135.223 208.151,134.872 208.964,134.521 209.777,134.17 210.59,133.82 211.404,133.469 212.217,133.118 213.03,132.767 213.844,132.416 214.657,132.065 215.47,131.715 216.284,131.364 217.097,131.013 217.91,130.662 218.724,130.311 219.537,129.96 220.35,129.609 221.164,129.259 221.977,128.908 222.79,128.557 223.603,128.206 224.417,127.855 225.23,127.504 226.043,127.154 226.857,126.803 227.67,126.452 228.483,126.101 229.297,125.75 230.11,125.399 230.923,125.048 231.737,124.698 232.55,124.347 233.363,123.996 234.177,123.645 234.99,123.294 235.803,122.943 236.617,122.593 237.43,122.242 238.243,121.891 239.056,121.54 239.87,121.189 240.683,120.838 241.496,120.487 242.31,120.137 243.123,119.786 243.936,119.435 244.75,119.084 245.563,118.733 246.376,118.382 247.19,118.032 248.003,117.681 248.816,117.33 249.63,116.979 250.443,116.628 251.256,116.277 252.069,115.926 252.883,115.576 253.696,115.225 254.509,114.874 255.323,114.523 256.136,114.172 256.949,113.821 257.763,113.471 258.576,113.12 259.389,112.769 260.203,112.418 261.016,112.067 261.829,111.716 262.643,111.366 263.456,111.015 264.269,110.664 265.082,110.313 265.896,109.962 266.709,109.611 267.522,109.26 268.336,108.91 269.149,108.559 269.962,108.208 270.776,107.857 271.589,107.506 272.402,107.155 273.216,106.805 274.029,106.454 274.842,106.103 275.656,105.752 276.469,105.401 277.282,105.05 278.095,104.699 278.909,104.349 279.722,103.998 280.535,103.647 281.349,103.296 282.162,102.945 282.975,102.594 283.789,102.244 284.602,101.893 285.415,101.542 286.229,101.191 287.042,100.84 287.855,100.489 288.669,100.138 289.482,99.7876 290.295,99.4368 291.108,99.0859 291.922,98.7351 292.735,98.3842 293.548,98.0334 294.362,97.6826 295.175,97.3317 295.988,96.9809 296.802,96.63 297.615,96.2792 298.428,95.9283 299.242,95.5775 300.055,95.2267 300.868,94.8758 301.682,94.525 302.495,94.1741 303.308,93.8233 304.122,93.4724 304.935,93.1216 305.748,92.7707 306.561,92.4199 307.375,92.069 308.188,91.7182 309.001,91.3674 309.815,91.0165 310.628,90.6657 311.441,90.3148 312.255,89.964 313.068,89.6131 313.881,89.2623 314.695,88.9115 315.508,88.5606 316.321,88.2098 317.135,87.8589 317.948,87.508 318.761,87.1572 319.574,86.8064 320.388,86.4555 321.201,86.1047 322.014,85.7538 322.828,85.403 323.641,85.0522 324.454,84.7013 325.268,84.3504 326.081,83.9996 326.894,83.6488 327.708,83.2979 328.521,82.9471 329.334,82.5962 330.148,82.2454 330.961,81.8945 331.774,81.5437 332.587,81.1928 333.401,80.842 334.214,80.4911 335.027,80.1403 335.841,79.7895 336.654,79.4386 337.467,79.0878 338.281,78.7369 339.094,78.3861 339.907,78.0353 340.721,77.6844 341.534,77.3336 342.347,76.9827 343.161,76.6319 343.974,76.281 344.787,75.9302 345.601,75.5793 346.414,75.2285 347.227,74.8777 348.04,74.5268 348.854,74.1759 349.667,73.8251 350.48,73.4743 351.294,73.1234 352.107,72.7726 352.92,72.4217 353.734,72.0709 354.547,71.72 355.36,71.3692 356.174,71.0184 356.987,70.6675 357.8,70.3167 358.614,69.9658 359.427,69.615 360.24,69.2641 361.053,68.9133 361.867,68.5624 362.68,68.2116 363.493,67.8607 364.307,67.5099 365.12,67.1591 365.933,66.8082 366.747,66.4574 367.56,66.1065 368.373,65.7557 369.187,65.4048 370,65.054 370.813,64.7031 371.627,64.3523 372.44,64.0015 373.253,63.6506 374.066,63.2998 374.88,62.9489 375.693,62.5981 376.506,62.2472 377.32,61.8964 378.133,61.5455 378.946,61.1947" stroke-width="3" stroke="#0071bc" stroke-linecap="butt" stroke-linejoin="round"/>
  </g>
 </g>
</svg>
