<svg version="1.1" xmlns="http://www.w3.org/2000/svg" xmlns:xlink="http://www.w3.org/1999/xlink" width="1200" height="800"><defs/><g transform="scale(2,2)"><g id="background-c2a64bf4"><rect fill="white" stroke="none" x="0" y="0" width="600" height="400" class="dcg-svg-background"/></g><g id="graphpaper-c2a64bf4"><g id="grid-c2a64bf4"><g><path fill="none" stroke="rgb(0,0,0)" class="dcg-svg-minor-gridline" paint-order="fill stroke markers" d=" M 164.5 0 L 164.5 400" stroke-opacity="0.3" stroke-miterlimit="10" stroke-dasharray=""/><path fill="none" stroke="rgb(0,0,0)" class="dcg-svg-minor-gridline" paint-order="fill stroke markers" d=" M 271.5 0 L 271.5 400" stroke-opacity="0.3" stroke-miterlimit="10" stroke-dasharray=""/><path fill="none" stroke="rgb(0,0,0)" class="dcg-svg-minor-gridline" paint-order="fill stroke markers" d=" M 378.5 0 L 378.5 400" stroke-opacity="0.3" stroke-miterlimit="10" stroke-dasharray=""/><path fill="none" stroke="rgb(0,0,0)" class="dcg-svg-minor-gridline" paint-order="fill stroke markers" d=" M 485.5 0 L 485.5 400" stroke-opacity="0.3" stroke-miterlimit="10" stroke-dasharray=""/><path fill="none" stroke="rgb(0,0,0)" class="dcg-svg-minor-gridline" paint-order="fill stroke markers" d=" M 592.5 0 L 592.5 400" stroke-opacity="0.3" stroke-miterlimit="10" stroke-dasharray=""/><path fill="none" stroke="rgb(0,0,0)" class="dcg-svg-minor-gridline" paint-order="fill stroke markers" d=" M 0 161.5 L 600 161.5" stroke-opacity="0.3" stroke-miterlimit="10" stroke-dasharray=""/><path fill="none" stroke="rgb(0,0,0)" class="dcg-svg-minor-gridline" paint-order="fill stroke markers" d=" M 0 13.5 L 600 13.5" stroke-opacity="0.3" stroke-miterlimit="10" stroke-dasharray=""/><path fill="none" stroke="rgb(0,0,0)" class="dcg-svg-major-gridline" paint-order="fill stroke markers" d=" M 164.5 0 L 164.5 400" stroke-opacity="0.4285714285714285" stroke-miterlimit="10" stroke-dasharray=""/><path fill="none" stroke="rgb(0,0,0)" class="dcg-svg-major-gridline" paint-order="fill stroke markers" d=" M 271.5 0 L 271.5 400" stroke-opacity="0.4285714285714285" stroke-miterlimit="10" stroke-dasharray=""/><path fill="none" stroke="rgb(0,0,0)" class="dcg-svg-major-gridline" paint-order="fill stroke markers" d=" M 378.5 0 L 378.5 400" stroke-opacity="0.4285714285714285" stroke-miterlimit="10" stroke-dasharray=""/><path fill="none" stroke="rgb(0,0,0)" class="dcg-svg-major-gridline" paint-order="fill stroke markers" d=" M 485.5 0 L 485.5 400" stroke-opacity="0.4285714285714285" stroke-miterlimit="10" stroke-dasharray=""/><path fill="none" stroke="rgb(0,0,0)" class="dcg-svg-major-gridline" paint-order="fill stroke markers" d=" M 592.5 0 L 592.5 400" stroke-opacity="0.4285714285714285" stroke-miterlimit="10" stroke-dasharray=""/><path fill="none" stroke="rgb(0,0,0)" class="dcg-svg-major-gridline" paint-order="fill stroke markers" d=" M 0 161.5 L 600 161.5" stroke-opacity="0.4285714285714285" stroke-miterlimit="10" stroke-dasharray=""/><path fill="none" stroke="rgb(0,0,0)" class="dcg-svg-major-gridline" paint-order="fill stroke markers" d=" M 0 13.5 L 600 13.5" stroke-opacity="0.4285714285714285" stroke-miterlimit="10" stroke-dasharray=""/></g></g><g id="axis-c2a64bf4"><g id="yaxis-c2a64bf4"><title>Y axis</title><g><path fill="none" stroke="rgb(0,0,0)" class="dcg-svg-axis-line" paint-order="fill stroke markers" d=" M 58 0 L 58 400" stroke-opacity="0.9" stroke-miterlimit="10" stroke-width="2" stroke-dasharray=""/></g></g><g id="xaxis-c2a64bf4"><title>X axis</title><g><path fill="none" stroke="rgb(0,0,0)" class="dcg-svg-axis-line" paint-order="fill stroke markers" d=" M 0 309 L 600 309" stroke-opacity="0.9" stroke-miterlimit="10" stroke-width="2" stroke-dasharray=""/></g></g><g><g class="dcg-svg-axis-value"><text fill="none" stroke="#ffffff" font-family="Arial" font-size="17px" font-style="normal" font-weight="normal" text-decoration="normal" x="47.81243139154884" y="327.4530398984092" text-anchor="middle" stroke-miterlimit="2" stroke-width="3" stroke-dasharray="">0</text><text fill="#000000" stroke="none" font-family="Arial" font-size="17px" font-style="normal" font-weight="normal" text-decoration="normal" x="47.81243139154884" y="327.4530398984092" text-anchor="middle">0</text></g><g class="dcg-svg-axis-value"><text fill="none" stroke="#ffffff" font-family="Arial" font-size="17px" font-style="normal" font-weight="normal" text-decoration="normal" x="164.44999757623734" y="327.4530398984092" text-anchor="middle" stroke-miterlimit="2" stroke-width="3" stroke-dasharray="">5</text><text fill="#000000" stroke="none" font-family="Arial" font-size="17px" font-style="normal" font-weight="normal" text-decoration="normal" x="164.44999757623734" y="327.4530398984092" text-anchor="middle">5</text></g><g class="dcg-svg-axis-value"><text fill="none" stroke="#ffffff" font-family="Arial" font-size="17px" font-style="normal" font-weight="normal" text-decoration="normal" x="271.36256385629326" y="327.4530398984092" text-anchor="middle" stroke-miterlimit="2" stroke-width="3" stroke-dasharray="">10</text><text fill="#000000" stroke="none" font-family="Arial" font-size="17px" font-style="normal" font-weight="normal" text-decoration="normal" x="271.36256385629326" y="327.4530398984092" text-anchor="middle">10</text></g><g class="dcg-svg-axis-value"><text fill="none" stroke="#ffffff" font-family="Arial" font-size="17px" font-style="normal" font-weight="normal" text-decoration="normal" x="378.2751301363492" y="327.4530398984092" text-anchor="middle" stroke-miterlimit="2" stroke-width="3" stroke-dasharray="">15</text><text fill="#000000" stroke="none" font-family="Arial" font-size="17px" font-style="normal" font-weight="normal" text-decoration="normal" x="378.2751301363492" y="327.4530398984092" text-anchor="middle">15</text></g><g class="dcg-svg-axis-value"><text fill="none" stroke="#ffffff" font-family="Arial" font-size="17px" font-style="normal" font-weight="normal" text-decoration="normal" x="485.1876964164051" y="327.4530398984092" text-anchor="middle" stroke-miterlimit="2" stroke-width="3" stroke-dasharray="">20</text><text fill="#000000" stroke="none" font-family="Arial" font-size="17px" font-style="normal" font-weight="normal" text-decoration="normal" x="485.1876964164051" y="327.4530398984092" text-anchor="middle">20</text></g><g class="dcg-svg-axis-value dcg-svg-offcenter-axis-value"><text fill="none" stroke="#ffffff" font-family="Arial" font-size="17px" font-style="normal" font-weight="normal" text-decoration="normal" x="587.5500001907349" y="327.4530398984092" text-anchor="middle" stroke-miterlimit="2" stroke-width="3" stroke-dasharray="">25</text><text fill="#000000" stroke="none" font-family="Arial" font-size="17px" font-style="normal" font-weight="normal" text-decoration="normal" x="587.5500001907349" y="327.4530398984092" text-anchor="middle">25</text></g><g class="dcg-svg-axis-value"><text fill="none" stroke="#ffffff" font-family="Arial" font-size="17px" font-style="normal" font-weight="normal" text-decoration="normal" x="47.81243139154884" y="166.25140515631895" text-anchor="middle" stroke-miterlimit="2" stroke-width="3" stroke-dasharray="">1</text><text fill="#000000" stroke="none" font-family="Arial" font-size="17px" font-style="normal" font-weight="normal" text-decoration="normal" x="47.81243139154884" y="166.25140515631895" text-anchor="middle">1</text></g><g class="dcg-svg-axis-value"><text fill="none" stroke="#ffffff" font-family="Arial" font-size="17px" font-style="normal" font-weight="normal" text-decoration="normal" x="47.81243139154884" y="18.54977041422874" text-anchor="middle" stroke-miterlimit="2" stroke-width="3" stroke-dasharray="">2</text><text fill="#000000" stroke="none" font-family="Arial" font-size="17px" font-style="normal" font-weight="normal" text-decoration="normal" x="47.81243139154884" y="18.54977041422874" text-anchor="middle">2</text></g></g></g></g><g id="expressions-c2a64bf4"><g id="sketch-c2a64bf4"><title/><path fill="#fa7e19" stroke="none" paint-order="stroke fill markers" d="" fill-opacity="0.4"/><g><path fill="none" stroke="#fa7e19" class="dcg-svg-curve" paint-order="fill stroke markers" d=" M 57.53743129618141 13.925770414228737 L 57.53743129618141 13.925770414228737 L 78.91994455219259 370.7946079491715 L 100.30245780820378 174.2332484477242 L 121.68497106421498 219.2213978269486 L 143.06748432022616 188.27121324483733 L 164.44999757623734 208.52180896611696 L 185.83251083224854 194.71336698929312 L 207.21502408825972 203.91072992950672 L 228.5975373442709 197.67713315494026 L 249.98005060028208 201.85619157830945 L 271.36256385629326 199.03290297973967 L 292.74507711230444 200.9307219474807 L 314.1275903683157 199.65059881245395 L 335.51010362432686 200.5120969421601 L 356.89261688033804 199.93142192591057 L 378.2751301363492 200.32240627505314 L 399.6576433923604 200.05896016991403 L 421.0401566483716 200.2363866959974 L 442.42266990438276 200.11685471648974 L 463.80518316039394 200.19736591723898 L 485.1876964164051 200.1431294432761 L 506.57020967241635 200.17966234860734 L 527.9527229284275 200.15505269309648 L 549.3352361844387 200.17162975751324 L 570.71774944045 200.16046311344925 L 592.1002626964612 200.16798503836858 L 606.5 200.16457281845103" stroke-linecap="round" stroke-linejoin="round" stroke-miterlimit="10" stroke-width="3.5" stroke-dasharray=""/></g><path fill="#fa7e19" stroke="none" class="dcg-svg-point" paint-order="stroke fill markers" d=" M 62.78743129618141 13.925770414228737 A 5.25 5.25 0 1 1 62.78742867118163 13.920520415103734 Z"/><path fill="#fa7e19" stroke="none" class="dcg-svg-point" paint-order="stroke fill markers" d=" M 84.16994455219259 370.7946079491715 A 5.25 5.25 0 1 1 84.16994192719281 370.7893579500465 Z"/><path fill="#fa7e19" stroke="none" class="dcg-svg-point" paint-order="stroke fill markers" d=" M 105.55245780820378 174.2332484477242 A 5.25 5.25 0 1 1 105.552455183204 174.2279984485992 Z"/><path fill="#fa7e19" stroke="none" class="dcg-svg-point" paint-order="stroke fill markers" d=" M 126.93497106421498 219.2213978269486 A 5.25 5.25 0 1 1 126.9349684392152 219.2161478278236 Z"/><path fill="#fa7e19" stroke="none" class="dcg-svg-point" paint-order="stroke fill markers" d=" M 148.31748432022616 188.27121324483733 A 5.25 5.25 0 1 1 148.31748169522638 188.26596324571233 Z"/><path fill="#fa7e19" stroke="none" class="dcg-svg-point" paint-order="stroke fill markers" d=" M 169.69999757623734 208.52180896611696 A 5.25 5.25 0 1 1 169.69999495123756 208.51655896699197 Z"/><path fill="#fa7e19" stroke="none" class="dcg-svg-point" paint-order="stroke fill markers" d=" M 191.08251083224854 194.71336698929312 A 5.25 5.25 0 1 1 191.08250820724876 194.70811699016812 Z"/><path fill="#fa7e19" stroke="none" class="dcg-svg-point" paint-order="stroke fill markers" d=" M 212.46502408825972 203.91072992950672 A 5.25 5.25 0 1 1 212.46502146325994 203.90547993038172 Z"/><path fill="#fa7e19" stroke="none" class="dcg-svg-point" paint-order="stroke fill markers" d=" M 233.8475373442709 197.67713315494026 A 5.25 5.25 0 1 1 233.84753471927112 197.67188315581527 Z"/><path fill="#fa7e19" stroke="none" class="dcg-svg-point" paint-order="stroke fill markers" d=" M 255.23005060028208 201.85619157830945 A 5.25 5.25 0 1 1 255.2300479752823 201.85094157918445 Z"/><path fill="#fa7e19" stroke="none" class="dcg-svg-point" paint-order="stroke fill markers" d=" M 276.61256385629326 199.03290297973967 A 5.25 5.25 0 1 1 276.61256123129345 199.02765298061468 Z"/><path fill="#fa7e19" stroke="none" class="dcg-svg-point" paint-order="stroke fill markers" d=" M 297.99507711230444 200.9307219474807 A 5.25 5.25 0 1 1 297.99507448730463 200.9254719483557 Z"/><path fill="#fa7e19" stroke="none" class="dcg-svg-point" paint-order="stroke fill markers" d=" M 319.3775903683157 199.65059881245395 A 5.25 5.25 0 1 1 319.37758774331587 199.64534881332895 Z"/><path fill="#fa7e19" stroke="none" class="dcg-svg-point" paint-order="stroke fill markers" d=" M 340.76010362432686 200.5120969421601 A 5.25 5.25 0 1 1 340.76010099932705 200.5068469430351 Z"/><path fill="#fa7e19" stroke="none" class="dcg-svg-point" paint-order="stroke fill markers" d=" M 362.14261688033804 199.93142192591057 A 5.25 5.25 0 1 1 362.14261425533823 199.92617192678557 Z"/><path fill="#fa7e19" stroke="none" class="dcg-svg-point" paint-order="stroke fill markers" d=" M 383.5251301363492 200.32240627505314 A 5.25 5.25 0 1 1 383.5251275113494 200.31715627592814 Z"/><path fill="#fa7e19" stroke="none" class="dcg-svg-point" paint-order="stroke fill markers" d=" M 404.9076433923604 200.05896016991403 A 5.25 5.25 0 1 1 404.9076407673606 200.05371017078903 Z"/><path fill="#fa7e19" stroke="none" class="dcg-svg-point" paint-order="stroke fill markers" d=" M 426.2901566483716 200.2363866959974 A 5.25 5.25 0 1 1 426.29015402337177 200.2311366968724 Z"/><path fill="#fa7e19" stroke="none" class="dcg-svg-point" paint-order="stroke fill markers" d=" M 447.67266990438276 200.11685471648974 A 5.25 5.25 0 1 1 447.67266727938295 200.11160471736474 Z"/><path fill="#fa7e19" stroke="none" class="dcg-svg-point" paint-order="stroke fill markers" d=" M 469.05518316039394 200.19736591723898 A 5.25 5.25 0 1 1 469.05518053539413 200.19211591811398 Z"/><path fill="#fa7e19" stroke="none" class="dcg-svg-point" paint-order="stroke fill markers" d=" M 490.4376964164051 200.1431294432761 A 5.25 5.25 0 1 1 490.4376937914053 200.1378794441511 Z"/><path fill="#fa7e19" stroke="none" class="dcg-svg-point" paint-order="stroke fill markers" d=" M 511.82020967241635 200.17966234860734 A 5.25 5.25 0 1 1 511.82020704741655 200.17441234948234 Z"/><path fill="#fa7e19" stroke="none" class="dcg-svg-point" paint-order="stroke fill markers" d=" M 533.2027229284275 200.15505269309648 A 5.25 5.25 0 1 1 533.2027203034278 200.14980269397148 Z"/><path fill="#fa7e19" stroke="none" class="dcg-svg-point" paint-order="stroke fill markers" d=" M 554.5852361844387 200.17162975751324 A 5.25 5.25 0 1 1 554.585233559439 200.16637975838825 Z"/><path fill="#fa7e19" stroke="none" class="dcg-svg-point" paint-order="stroke fill markers" d=" M 575.96774944045 200.16046311344925 A 5.25 5.25 0 1 1 575.9677468154503 200.15521311432425 Z"/><path fill="#fa7e19" stroke="none" class="dcg-svg-point" paint-order="stroke fill markers" d=" M 597.3502626964612 200.16798503836858 A 5.25 5.25 0 1 1 597.3502600714614 200.16273503924359 Z"/><path fill="#fa7e19" stroke="none" class="dcg-svg-point" paint-order="stroke fill markers" d=" M 618.7327759524724 200.16291815165522 A 5.25 5.25 0 1 1 618.7327733274726 200.15766815253022 Z"/></g></g><g id="labels-c2a64bf4"/><g id="labels-c2a64bf4"/></g></svg>