<svg version="1.1" xmlns="http://www.w3.org/2000/svg" xmlns:xlink="http://www.w3.org/1999/xlink" width="1200" height="800"><defs/><g transform="scale(2,2)"><g id="background-c9ca139c"><rect fill="white" stroke="none" x="0" y="0" width="600" height="400" class="dcg-svg-background"/></g><g id="graphpaper-c9ca139c"><g id="grid-c9ca139c"><g><path fill="none" stroke="rgb(0,0,0)" class="dcg-svg-minor-gridline" paint-order="fill stroke markers" d=" M 179.5 0 L 179.5 400" stroke-opacity="0.3" stroke-miterlimit="10" stroke-dasharray=""/><path fill="none" stroke="rgb(0,0,0)" class="dcg-svg-minor-gridline" paint-order="fill stroke markers" d=" M 307.5 0 L 307.5 400" stroke-opacity="0.3" stroke-miterlimit="10" stroke-dasharray=""/><path fill="none" stroke="rgb(0,0,0)" class="dcg-svg-minor-gridline" paint-order="fill stroke markers" d=" M 435.5 0 L 435.5 400" stroke-opacity="0.3" stroke-miterlimit="10" stroke-dasharray=""/><path fill="none" stroke="rgb(0,0,0)" class="dcg-svg-minor-gridline" paint-order="fill stroke markers" d=" M 563.5 0 L 563.5 400" stroke-opacity="0.3" stroke-miterlimit="10" stroke-dasharray=""/><path fill="none" stroke="rgb(0,0,0)" class="dcg-svg-minor-gridline" paint-order="fill stroke markers" d=" M 0 284.5 L 600 284.5" stroke-opacity="0.3" stroke-miterlimit="10" stroke-dasharray=""/><path fill="none" stroke="rgb(0,0,0)" class="dcg-svg-minor-gridline" paint-order="fill stroke markers" d=" M 0 195.5 L 600 195.5" stroke-opacity="0.3" stroke-miterlimit="10" stroke-dasharray=""/><path fill="none" stroke="rgb(0,0,0)" class="dcg-svg-minor-gridline" paint-order="fill stroke markers" d=" M 0 106.5 L 600 106.5" stroke-opacity="0.3" stroke-miterlimit="10" stroke-dasharray=""/><path fill="none" stroke="rgb(0,0,0)" class="dcg-svg-minor-gridline" paint-order="fill stroke markers" d=" M 0 18.5 L 600 18.5" stroke-opacity="0.3" stroke-miterlimit="10" stroke-dasharray=""/><path fill="none" stroke="rgb(0,0,0)" class="dcg-svg-major-gridline" paint-order="fill stroke markers" d=" M 179.5 0 L 179.5 400" stroke-opacity="0.4285714285714285" stroke-miterlimit="10" stroke-dasharray=""/><path fill="none" stroke="rgb(0,0,0)" class="dcg-svg-major-gridline" paint-order="fill stroke markers" d=" M 307.5 0 L 307.5 400" stroke-opacity="0.4285714285714285" stroke-miterlimit="10" stroke-dasharray=""/><path fill="none" stroke="rgb(0,0,0)" class="dcg-svg-major-gridline" paint-order="fill stroke markers" d=" M 435.5 0 L 435.5 400" stroke-opacity="0.4285714285714285" stroke-miterlimit="10" stroke-dasharray=""/><path fill="none" stroke="rgb(0,0,0)" class="dcg-svg-major-gridline" paint-order="fill stroke markers" d=" M 563.5 0 L 563.5 400" stroke-opacity="0.4285714285714285" stroke-miterlimit="10" stroke-dasharray=""/><path fill="none" stroke="rgb(0,0,0)" class="dcg-svg-major-gridline" paint-order="fill stroke markers" d=" M 0 284.5 L 600 284.5" stroke-opacity="0.4285714285714285" stroke-miterlimit="10" stroke-dasharray=""/><path fill="none" stroke="rgb(0,0,0)" class="dcg-svg-major-gridline" paint-order="fill stroke markers" d=" M 0 195.5 L 600 195.5" stroke-opacity="0.4285714285714285" stroke-miterlimit="10" stroke-dasharray=""/><path fill="none" stroke="rgb(0,0,0)" class="dcg-svg-major-gridline" paint-order="fill stroke markers" d=" M 0 106.5 L 600 106.5" stroke-opacity="0.4285714285714285" stroke-miterlimit="10" stroke-dasharray=""/><path fill="none" stroke="rgb(0,0,0)" class="dcg-svg-major-gridline" paint-order="fill stroke markers" d=" M 0 18.5 L 600 18.5" stroke-opacity="0.4285714285714285" stroke-miterlimit="10" stroke-dasharray=""/></g></g><g id="axis-c9ca139c"><g id="yaxis-c9ca139c"><title>Y axis</title><g><path fill="none" stroke="rgb(0,0,0)" class="dcg-svg-axis-line" paint-order="fill stroke markers" d=" M 51 0 L 51 400" stroke-opacity="0.9" stroke-miterlimit="10" stroke-width="2" stroke-dasharray=""/></g></g><g id="xaxis-c9ca139c"><title>X axis</title><g><path fill="none" stroke="rgb(0,0,0)" class="dcg-svg-axis-line" paint-order="fill stroke markers" d=" M 0 373 L 600 373" stroke-opacity="0.9" stroke-miterlimit="10" stroke-width="2" stroke-dasharray=""/></g></g><g><g class="dcg-svg-axis-value"><text fill="none" stroke="#ffffff" font-family="Arial" font-size="17px" font-style="normal" font-weight="normal" text-decoration="normal" x="41.152275278487" y="390.7650916542193" text-anchor="middle" stroke-miterlimit="2" stroke-width="3" stroke-dasharray="">0</text><text fill="#000000" stroke="none" font-family="Arial" font-size="17px" font-style="normal" font-weight="normal" text-decoration="normal" x="41.152275278487" y="390.7650916542193" text-anchor="middle">0</text></g><g class="dcg-svg-axis-value"><text fill="none" stroke="#ffffff" font-family="Arial" font-size="17px" font-style="normal" font-weight="normal" text-decoration="normal" x="179.1149309775323" y="390.7650916542193" text-anchor="middle" stroke-miterlimit="2" stroke-width="3" stroke-dasharray="">5</text><text fill="#000000" stroke="none" font-family="Arial" font-size="17px" font-style="normal" font-weight="normal" text-decoration="normal" x="179.1149309775323" y="390.7650916542193" text-anchor="middle">5</text></g><g class="dcg-svg-axis-value"><text fill="none" stroke="#ffffff" font-family="Arial" font-size="17px" font-style="normal" font-weight="normal" text-decoration="normal" x="307.3525867719451" y="390.7650916542193" text-anchor="middle" stroke-miterlimit="2" stroke-width="3" stroke-dasharray="">10</text><text fill="#000000" stroke="none" font-family="Arial" font-size="17px" font-style="normal" font-weight="normal" text-decoration="normal" x="307.3525867719451" y="390.7650916542193" text-anchor="middle">10</text></g><g class="dcg-svg-axis-value"><text fill="none" stroke="#ffffff" font-family="Arial" font-size="17px" font-style="normal" font-weight="normal" text-decoration="normal" x="435.5902425663578" y="390.7650916542193" text-anchor="middle" stroke-miterlimit="2" stroke-width="3" stroke-dasharray="">15</text><text fill="#000000" stroke="none" font-family="Arial" font-size="17px" font-style="normal" font-weight="normal" text-decoration="normal" x="435.5902425663578" y="390.7650916542193" text-anchor="middle">15</text></g><g class="dcg-svg-axis-value"><text fill="none" stroke="#ffffff" font-family="Arial" font-size="17px" font-style="normal" font-weight="normal" text-decoration="normal" x="563.8278983607705" y="390.7650916542193" text-anchor="middle" stroke-miterlimit="2" stroke-width="3" stroke-dasharray="">20</text><text fill="#000000" stroke="none" font-family="Arial" font-size="17px" font-style="normal" font-weight="normal" text-decoration="normal" x="563.8278983607705" y="390.7650916542193" text-anchor="middle">20</text></g><g class="dcg-svg-axis-value"><text fill="none" stroke="#ffffff" font-family="Arial" font-size="17px" font-style="normal" font-weight="normal" text-decoration="normal" x="34.068941786207944" y="288.6837767753266" text-anchor="middle" stroke-miterlimit="2" stroke-width="3" stroke-dasharray="">0.5</text><text fill="#000000" stroke="none" font-family="Arial" font-size="17px" font-style="normal" font-weight="normal" text-decoration="normal" x="34.068941786207944" y="288.6837767753266" text-anchor="middle">0.5</text></g><g class="dcg-svg-axis-value"><text fill="none" stroke="#ffffff" font-family="Arial" font-size="17px" font-style="normal" font-weight="normal" text-decoration="normal" x="41.152275278487" y="200.10246189643382" text-anchor="middle" stroke-miterlimit="2" stroke-width="3" stroke-dasharray="">1</text><text fill="#000000" stroke="none" font-family="Arial" font-size="17px" font-style="normal" font-weight="normal" text-decoration="normal" x="41.152275278487" y="200.10246189643382" text-anchor="middle">1</text></g><g class="dcg-svg-axis-value"><text fill="none" stroke="#ffffff" font-family="Arial" font-size="17px" font-style="normal" font-weight="normal" text-decoration="normal" x="34.068941786207944" y="111.5211470175411" text-anchor="middle" stroke-miterlimit="2" stroke-width="3" stroke-dasharray="">1.5</text><text fill="#000000" stroke="none" font-family="Arial" font-size="17px" font-style="normal" font-weight="normal" text-decoration="normal" x="34.068941786207944" y="111.5211470175411" text-anchor="middle">1.5</text></g><g class="dcg-svg-axis-value"><text fill="none" stroke="#ffffff" font-family="Arial" font-size="17px" font-style="normal" font-weight="normal" text-decoration="normal" x="41.152275278487" y="22.939832138648377" text-anchor="middle" stroke-miterlimit="2" stroke-width="3" stroke-dasharray="">2</text><text fill="#000000" stroke="none" font-family="Arial" font-size="17px" font-style="normal" font-weight="normal" text-decoration="normal" x="41.152275278487" y="22.939832138648377" text-anchor="middle">2</text></g></g></g></g><g id="expressions-c9ca139c"><g id="sketch-c9ca139c"><title/><path fill="#c74440" stroke="none" paint-order="stroke fill markers" d="" fill-opacity="0.4"/><g><path fill="none" stroke="#c74440" class="dcg-svg-curve" paint-order="fill stroke markers" d=" M 50.877275183119565 18.315832138648375 L 50.877275183119565 18.315832138648375 L 76.52480634200211 211.54756828579403 L 102.17233750088467 232.84696019770757 L 127.81986865976722 246.90876618706454 L 153.46739981864977 257.20081241937066 L 179.1149309775323 265.19827345056154 L 204.76246213641488 271.66443521135886 L 230.40999329529743 277.0435460572378 L 256.05752445418 281.6156895090553 L 281.70505561306254 285.568064630907 L 307.3525867719451 289.03151170799174 L 333.0001179308276 292.10078077452135 L 358.64764908971017 294.8464959623358 L 384.2951802485927 297.3225765923763 L 409.94271140747526 299.57103135964724 L 435.5902425663578 301.62516281033754 L 461.23777372524034 303.5117722250911 L 486.8853048841229 305.25271508755736 L 512.5328360430054 306.8660225579206 L 538.180367201888 308.3667256706822 L 563.8278983607705 309.76747143001455 L 589.4754295196531 311.0789903848813 L 606.5 311.8964249805874" stroke-linecap="round" stroke-linejoin="round" stroke-miterlimit="10" stroke-width="3.5" stroke-dasharray=""/></g><path fill="#c74440" stroke="none" class="dcg-svg-point" paint-order="stroke fill markers" d=" M 56.127275183119565 18.315832138648375 A 5.25 5.25 0 1 1 56.127272558119785 18.310582139523373 Z"/><path fill="#c74440" stroke="none" class="dcg-svg-point" paint-order="stroke fill markers" d=" M 81.77480634200211 211.54756828579403 A 5.25 5.25 0 1 1 81.77480371700233 211.54231828666903 Z"/><path fill="#c74440" stroke="none" class="dcg-svg-point" paint-order="stroke fill markers" d=" M 107.42233750088467 232.84696019770757 A 5.25 5.25 0 1 1 107.42233487588489 232.84171019858258 Z"/><path fill="#c74440" stroke="none" class="dcg-svg-point" paint-order="stroke fill markers" d=" M 133.06986865976722 246.90876618706454 A 5.25 5.25 0 1 1 133.06986603476744 246.90351618793954 Z"/><path fill="#c74440" stroke="none" class="dcg-svg-point" paint-order="stroke fill markers" d=" M 158.71739981864977 257.20081241937066 A 5.25 5.25 0 1 1 158.71739719365 257.19556242024566 Z"/><path fill="#c74440" stroke="none" class="dcg-svg-point" paint-order="stroke fill markers" d=" M 184.3649309775323 265.19827345056154 A 5.25 5.25 0 1 1 184.36492835253253 265.19302345143655 Z"/><path fill="#c74440" stroke="none" class="dcg-svg-point" paint-order="stroke fill markers" d=" M 210.01246213641488 271.66443521135886 A 5.25 5.25 0 1 1 210.0124595114151 271.65918521223387 Z"/><path fill="#c74440" stroke="none" class="dcg-svg-point" paint-order="stroke fill markers" d=" M 235.65999329529743 277.0435460572378 A 5.25 5.25 0 1 1 235.65999067029765 277.0382960581128 Z"/><path fill="#c74440" stroke="none" class="dcg-svg-point" paint-order="stroke fill markers" d=" M 261.30752445418 281.6156895090553 A 5.25 5.25 0 1 1 261.3075218291802 281.6104395099303 Z"/><path fill="#c74440" stroke="none" class="dcg-svg-point" paint-order="stroke fill markers" d=" M 286.95505561306254 285.568064630907 A 5.25 5.25 0 1 1 286.95505298806273 285.562814631782 Z"/><path fill="#c74440" stroke="none" class="dcg-svg-point" paint-order="stroke fill markers" d=" M 312.6025867719451 289.03151170799174 A 5.25 5.25 0 1 1 312.6025841469453 289.02626170886674 Z"/><path fill="#c74440" stroke="none" class="dcg-svg-point" paint-order="stroke fill markers" d=" M 338.2501179308276 292.10078077452135 A 5.25 5.25 0 1 1 338.2501153058278 292.09553077539636 Z"/><path fill="#c74440" stroke="none" class="dcg-svg-point" paint-order="stroke fill markers" d=" M 363.89764908971017 294.8464959623358 A 5.25 5.25 0 1 1 363.89764646471036 294.8412459632108 Z"/><path fill="#c74440" stroke="none" class="dcg-svg-point" paint-order="stroke fill markers" d=" M 389.5451802485927 297.3225765923763 A 5.25 5.25 0 1 1 389.5451776235929 297.3173265932513 Z"/><path fill="#c74440" stroke="none" class="dcg-svg-point" paint-order="stroke fill markers" d=" M 415.19271140747526 299.57103135964724 A 5.25 5.25 0 1 1 415.19270878247545 299.56578136052224 Z"/><path fill="#c74440" stroke="none" class="dcg-svg-point" paint-order="stroke fill markers" d=" M 440.8402425663578 301.62516281033754 A 5.25 5.25 0 1 1 440.840239941358 301.61991281121254 Z"/><path fill="#c74440" stroke="none" class="dcg-svg-point" paint-order="stroke fill markers" d=" M 466.48777372524034 303.5117722250911 A 5.25 5.25 0 1 1 466.48777110024054 303.5065222259661 Z"/><path fill="#c74440" stroke="none" class="dcg-svg-point" paint-order="stroke fill markers" d=" M 492.1353048841229 305.25271508755736 A 5.25 5.25 0 1 1 492.1353022591231 305.24746508843236 Z"/><path fill="#c74440" stroke="none" class="dcg-svg-point" paint-order="stroke fill markers" d=" M 517.7828360430054 306.8660225579206 A 5.25 5.25 0 1 1 517.7828334180057 306.8607725587956 Z"/><path fill="#c74440" stroke="none" class="dcg-svg-point" paint-order="stroke fill markers" d=" M 543.430367201888 308.3667256706822 A 5.25 5.25 0 1 1 543.4303645768882 308.3614756715572 Z"/><path fill="#c74440" stroke="none" class="dcg-svg-point" paint-order="stroke fill markers" d=" M 569.0778983607705 309.76747143001455 A 5.25 5.25 0 1 1 569.0778957357708 309.76222143088955 Z"/><path fill="#c74440" stroke="none" class="dcg-svg-point" paint-order="stroke fill markers" d=" M 594.7254295196531 311.0789903848813 A 5.25 5.25 0 1 1 594.7254268946533 311.0737403857563 Z"/><path fill="#c74440" stroke="none" class="dcg-svg-point" paint-order="stroke fill markers" d=" M 620.3729606785356 312.3104563585999 A 5.25 5.25 0 1 1 620.3729580535359 312.3052063594749 Z"/></g></g><g id="labels-c9ca139c"/><g id="labels-c9ca139c"/></g></svg>