<?xml version='1.0' encoding='UTF-8' standalone='no'?>
<svg viewBox="0 0 576 432" xmlns="http://www.w3.org/2000/svg" xmlns:xlink="http://www.w3.org/1999/xlink" height="432pt" width="576pt">
 <title>gl2ps_renderer figure</title>
 <desc>
Creator: GL2PS 1.4.0, (C) 1999-2017 C. Geuzaine
For: Octave
CreationDate: Mon Jul 21 14:05:06 2025
</desc>
 <defs/>
 <polygon points="0,0 576,0 576,432 0,432" fill="#ffffff"/>
 <g>
  <polygon points="0,432 576,432 576,0 0,0" fill="#ffffff" shape-rendering="crispEdges"/>
  <clipPath id="cp00576432">
   <polygon points="0,432 576,432 576,0 0,0"/>
  </clipPath>
  <g clip-path="url(#cp00576432)">
   <polygon points="74.8799,384.48 521.28,384.48 521.28,32.3999 74.8799,32.3999" fill="#ffffff" shape-rendering="crispEdges"/>
   <polyline stroke-linejoin="miter" stroke-opacity="0.15" stroke-dasharray="16,0" stroke-width="0.5" stroke="#262626" stroke-linecap="butt" points="74.8799,384.48 74.8799,32.3999" fill="none"/>
   <polyline stroke-linejoin="miter" stroke-opacity="0.15" stroke-dasharray="16,0" stroke-width="0.5" stroke="#262626" stroke-linecap="butt" points="186.48,384.48 186.48,32.3999" fill="none"/>
   <polyline stroke-linejoin="miter" stroke-opacity="0.15" stroke-dasharray="16,0" stroke-width="0.5" stroke="#262626" stroke-linecap="butt" points="298.08,384.48 298.08,32.3999" fill="none"/>
   <polyline stroke-linejoin="miter" stroke-opacity="0.15" stroke-dasharray="16,0" stroke-width="0.5" stroke="#262626" stroke-linecap="butt" points="409.68,384.48 409.68,32.3999" fill="none"/>
   <polyline stroke-linejoin="miter" stroke-opacity="0.15" stroke-dasharray="16,0" stroke-width="0.5" stroke="#262626" stroke-linecap="butt" points="521.28,384.48 521.28,32.3999" fill="none"/>
   <polyline stroke-linejoin="miter" stroke-width="0.5" stroke="#262626" stroke-linecap="butt" points="74.8799,384.48 74.8799,380.015" fill="none"/>
   <polyline stroke-linejoin="miter" stroke-width="0.5" stroke="#262626" stroke-linecap="butt" points="74.8799,32.3999 74.8799,36.8652" fill="none"/>
   <polyline stroke-linejoin="miter" stroke-width="0.5" stroke="#262626" stroke-linecap="butt" points="186.48,384.48 186.48,380.015" fill="none"/>
   <polyline stroke-linejoin="miter" stroke-width="0.5" stroke="#262626" stroke-linecap="butt" points="186.48,32.3999 186.48,36.8652" fill="none"/>
   <polyline stroke-linejoin="miter" stroke-width="0.5" stroke="#262626" stroke-linecap="butt" points="298.08,384.48 298.08,380.015" fill="none"/>
   <polyline stroke-linejoin="miter" stroke-width="0.5" stroke="#262626" stroke-linecap="butt" points="298.08,32.3999 298.08,36.8652" fill="none"/>
   <polyline stroke-linejoin="miter" stroke-width="0.5" stroke="#262626" stroke-linecap="butt" points="409.68,384.48 409.68,380.015" fill="none"/>
   <polyline stroke-linejoin="miter" stroke-width="0.5" stroke="#262626" stroke-linecap="butt" points="409.68,32.3999 409.68,36.8652" fill="none"/>
   <polyline stroke-linejoin="miter" stroke-width="0.5" stroke="#262626" stroke-linecap="butt" points="521.28,384.48 521.28,380.015" fill="none"/>
   <polyline stroke-linejoin="miter" stroke-width="0.5" stroke="#262626" stroke-linecap="butt" points="521.28,32.3999 521.28,36.8652" fill="none"/>
   <text font-weight="normal" font-family="FreeSans" font-size="10" font-style="normal" xml:space="preserve" transform="translate(71.88,399.982) rotate(-0,3,-8)">
    <tspan y="-0" x="0 " fill="rgb(38,38,38)">4</tspan>
   </text>
   <text font-weight="normal" font-family="FreeSans" font-size="10" font-style="normal" xml:space="preserve" transform="translate(183.48,399.982) rotate(-0,3,-8)">
    <tspan y="-0" x="0 " fill="rgb(38,38,38)">5</tspan>
   </text>
   <text font-weight="normal" font-family="FreeSans" font-size="10" font-style="normal" xml:space="preserve" transform="translate(295.08,399.982) rotate(-0,3,-8)">
    <tspan y="-0" x="0 " fill="rgb(38,38,38)">6</tspan>
   </text>
   <text font-weight="normal" font-family="FreeSans" font-size="10" font-style="normal" xml:space="preserve" transform="translate(406.68,399.982) rotate(-0,3,-8)">
    <tspan y="-0" x="0 " fill="rgb(38,38,38)">7</tspan>
   </text>
   <text font-weight="normal" font-family="FreeSans" font-size="10" font-style="normal" xml:space="preserve" transform="translate(518.28,399.982) rotate(-0,3,-8)">
    <tspan y="-0" x="0 " fill="rgb(38,38,38)">8</tspan>
   </text>
   <polyline stroke-linejoin="miter" stroke-opacity="0.15" stroke-dasharray="16,0" stroke-width="0.5" stroke="#262626" stroke-linecap="butt" points="74.8799,384.48 521.28,384.48" fill="none"/>
   <polyline stroke-linejoin="miter" stroke-opacity="0.15" stroke-dasharray="16,0" stroke-width="0.5" stroke="#262626" stroke-linecap="butt" points="74.8799,325.8 521.28,325.8" fill="none"/>
   <polyline stroke-linejoin="miter" stroke-opacity="0.15" stroke-dasharray="16,0" stroke-width="0.5" stroke="#262626" stroke-linecap="butt" points="74.8799,267.12 521.28,267.12" fill="none"/>
   <polyline stroke-linejoin="miter" stroke-opacity="0.15" stroke-dasharray="16,0" stroke-width="0.5" stroke="#262626" stroke-linecap="butt" points="74.8799,208.44 521.28,208.44" fill="none"/>
   <polyline stroke-linejoin="miter" stroke-opacity="0.15" stroke-dasharray="16,0" stroke-width="0.5" stroke="#262626" stroke-linecap="butt" points="74.8799,149.76 521.28,149.76" fill="none"/>
   <polyline stroke-linejoin="miter" stroke-opacity="0.15" stroke-dasharray="16,0" stroke-width="0.5" stroke="#262626" stroke-linecap="butt" points="74.8799,91.0801 521.28,91.0801" fill="none"/>
   <polyline stroke-linejoin="miter" stroke-opacity="0.15" stroke-dasharray="16,0" stroke-width="0.5" stroke="#262626" stroke-linecap="butt" points="74.8799,32.3999 521.28,32.3999" fill="none"/>
   <polyline stroke-linejoin="miter" stroke-width="0.5" stroke="#262626" stroke-linecap="butt" points="74.8799,384.48 79.3481,384.48" fill="none"/>
   <polyline stroke-linejoin="miter" stroke-width="0.5" stroke="#262626" stroke-linecap="butt" points="521.28,384.48 516.812,384.48" fill="none"/>
   <polyline stroke-linejoin="miter" stroke-width="0.5" stroke="#262626" stroke-linecap="butt" points="74.8799,325.8 79.3481,325.8" fill="none"/>
   <polyline stroke-linejoin="miter" stroke-width="0.5" stroke="#262626" stroke-linecap="butt" points="521.28,325.8 516.812,325.8" fill="none"/>
   <polyline stroke-linejoin="miter" stroke-width="0.5" stroke="#262626" stroke-linecap="butt" points="74.8799,267.12 79.3481,267.12" fill="none"/>
   <polyline stroke-linejoin="miter" stroke-width="0.5" stroke="#262626" stroke-linecap="butt" points="521.28,267.12 516.812,267.12" fill="none"/>
   <polyline stroke-linejoin="miter" stroke-width="0.5" stroke="#262626" stroke-linecap="butt" points="74.8799,208.44 79.3481,208.44" fill="none"/>
   <polyline stroke-linejoin="miter" stroke-width="0.5" stroke="#262626" stroke-linecap="butt" points="521.28,208.44 516.812,208.44" fill="none"/>
   <polyline stroke-linejoin="miter" stroke-width="0.5" stroke="#262626" stroke-linecap="butt" points="74.8799,149.76 79.3481,149.76" fill="none"/>
   <polyline stroke-linejoin="miter" stroke-width="0.5" stroke="#262626" stroke-linecap="butt" points="521.28,149.76 516.812,149.76" fill="none"/>
   <polyline stroke-linejoin="miter" stroke-width="0.5" stroke="#262626" stroke-linecap="butt" points="74.8799,91.0801 79.3481,91.0801" fill="none"/>
   <polyline stroke-linejoin="miter" stroke-width="0.5" stroke="#262626" stroke-linecap="butt" points="521.28,91.0801 516.812,91.0801" fill="none"/>
   <polyline stroke-linejoin="miter" stroke-width="0.5" stroke="#262626" stroke-linecap="butt" points="74.8799,32.3999 79.3481,32.3999" fill="none"/>
   <polyline stroke-linejoin="miter" stroke-width="0.5" stroke="#262626" stroke-linecap="butt" points="521.28,32.3999 516.812,32.3999" fill="none"/>
   <text font-weight="normal" font-family="FreeSans" font-size="10" font-style="normal" xml:space="preserve" transform="translate(57.8755,388.48) rotate(-0,12,-4)">
    <tspan y="-0" x="0 6 " fill="rgb(38,38,38)">60</tspan>
   </text>
   <text font-weight="normal" font-family="FreeSans" font-size="10" font-style="normal" xml:space="preserve" transform="translate(57.8755,329.8) rotate(-0,12,-4)">
    <tspan y="-0" x="0 6 " fill="rgb(38,38,38)">80</tspan>
   </text>
   <text font-weight="normal" font-family="FreeSans" font-size="10" font-style="normal" xml:space="preserve" transform="translate(51.8755,271.12) rotate(-0,18,-4)">
    <tspan y="-0" x="0 6 12 " fill="rgb(38,38,38)">100</tspan>
   </text>
   <text font-weight="normal" font-family="FreeSans" font-size="10" font-style="normal" xml:space="preserve" transform="translate(51.8755,212.44) rotate(-0,18,-4)">
    <tspan y="-0" x="0 6 12 " fill="rgb(38,38,38)">120</tspan>
   </text>
   <text font-weight="normal" font-family="FreeSans" font-size="10" font-style="normal" xml:space="preserve" transform="translate(51.8755,153.76) rotate(-0,18,-4)">
    <tspan y="-0" x="0 6 12 " fill="rgb(38,38,38)">140</tspan>
   </text>
   <text font-weight="normal" font-family="FreeSans" font-size="10" font-style="normal" xml:space="preserve" transform="translate(51.8755,95.08) rotate(-0,18,-4)">
    <tspan y="-0" x="0 6 12 " fill="rgb(38,38,38)">160</tspan>
   </text>
   <text font-weight="normal" font-family="FreeSans" font-size="10" font-style="normal" xml:space="preserve" transform="translate(51.8755,36.4) rotate(-0,18,-4)">
    <tspan y="-0" x="0 6 12 " fill="rgb(38,38,38)">180</tspan>
   </text>
   <polyline stroke-linejoin="miter" stroke-dasharray="16,0" stroke-width="0.5" stroke="#262626" stroke-linecap="square" points="74.8799,384.48 521.28,384.48" fill="none"/>
   <polyline stroke-linejoin="miter" stroke-dasharray="16,0" stroke-width="0.5" stroke="#262626" stroke-linecap="square" points="74.8799,32.3999 521.28,32.3999" fill="none"/>
   <polyline stroke-linejoin="miter" stroke-dasharray="16,0" stroke-width="0.5" stroke="#262626" stroke-linecap="square" points="74.8799,384.48 74.8799,32.3999" fill="none"/>
   <polyline stroke-linejoin="miter" stroke-dasharray="16,0" stroke-width="0.5" stroke="#262626" stroke-linecap="square" points="521.28,384.48 521.28,32.3999" fill="none"/>
   <text font-weight="normal" font-family="FreeSans" font-size="11" font-style="normal" xml:space="preserve" transform="translate(252.58,414.982) rotate(-0,45.5,-10)">
    <tspan y="-1" x="0 7 13 19 23 28 31 37 40 43 50 56 62 68 74 77 79 85 " fill="rgb(38,38,38)">Years of Education</tspan>
   </text>
   <text font-weight="normal" font-family="FreeSans" font-size="11" font-style="normal" xml:space="preserve" transform="translate(28.8755,208.44) rotate(-90,18,0)">
    <tspan y="-0" x="0 3 9 15 21 30 " fill="rgb(38,38,38)">Income</tspan>
   </text>
   <polyline stroke-linejoin="round" stroke-width="2" stroke="#ff0000" stroke-linecap="butt" points="74.8799,280.264 74.8799,280.264 74.8799,280.264 74.8799,280.264 74.8799,280.264 186.48,260.514 186.48,260.514 186.48,260.514 186.48,260.514 186.48,260.514 298.08,240.764 298.08,240.764 298.08,240.764 298.08,240.764 298.08,240.764 521.28,201.264 521.28,201.264 521.28,201.264 521.28,201.264 521.28,201.264" fill="none"/>
   <polyline stroke-linejoin="miter" stroke-width="2" stroke="#0071bc" stroke-linecap="square" points="70.8799,351.14 78.8799,359.14" fill="none"/>
   <polyline stroke-linejoin="miter" stroke-width="2" stroke="#0071bc" stroke-linecap="square" points="70.8799,359.14 78.8799,351.14" fill="none"/>
   <polyline stroke-linejoin="miter" stroke-width="2" stroke="#0071bc" stroke-linecap="square" points="70.8799,321.8 78.8799,329.8" fill="none"/>
   <polyline stroke-linejoin="miter" stroke-width="2" stroke="#0071bc" stroke-linecap="square" points="70.8799,329.8 78.8799,321.8" fill="none"/>
   <polyline stroke-linejoin="miter" stroke-width="2" stroke="#0071bc" stroke-linecap="square" points="70.8799,263.12 78.8799,271.12" fill="none"/>
   <polyline stroke-linejoin="miter" stroke-width="2" stroke="#0071bc" stroke-linecap="square" points="70.8799,271.12 78.8799,263.12" fill="none"/>
   <polyline stroke-linejoin="miter" stroke-width="2" stroke="#0071bc" stroke-linecap="square" points="70.8799,233.78 78.8799,241.78" fill="none"/>
   <polyline stroke-linejoin="miter" stroke-width="2" stroke="#0071bc" stroke-linecap="square" points="70.8799,241.78 78.8799,233.78" fill="none"/>
   <polyline stroke-linejoin="miter" stroke-width="2" stroke="#0071bc" stroke-linecap="square" points="70.8799,175.1 78.8799,183.1" fill="none"/>
   <polyline stroke-linejoin="miter" stroke-width="2" stroke="#0071bc" stroke-linecap="square" points="70.8799,183.1 78.8799,175.1" fill="none"/>
   <polyline stroke-linejoin="miter" stroke-width="2" stroke="#0071bc" stroke-linecap="square" points="182.48,342.338 190.48,350.338" fill="none"/>
   <polyline stroke-linejoin="miter" stroke-width="2" stroke="#0071bc" stroke-linecap="square" points="182.48,350.338 190.48,342.338" fill="none"/>
   <polyline stroke-linejoin="miter" stroke-width="2" stroke="#0071bc" stroke-linecap="square" points="182.48,315.932 190.48,323.932" fill="none"/>
   <polyline stroke-linejoin="miter" stroke-width="2" stroke="#0071bc" stroke-linecap="square" points="182.48,323.932 190.48,315.932" fill="none"/>
   <polyline stroke-linejoin="miter" stroke-width="2" stroke="#0071bc" stroke-linecap="square" points="182.48,251.384 190.48,259.384" fill="none"/>
   <polyline stroke-linejoin="miter" stroke-width="2" stroke="#0071bc" stroke-linecap="square" points="182.48,259.384 190.48,251.384" fill="none"/>
   <polyline stroke-linejoin="miter" stroke-width="2" stroke="#0071bc" stroke-linecap="square" points="182.48,227.912 190.48,235.912" fill="none"/>
   <polyline stroke-linejoin="miter" stroke-width="2" stroke="#0071bc" stroke-linecap="square" points="182.48,235.912 190.48,227.912" fill="none"/>
   <polyline stroke-linejoin="miter" stroke-width="2" stroke="#0071bc" stroke-linecap="square" points="182.48,172.166 190.48,180.166" fill="none"/>
   <polyline stroke-linejoin="miter" stroke-width="2" stroke="#0071bc" stroke-linecap="square" points="182.48,180.166 190.48,172.166" fill="none"/>
   <polyline stroke-linejoin="miter" stroke-width="2" stroke="#0071bc" stroke-linecap="square" points="294.08,339.404 302.08,347.404" fill="none"/>
   <polyline stroke-linejoin="miter" stroke-width="2" stroke="#0071bc" stroke-linecap="square" points="294.08,347.404 302.08,339.404" fill="none"/>
   <polyline stroke-linejoin="miter" stroke-width="2" stroke="#0071bc" stroke-linecap="square" points="294.08,307.13 302.08,315.13" fill="none"/>
   <polyline stroke-linejoin="miter" stroke-width="2" stroke="#0071bc" stroke-linecap="square" points="294.08,315.13 302.08,307.13" fill="none"/>
   <polyline stroke-linejoin="miter" stroke-width="2" stroke="#0071bc" stroke-linecap="square" points="294.08,219.11 302.08,227.11" fill="none"/>
   <polyline stroke-linejoin="miter" stroke-width="2" stroke="#0071bc" stroke-linecap="square" points="294.08,227.11 302.08,219.11" fill="none"/>
   <polyline stroke-linejoin="miter" stroke-width="2" stroke="#0071bc" stroke-linecap="square" points="294.08,204.44 302.08,212.44" fill="none"/>
   <polyline stroke-linejoin="miter" stroke-width="2" stroke="#0071bc" stroke-linecap="square" points="294.08,212.44 302.08,204.44" fill="none"/>
   <polyline stroke-linejoin="miter" stroke-width="2" stroke="#0071bc" stroke-linecap="square" points="294.08,145.76 302.08,153.76" fill="none"/>
   <polyline stroke-linejoin="miter" stroke-width="2" stroke="#0071bc" stroke-linecap="square" points="294.08,153.76 302.08,145.76" fill="none"/>
   <polyline stroke-linejoin="miter" stroke-width="2" stroke="#0071bc" stroke-linecap="square" points="517.28,321.8 525.28,329.8" fill="none"/>
   <polyline stroke-linejoin="miter" stroke-width="2" stroke="#0071bc" stroke-linecap="square" points="517.28,329.8 525.28,321.8" fill="none"/>
   <polyline stroke-linejoin="miter" stroke-width="2" stroke="#0071bc" stroke-linecap="square" points="517.28,277.79 525.28,285.79" fill="none"/>
   <polyline stroke-linejoin="miter" stroke-width="2" stroke="#0071bc" stroke-linecap="square" points="517.28,285.79 525.28,277.79" fill="none"/>
   <polyline stroke-linejoin="miter" stroke-width="2" stroke="#0071bc" stroke-linecap="square" points="517.28,189.77 525.28,197.77" fill="none"/>
   <polyline stroke-linejoin="miter" stroke-width="2" stroke="#0071bc" stroke-linecap="square" points="517.28,197.77 525.28,189.77" fill="none"/>
   <polyline stroke-linejoin="miter" stroke-width="2" stroke="#0071bc" stroke-linecap="square" points="517.28,145.76 525.28,153.76" fill="none"/>
   <polyline stroke-linejoin="miter" stroke-width="2" stroke="#0071bc" stroke-linecap="square" points="517.28,153.76 525.28,145.76" fill="none"/>
   <polyline stroke-linejoin="miter" stroke-width="2" stroke="#0071bc" stroke-linecap="square" points="517.28,28.3999 525.28,36.3999" fill="none"/>
   <polyline stroke-linejoin="miter" stroke-width="2" stroke="#0071bc" stroke-linecap="square" points="517.28,36.3999 525.28,28.3999" fill="none"/>
  </g>
 </g>
</svg>
