<?xml version='1.0' encoding='UTF-8' standalone='no'?>
<svg xmlns="http://www.w3.org/2000/svg" xmlns:xlink="http://www.w3.org/1999/xlink" height="432pt" width="576pt" viewBox="0 0 576 432">
 <title>gl2ps_renderer figure</title>
 <desc>
Creator: GL2PS 1.4.0, (C) 1999-2017 C. Geuzaine
For: Octave
CreationDate: Mon Jul 21 14:05:07 2025
</desc>
 <defs/>
 <polygon points="0,0 576,0 576,432 0,432" fill="#ffffff"/>
 <g>
  <polygon points="0,432 576,432 576,0 0,0" shape-rendering="crispEdges" fill="#ffffff"/>
  <clipPath id="cp00576432">
   <polygon points="0,432 576,432 576,0 0,0"/>
  </clipPath>
  <g clip-path="url(#cp00576432)">
   <polygon shape-rendering="crispEdges" points="74.8799,384.48 521.28,384.48 521.28,32.3999 74.8799,32.3999" fill="#ffffff"/>
   <polyline stroke-opacity="0.15" stroke="#262626" stroke-dasharray="16,0" stroke-width="0.5" points="74.8799,384.48 74.8799,32.3999" fill="none" stroke-linecap="butt" stroke-linejoin="miter"/>
   <polyline stroke-opacity="0.15" stroke="#262626" stroke-dasharray="16,0" stroke-width="0.5" points="164.16,384.48 164.16,32.3999" fill="none" stroke-linecap="butt" stroke-linejoin="miter"/>
   <polyline stroke-opacity="0.15" stroke="#262626" stroke-dasharray="16,0" stroke-width="0.5" points="253.44,384.48 253.44,32.3999" fill="none" stroke-linecap="butt" stroke-linejoin="miter"/>
   <polyline stroke-opacity="0.15" stroke="#262626" stroke-dasharray="16,0" stroke-width="0.5" points="342.72,384.48 342.72,32.3999" fill="none" stroke-linecap="butt" stroke-linejoin="miter"/>
   <polyline stroke-opacity="0.15" stroke="#262626" stroke-dasharray="16,0" stroke-width="0.5" points="432,384.48 432,32.3999" fill="none" stroke-linecap="butt" stroke-linejoin="miter"/>
   <polyline stroke-opacity="0.15" stroke="#262626" stroke-dasharray="16,0" stroke-width="0.5" points="521.28,384.48 521.28,32.3999" fill="none" stroke-linecap="butt" stroke-linejoin="miter"/>
   <polyline stroke="#262626" stroke-width="0.5" points="74.8799,384.48 74.8799,380.015" fill="none" stroke-linecap="butt" stroke-linejoin="miter"/>
   <polyline stroke="#262626" stroke-width="0.5" points="74.8799,32.3999 74.8799,36.8652" fill="none" stroke-linecap="butt" stroke-linejoin="miter"/>
   <polyline stroke="#262626" stroke-width="0.5" points="164.16,384.48 164.16,380.015" fill="none" stroke-linecap="butt" stroke-linejoin="miter"/>
   <polyline stroke="#262626" stroke-width="0.5" points="164.16,32.3999 164.16,36.8652" fill="none" stroke-linecap="butt" stroke-linejoin="miter"/>
   <polyline stroke="#262626" stroke-width="0.5" points="253.44,384.48 253.44,380.015" fill="none" stroke-linecap="butt" stroke-linejoin="miter"/>
   <polyline stroke="#262626" stroke-width="0.5" points="253.44,32.3999 253.44,36.8652" fill="none" stroke-linecap="butt" stroke-linejoin="miter"/>
   <polyline stroke="#262626" stroke-width="0.5" points="342.72,384.48 342.72,380.015" fill="none" stroke-linecap="butt" stroke-linejoin="miter"/>
   <polyline stroke="#262626" stroke-width="0.5" points="342.72,32.3999 342.72,36.8652" fill="none" stroke-linecap="butt" stroke-linejoin="miter"/>
   <polyline stroke="#262626" stroke-width="0.5" points="432,384.48 432,380.015" fill="none" stroke-linecap="butt" stroke-linejoin="miter"/>
   <polyline stroke="#262626" stroke-width="0.5" points="432,32.3999 432,36.8652" fill="none" stroke-linecap="butt" stroke-linejoin="miter"/>
   <polyline stroke="#262626" stroke-width="0.5" points="521.28,384.48 521.28,380.015" fill="none" stroke-linecap="butt" stroke-linejoin="miter"/>
   <polyline stroke="#262626" stroke-width="0.5" points="521.28,32.3999 521.28,36.8652" fill="none" stroke-linecap="butt" stroke-linejoin="miter"/>
   <text font-family="FreeSans" font-style="normal" font-size="10" font-weight="normal" xml:space="preserve" transform="translate(71.88,399.982) rotate(-0,3,-8)">
    <tspan y="-0" x="0 " fill="rgb(38,38,38)">0</tspan>
   </text>
   <text font-family="FreeSans" font-style="normal" font-size="10" font-weight="normal" xml:space="preserve" transform="translate(161.16,399.982) rotate(-0,3,-8)">
    <tspan y="-0" x="0 " fill="rgb(38,38,38)">5</tspan>
   </text>
   <text font-family="FreeSans" font-style="normal" font-size="10" font-weight="normal" xml:space="preserve" transform="translate(247.44,399.982) rotate(-0,6,-8)">
    <tspan y="-0" x="0 6 " fill="rgb(38,38,38)">10</tspan>
   </text>
   <text font-family="FreeSans" font-style="normal" font-size="10" font-weight="normal" xml:space="preserve" transform="translate(336.72,399.982) rotate(-0,6,-8)">
    <tspan y="-0" x="0 6 " fill="rgb(38,38,38)">15</tspan>
   </text>
   <text font-family="FreeSans" font-style="normal" font-size="10" font-weight="normal" xml:space="preserve" transform="translate(426,399.982) rotate(-0,6,-8)">
    <tspan y="-0" x="0 6 " fill="rgb(38,38,38)">20</tspan>
   </text>
   <text font-family="FreeSans" font-style="normal" font-size="10" font-weight="normal" xml:space="preserve" transform="translate(515.28,399.982) rotate(-0,6,-8)">
    <tspan y="-0" x="0 6 " fill="rgb(38,38,38)">25</tspan>
   </text>
   <polyline stroke-opacity="0.15" stroke="#262626" stroke-dasharray="16,0" stroke-width="0.5" points="74.8799,384.48 521.28,384.48" fill="none" stroke-linecap="butt" stroke-linejoin="miter"/>
   <polyline stroke-opacity="0.15" stroke="#262626" stroke-dasharray="16,0" stroke-width="0.5" points="74.8799,325.8 521.28,325.8" fill="none" stroke-linecap="butt" stroke-linejoin="miter"/>
   <polyline stroke-opacity="0.15" stroke="#262626" stroke-dasharray="16,0" stroke-width="0.5" points="74.8799,267.12 521.28,267.12" fill="none" stroke-linecap="butt" stroke-linejoin="miter"/>
   <polyline stroke-opacity="0.15" stroke="#262626" stroke-dasharray="16,0" stroke-width="0.5" points="74.8799,208.44 521.28,208.44" fill="none" stroke-linecap="butt" stroke-linejoin="miter"/>
   <polyline stroke-opacity="0.15" stroke="#262626" stroke-dasharray="16,0" stroke-width="0.5" points="74.8799,149.76 521.28,149.76" fill="none" stroke-linecap="butt" stroke-linejoin="miter"/>
   <polyline stroke-opacity="0.15" stroke="#262626" stroke-dasharray="16,0" stroke-width="0.5" points="74.8799,91.0801 521.28,91.0801" fill="none" stroke-linecap="butt" stroke-linejoin="miter"/>
   <polyline stroke-opacity="0.15" stroke="#262626" stroke-dasharray="16,0" stroke-width="0.5" points="74.8799,32.3999 521.28,32.3999" fill="none" stroke-linecap="butt" stroke-linejoin="miter"/>
   <polyline stroke="#262626" stroke-width="0.5" points="74.8799,384.48 79.3481,384.48" fill="none" stroke-linecap="butt" stroke-linejoin="miter"/>
   <polyline stroke="#262626" stroke-width="0.5" points="521.28,384.48 516.812,384.48" fill="none" stroke-linecap="butt" stroke-linejoin="miter"/>
   <polyline stroke="#262626" stroke-width="0.5" points="74.8799,325.8 79.3481,325.8" fill="none" stroke-linecap="butt" stroke-linejoin="miter"/>
   <polyline stroke="#262626" stroke-width="0.5" points="521.28,325.8 516.812,325.8" fill="none" stroke-linecap="butt" stroke-linejoin="miter"/>
   <polyline stroke="#262626" stroke-width="0.5" points="74.8799,267.12 79.3481,267.12" fill="none" stroke-linecap="butt" stroke-linejoin="miter"/>
   <polyline stroke="#262626" stroke-width="0.5" points="521.28,267.12 516.812,267.12" fill="none" stroke-linecap="butt" stroke-linejoin="miter"/>
   <polyline stroke="#262626" stroke-width="0.5" points="74.8799,208.44 79.3481,208.44" fill="none" stroke-linecap="butt" stroke-linejoin="miter"/>
   <polyline stroke="#262626" stroke-width="0.5" points="521.28,208.44 516.812,208.44" fill="none" stroke-linecap="butt" stroke-linejoin="miter"/>
   <polyline stroke="#262626" stroke-width="0.5" points="74.8799,149.76 79.3481,149.76" fill="none" stroke-linecap="butt" stroke-linejoin="miter"/>
   <polyline stroke="#262626" stroke-width="0.5" points="521.28,149.76 516.812,149.76" fill="none" stroke-linecap="butt" stroke-linejoin="miter"/>
   <polyline stroke="#262626" stroke-width="0.5" points="74.8799,91.0801 79.3481,91.0801" fill="none" stroke-linecap="butt" stroke-linejoin="miter"/>
   <polyline stroke="#262626" stroke-width="0.5" points="521.28,91.0801 516.812,91.0801" fill="none" stroke-linecap="butt" stroke-linejoin="miter"/>
   <polyline stroke="#262626" stroke-width="0.5" points="74.8799,32.3999 79.3481,32.3999" fill="none" stroke-linecap="butt" stroke-linejoin="miter"/>
   <polyline stroke="#262626" stroke-width="0.5" points="521.28,32.3999 516.812,32.3999" fill="none" stroke-linecap="butt" stroke-linejoin="miter"/>
   <text font-family="FreeSans" font-style="normal" font-size="10" font-weight="normal" xml:space="preserve" transform="translate(57.8755,388.48) rotate(-0,12,-4)">
    <tspan y="-0" x="0 6 " fill="rgb(38,38,38)">60</tspan>
   </text>
   <text font-family="FreeSans" font-style="normal" font-size="10" font-weight="normal" xml:space="preserve" transform="translate(57.8755,329.8) rotate(-0,12,-4)">
    <tspan y="-0" x="0 6 " fill="rgb(38,38,38)">80</tspan>
   </text>
   <text font-family="FreeSans" font-style="normal" font-size="10" font-weight="normal" xml:space="preserve" transform="translate(51.8755,271.12) rotate(-0,18,-4)">
    <tspan y="-0" x="0 6 12 " fill="rgb(38,38,38)">100</tspan>
   </text>
   <text font-family="FreeSans" font-style="normal" font-size="10" font-weight="normal" xml:space="preserve" transform="translate(51.8755,212.44) rotate(-0,18,-4)">
    <tspan y="-0" x="0 6 12 " fill="rgb(38,38,38)">120</tspan>
   </text>
   <text font-family="FreeSans" font-style="normal" font-size="10" font-weight="normal" xml:space="preserve" transform="translate(51.8755,153.76) rotate(-0,18,-4)">
    <tspan y="-0" x="0 6 12 " fill="rgb(38,38,38)">140</tspan>
   </text>
   <text font-family="FreeSans" font-style="normal" font-size="10" font-weight="normal" xml:space="preserve" transform="translate(51.8755,95.08) rotate(-0,18,-4)">
    <tspan y="-0" x="0 6 12 " fill="rgb(38,38,38)">160</tspan>
   </text>
   <text font-family="FreeSans" font-style="normal" font-size="10" font-weight="normal" xml:space="preserve" transform="translate(51.8755,36.4) rotate(-0,18,-4)">
    <tspan y="-0" x="0 6 12 " fill="rgb(38,38,38)">180</tspan>
   </text>
   <polyline stroke="#262626" stroke-dasharray="16,0" stroke-width="0.5" points="74.8799,384.48 521.28,384.48" fill="none" stroke-linecap="square" stroke-linejoin="miter"/>
   <polyline stroke="#262626" stroke-dasharray="16,0" stroke-width="0.5" points="74.8799,32.3999 521.28,32.3999" fill="none" stroke-linecap="square" stroke-linejoin="miter"/>
   <polyline stroke="#262626" stroke-dasharray="16,0" stroke-width="0.5" points="74.8799,384.48 74.8799,32.3999" fill="none" stroke-linecap="square" stroke-linejoin="miter"/>
   <polyline stroke="#262626" stroke-dasharray="16,0" stroke-width="0.5" points="521.28,384.48 521.28,32.3999" fill="none" stroke-linecap="square" stroke-linejoin="miter"/>
   <text font-family="FreeSans" font-style="normal" font-size="11" font-weight="normal" xml:space="preserve" transform="translate(277.58,415.982) rotate(-0,20.5,-11)">
    <tspan y="-2" x="0 7 13 19 21 27 31 33 36 " fill="rgb(38,38,38)">Seniority</tspan>
   </text>
   <text font-family="FreeSans" font-style="normal" font-size="11" font-weight="normal" xml:space="preserve" transform="translate(28.8755,208.44) rotate(-90,18,0)">
    <tspan y="-0" x="0 3 9 15 21 30 " fill="rgb(38,38,38)">Income</tspan>
   </text>
   <polyline stroke="#ff0000" stroke-width="2" points="110.592,332.264 146.304,311.53 271.296,238.963 360.576,187.13 467.712,124.93 110.592,332.264 146.304,311.53 253.44,249.33 360.576,187.13 449.856,135.297 92.7358,342.63 146.304,311.53 253.44,249.33 289.152,228.597 414.144,156.03 92.7358,342.63 164.16,301.164 271.296,238.963 342.72,197.497 449.856,135.297" fill="none" stroke-linecap="butt" stroke-linejoin="round"/>
   <polyline stroke="#0071bc" stroke-width="2" points="106.592,351.14 114.592,359.14" fill="none" stroke-linecap="square" stroke-linejoin="miter"/>
   <polyline stroke="#0071bc" stroke-width="2" points="106.592,359.14 114.592,351.14" fill="none" stroke-linecap="square" stroke-linejoin="miter"/>
   <polyline stroke="#0071bc" stroke-width="2" points="142.304,321.8 150.304,329.8" fill="none" stroke-linecap="square" stroke-linejoin="miter"/>
   <polyline stroke="#0071bc" stroke-width="2" points="142.304,329.8 150.304,321.8" fill="none" stroke-linecap="square" stroke-linejoin="miter"/>
   <polyline stroke="#0071bc" stroke-width="2" points="267.296,263.12 275.296,271.12" fill="none" stroke-linecap="square" stroke-linejoin="miter"/>
   <polyline stroke="#0071bc" stroke-width="2" points="267.296,271.12 275.296,263.12" fill="none" stroke-linecap="square" stroke-linejoin="miter"/>
   <polyline stroke="#0071bc" stroke-width="2" points="356.576,233.78 364.576,241.78" fill="none" stroke-linecap="square" stroke-linejoin="miter"/>
   <polyline stroke="#0071bc" stroke-width="2" points="356.576,241.78 364.576,233.78" fill="none" stroke-linecap="square" stroke-linejoin="miter"/>
   <polyline stroke="#0071bc" stroke-width="2" points="463.712,175.1 471.712,183.1" fill="none" stroke-linecap="square" stroke-linejoin="miter"/>
   <polyline stroke="#0071bc" stroke-width="2" points="463.712,183.1 471.712,175.1" fill="none" stroke-linecap="square" stroke-linejoin="miter"/>
   <polyline stroke="#0071bc" stroke-width="2" points="106.592,342.338 114.592,350.338" fill="none" stroke-linecap="square" stroke-linejoin="miter"/>
   <polyline stroke="#0071bc" stroke-width="2" points="106.592,350.338 114.592,342.338" fill="none" stroke-linecap="square" stroke-linejoin="miter"/>
   <polyline stroke="#0071bc" stroke-width="2" points="142.304,315.932 150.304,323.932" fill="none" stroke-linecap="square" stroke-linejoin="miter"/>
   <polyline stroke="#0071bc" stroke-width="2" points="142.304,323.932 150.304,315.932" fill="none" stroke-linecap="square" stroke-linejoin="miter"/>
   <polyline stroke="#0071bc" stroke-width="2" points="249.44,251.384 257.44,259.384" fill="none" stroke-linecap="square" stroke-linejoin="miter"/>
   <polyline stroke="#0071bc" stroke-width="2" points="249.44,259.384 257.44,251.384" fill="none" stroke-linecap="square" stroke-linejoin="miter"/>
   <polyline stroke="#0071bc" stroke-width="2" points="356.576,227.912 364.576,235.912" fill="none" stroke-linecap="square" stroke-linejoin="miter"/>
   <polyline stroke="#0071bc" stroke-width="2" points="356.576,235.912 364.576,227.912" fill="none" stroke-linecap="square" stroke-linejoin="miter"/>
   <polyline stroke="#0071bc" stroke-width="2" points="445.856,172.166 453.856,180.166" fill="none" stroke-linecap="square" stroke-linejoin="miter"/>
   <polyline stroke="#0071bc" stroke-width="2" points="445.856,180.166 453.856,172.166" fill="none" stroke-linecap="square" stroke-linejoin="miter"/>
   <polyline stroke="#0071bc" stroke-width="2" points="88.7358,339.404 96.7358,347.404" fill="none" stroke-linecap="square" stroke-linejoin="miter"/>
   <polyline stroke="#0071bc" stroke-width="2" points="88.7358,347.404 96.7358,339.404" fill="none" stroke-linecap="square" stroke-linejoin="miter"/>
   <polyline stroke="#0071bc" stroke-width="2" points="142.304,307.13 150.304,315.13" fill="none" stroke-linecap="square" stroke-linejoin="miter"/>
   <polyline stroke="#0071bc" stroke-width="2" points="142.304,315.13 150.304,307.13" fill="none" stroke-linecap="square" stroke-linejoin="miter"/>
   <polyline stroke="#0071bc" stroke-width="2" points="249.44,219.11 257.44,227.11" fill="none" stroke-linecap="square" stroke-linejoin="miter"/>
   <polyline stroke="#0071bc" stroke-width="2" points="249.44,227.11 257.44,219.11" fill="none" stroke-linecap="square" stroke-linejoin="miter"/>
   <polyline stroke="#0071bc" stroke-width="2" points="285.152,204.44 293.152,212.44" fill="none" stroke-linecap="square" stroke-linejoin="miter"/>
   <polyline stroke="#0071bc" stroke-width="2" points="285.152,212.44 293.152,204.44" fill="none" stroke-linecap="square" stroke-linejoin="miter"/>
   <polyline stroke="#0071bc" stroke-width="2" points="410.144,145.76 418.144,153.76" fill="none" stroke-linecap="square" stroke-linejoin="miter"/>
   <polyline stroke="#0071bc" stroke-width="2" points="410.144,153.76 418.144,145.76" fill="none" stroke-linecap="square" stroke-linejoin="miter"/>
   <polyline stroke="#0071bc" stroke-width="2" points="88.7358,321.8 96.7358,329.8" fill="none" stroke-linecap="square" stroke-linejoin="miter"/>
   <polyline stroke="#0071bc" stroke-width="2" points="88.7358,329.8 96.7358,321.8" fill="none" stroke-linecap="square" stroke-linejoin="miter"/>
   <polyline stroke="#0071bc" stroke-width="2" points="160.16,277.79 168.16,285.79" fill="none" stroke-linecap="square" stroke-linejoin="miter"/>
   <polyline stroke="#0071bc" stroke-width="2" points="160.16,285.79 168.16,277.79" fill="none" stroke-linecap="square" stroke-linejoin="miter"/>
   <polyline stroke="#0071bc" stroke-width="2" points="267.296,189.77 275.296,197.77" fill="none" stroke-linecap="square" stroke-linejoin="miter"/>
   <polyline stroke="#0071bc" stroke-width="2" points="267.296,197.77 275.296,189.77" fill="none" stroke-linecap="square" stroke-linejoin="miter"/>
   <polyline stroke="#0071bc" stroke-width="2" points="338.72,145.76 346.72,153.76" fill="none" stroke-linecap="square" stroke-linejoin="miter"/>
   <polyline stroke="#0071bc" stroke-width="2" points="338.72,153.76 346.72,145.76" fill="none" stroke-linecap="square" stroke-linejoin="miter"/>
   <polyline stroke="#0071bc" stroke-width="2" points="445.856,28.3999 453.856,36.3999" fill="none" stroke-linecap="square" stroke-linejoin="miter"/>
   <polyline stroke="#0071bc" stroke-width="2" points="445.856,36.3999 453.856,28.3999" fill="none" stroke-linecap="square" stroke-linejoin="miter"/>
  </g>
 </g>
</svg>
