<?xml version="1.0" encoding="UTF-8" standalone="no"?>
<svg xmlns:dc="http://purl.org/dc/elements/1.1/" xmlns:cc="http://web.resource.org/cc/" xmlns:rdf="http://www.w3.org/1999/02/22-rdf-syntax-ns#" xmlns:svg="http://www.w3.org/2000/svg" xmlns="http://www.w3.org/2000/svg" xmlns:sodipodi="http://sodipodi.sourceforge.net/DTD/sodipodi-0.dtd" xmlns:inkscape="http://www.inkscape.org/namespaces/inkscape" width="312.21716" height="270.97705" id="svg2" sodipodi:version="0.32" inkscape:version="0.45.1" sodipodi:docname="OpAmpHystereticOscillator.svg" inkscape:output_extension="org.inkscape.output.svg.inkscape" sodipodi:docbase="/home/jtse" version="1.0">
  <metadata id="metadata183">
    <rdf:RDF>
      <cc:Work rdf:about="">
        <dc:format>image/svg+xml</dc:format>
        <dc:type rdf:resource="http://purl.org/dc/dcmitype/StillImage"/>
      </cc:Work>
    </rdf:RDF>
  </metadata>
  <defs id="defs181"/>
  <sodipodi:namedview inkscape:window-height="869" inkscape:window-width="1197" inkscape:pageshadow="2" inkscape:pageopacity="0.0" guidetolerance="10.0" gridtolerance="10.0" objecttolerance="10.0" borderopacity="1.0" bordercolor="#666666" pagecolor="#ffffff" id="base" inkscape:zoom="1.7962776" inkscape:cx="131.51093" inkscape:cy="106.22121" inkscape:window-x="0" inkscape:window-y="25" inkscape:current-layer="svg2"/>
  <g id="g2277" transform="matrix(0.75,0,0,0.75,57.475388,52.029433)">
    <g id="g4" style="fill:none;stroke:#000000;stroke-width:0.975pt;stroke-linecap:round;stroke-linejoin:miter;stroke-dasharray:none" transform="matrix(2,0,0,2,116.5849,41.711388)">
      <path id="path6" d="M 60,30 C 60,30 0,0 0,0 C 0,0 0,60 0,60 C 0,60 60,30 60,30 z "/>
    </g>
    <g id="g8" style="fill:#000000;fill-rule:evenodd;stroke:none;stroke-width:0.975pt;stroke-linecap:butt;stroke-linejoin:miter;stroke-dasharray:none" transform="matrix(2,0,0,2,123.4149,59.890988)">
      <path id="path10" d="M 0,0 C 0,0 0,0.8252 0,0.8252 C 0,0.8252 7.86,0.8252 7.86,0.8252 C 7.86,0.8252 7.86,0 7.86,0 C 7.86,0 0,0 0,0 z "/>
    </g>
    <g id="g12" style="fill:#000000;fill-rule:evenodd;stroke:none;stroke-width:0.975pt;stroke-linecap:butt;stroke-linejoin:miter;stroke-dasharray:none" transform="matrix(2,0,0,2,123.3849,128.2212)">
      <path id="path14" d="M 4.38,0 C 4.38,0 3.555,0 3.555,0 C 3.555,0 3.555,3.5849 3.555,3.5849 C 3.555,3.5849 0,3.5849 0,3.5849 C 0,3.5849 0,4.4101 0,4.4101 C 0,4.4101 3.555,4.4101 3.555,4.4101 C 3.555,4.4101 3.555,7.9951 3.555,7.9951 C 3.555,7.9951 4.38,7.9951 4.38,7.9951 C 4.38,7.9951 4.38,4.4101 4.38,4.4101 C 4.38,4.4101 7.935,4.4101 7.935,4.4101 C 7.935,4.4101 7.935,3.5849 7.935,3.5849 C 7.935,3.5849 4.38,3.5849 4.38,3.5849 C 4.38,3.5849 4.38,0 4.38,0 z "/>
    </g>
    <g id="g16" style="fill:none;stroke:#000000;stroke-width:0.975pt;stroke-linecap:round;stroke-linejoin:miter;stroke-dasharray:none" transform="matrix(2,0,0,2,215.5849,221.7114)">
      <path id="path18" d="M 0,0 C 0,0 10.5,0 10.5,0"/>
    </g>
    <g id="g20" style="fill:none;stroke:#000000;stroke-width:0.975pt;stroke-linecap:round;stroke-linejoin:miter;stroke-dasharray:none" transform="matrix(2,0,0,2,140.5849,221.7114)">
      <path id="path22" d="M 10.5,0 C 10.5,0 0,0 0,0"/>
    </g>
    <g id="g24" style="fill:none;stroke:#000000;stroke-width:0.975pt;stroke-linecap:round;stroke-linejoin:miter;stroke-dasharray:none" transform="matrix(2,0,0,2,161.5849,211.2114)">
      <path id="path26" d="M 27,5.25 C 27,5.25 24.75,0 24.75,0 C 24.75,0 20.25,10.5 20.25,10.5 C 20.25,10.5 15.75,0 15.75,0 C 15.75,0 11.25,10.5 11.25,10.5 C 11.25,10.5 6.75,0 6.75,0 C 6.75,0 2.25,10.5 2.25,10.5 C 2.25,10.5 0,5.25 0,5.25"/>
    </g>
    <g id="g28" style="fill:none;stroke:#000000;stroke-width:0.975pt;stroke-linecap:round;stroke-linejoin:miter;stroke-dasharray:none" transform="matrix(2,0,0,2,215.5849,-18.288612)">
      <path id="path30" d="M 0,0 C 0,0 10.5,0 10.5,0"/>
    </g>
    <g id="g32" style="fill:none;stroke:#000000;stroke-width:0.975pt;stroke-linecap:round;stroke-linejoin:miter;stroke-dasharray:none" transform="matrix(2,0,0,2,140.5849,-18.288612)">
      <path id="path34" d="M 10.5,0 C 10.5,0 0,0 0,0"/>
    </g>
    <g id="g36" style="fill:none;stroke:#000000;stroke-width:0.975pt;stroke-linecap:round;stroke-linejoin:miter;stroke-dasharray:none" transform="matrix(2,0,0,2,161.5849,-28.788612)">
      <path id="path38" d="M 27,5.25 C 27,5.25 24.75,0 24.75,0 C 24.75,0 20.25,10.5 20.25,10.5 C 20.25,10.5 15.75,0 15.75,0 C 15.75,0 11.25,10.5 11.25,10.5 C 11.25,10.5 6.75,0 6.75,0 C 6.75,0 2.25,10.5 2.25,10.5 C 2.25,10.5 0,5.25 0,5.25"/>
    </g>
    <g id="g40" style="fill:none;stroke:#000000;stroke-width:0.975pt;stroke-linecap:round;stroke-linejoin:miter;stroke-dasharray:none" transform="matrix(2,0,0,2,47.584899,221.7114)">
      <path id="path42" d="M 0,0 C 0,0 10.5,0 10.5,0"/>
    </g>
    <g id="g44" style="fill:none;stroke:#000000;stroke-width:0.975pt;stroke-linecap:round;stroke-linejoin:miter;stroke-dasharray:none" transform="matrix(2,0,0,2,-27.415101,221.7114)">
      <path id="path46" d="M 10.5,0 C 10.5,0 0,0 0,0"/>
    </g>
    <g id="g48" style="fill:none;stroke:#000000;stroke-width:0.975pt;stroke-linecap:round;stroke-linejoin:miter;stroke-dasharray:none" transform="matrix(2,0,0,2,-6.415101,211.2114)">
      <path id="path50" d="M 27,5.25 C 27,5.25 24.75,0 24.75,0 C 24.75,0 20.25,10.5 20.25,10.5 C 20.25,10.5 15.75,0 15.75,0 C 15.75,0 11.25,10.5 11.25,10.5 C 11.25,10.5 6.75,0 6.75,0 C 6.75,0 2.25,10.5 2.25,10.5 C 2.25,10.5 0,5.25 0,5.25"/>
    </g>
    <g id="g52" style="fill:none;stroke:#000000;stroke-width:0.975pt;stroke-linecap:round;stroke-linejoin:miter;stroke-dasharray:none" transform="matrix(2,0,0,2,-27.415101,-18.288612)">
      <path id="path54" d="M 21.75,0 C 21.75,0 0,0 0,0"/>
    </g>
    <g id="g56" style="fill:none;stroke:#000000;stroke-width:0.975pt;stroke-linecap:round;stroke-linejoin:miter;stroke-dasharray:none" transform="matrix(2,0,0,2,25.084899,-18.288612)">
      <path id="path58" d="M 0,0 C 0,0 21.75,0 21.75,0"/>
    </g>
    <g id="g60" style="fill:none;stroke:#000000;stroke-width:0.975pt;stroke-linecap:round;stroke-linejoin:miter;stroke-dasharray:none" transform="matrix(2,0,0,2,25.084899,-42.288612)">
      <path id="path62" d="M 0,24 C 0,24 0,0 0,0"/>
    </g>
    <g id="g64" style="fill:none;stroke:#000000;stroke-width:0.975pt;stroke-linecap:round;stroke-linejoin:miter;stroke-dasharray:none" transform="matrix(2,0,0,2,16.084899,-42.288612)">
      <path id="path66" d="M 0,24 C 0,24 0,0 0,0"/>
    </g>
    <g id="g68" style="fill:none;stroke:#000000;stroke-width:0.975pt;stroke-linecap:round;stroke-linejoin:miter;stroke-dasharray:none" transform="matrix(2,0,0,2,68.584895,-18.288612)">
      <path id="path70" d="M 36,0 C 36,0 0,0 0,0"/>
    </g>
    <g id="g72" style="fill:none;stroke:#000000;stroke-width:0.975pt;stroke-linecap:round;stroke-linejoin:miter;stroke-dasharray:none" transform="matrix(2,0,0,2,92.584895,-18.288612)">
      <path id="path74" d="M 12,42 C 12,42 0,42 0,42 C 0,42 0,0 0,0"/>
    </g>
    <g id="g76" style="fill:none;stroke:#000000;stroke-width:0.975pt;stroke-linecap:round;stroke-linejoin:miter;stroke-dasharray:none" transform="matrix(2,0,0,2,68.584895,221.7114)">
      <path id="path78" d="M 36,0 C 36,0 0,0 0,0"/>
    </g>
    <g id="g80" style="fill:none;stroke:#000000;stroke-width:0.975pt;stroke-linecap:round;stroke-linejoin:miter;stroke-dasharray:none" transform="matrix(2,0,0,2,92.584895,137.7114)">
      <path id="path82" d="M 12,0 C 12,0 0,0 0,0 C 0,0 0,42 0,42"/>
    </g>
    <g id="g84" style="fill:none;stroke:#000000;stroke-width:0.975pt;stroke-linecap:round;stroke-linejoin:miter;stroke-dasharray:none" transform="matrix(2,0,0,2,-51.415101,5.7113884)">
      <path id="path86" d="M 0,12 C 0,12 0,0 0,0"/>
    </g>
    <g id="g88" style="fill:none;stroke:#000000;stroke-width:0.975pt;stroke-linecap:round;stroke-linejoin:miter;stroke-dasharray:none" transform="matrix(2,0,0,2,-75.415101,29.711388)">
      <path id="path90" d="M 24,0 C 24,0 0,0 0,0"/>
    </g>
    <g id="g92" style="fill:none;stroke:#000000;stroke-width:0.975pt;stroke-linecap:round;stroke-linejoin:miter;stroke-dasharray:none" transform="matrix(2,0,0,2,-64.915101,40.211388)">
      <path id="path94" d="M 13.5,0 C 13.5,0 0,0 0,0"/>
    </g>
    <g id="g96" style="fill:none;stroke:#000000;stroke-width:0.975pt;stroke-linecap:round;stroke-linejoin:miter;stroke-dasharray:none" transform="matrix(2,0,0,2,-54.415101,50.711388)">
      <path id="path98" d="M 3,0 C 3,0 0,0 0,0"/>
    </g>
    <g id="g100" style="fill:none;stroke:#000000;stroke-width:0.975pt;stroke-linecap:round;stroke-linejoin:miter;stroke-dasharray:none" transform="matrix(2,0,0,2,-51.415101,245.7114)">
      <path id="path102" d="M 0,12 C 0,12 0,0 0,0"/>
    </g>
    <g id="g104" style="fill:none;stroke:#000000;stroke-width:0.975pt;stroke-linecap:round;stroke-linejoin:miter;stroke-dasharray:none" transform="matrix(2,0,0,2,-75.415101,269.7114)">
      <path id="path106" d="M 24,0 C 24,0 0,0 0,0"/>
    </g>
    <g id="g108" style="fill:none;stroke:#000000;stroke-width:0.975pt;stroke-linecap:round;stroke-linejoin:miter;stroke-dasharray:none" transform="matrix(2,0,0,2,-64.915101,280.2114)">
      <path id="path110" d="M 13.5,0 C 13.5,0 0,0 0,0"/>
    </g>
    <g id="g112" style="fill:none;stroke:#000000;stroke-width:0.975pt;stroke-linecap:round;stroke-linejoin:miter;stroke-dasharray:none" transform="matrix(2,0,0,2,-54.415101,290.7114)">
      <path id="path114" d="M 3,0 C 3,0 0,0 0,0"/>
    </g>
    <g id="g116" style="fill:none;stroke:#000000;stroke-width:0.975pt;stroke-linecap:round;stroke-linejoin:miter;stroke-dasharray:none" transform="matrix(2,0,0,2,-51.415101,-18.288612)">
      <path id="path118" d="M 0,12 C 0,12 0,0 0,0 C 0,0 12,0 12,0"/>
    </g>
    <g id="g120" style="fill:none;stroke:#000000;stroke-width:0.975pt;stroke-linecap:round;stroke-linejoin:miter;stroke-dasharray:none" transform="matrix(2,0,0,2,-51.415101,221.7114)">
      <path id="path122" d="M 0,12 C 0,12 0,0 0,0 C 0,0 12,0 12,0"/>
    </g>
    <g id="g124" style="fill:none;stroke:#000000;stroke-width:0.975pt;stroke-linecap:round;stroke-linejoin:miter;stroke-dasharray:none" transform="matrix(2,0,0,2,236.5849,-18.288612)">
      <path id="path126" d="M 0,120 C 0,120 12,120 12,120 C 12,120 12,0 12,0 C 12,0 0,0 0,0"/>
    </g>
    <g id="g128" style="fill:none;stroke:#000000;stroke-width:0.975pt;stroke-linecap:round;stroke-linejoin:miter;stroke-dasharray:none" transform="matrix(2,0,0,2,236.5849,101.7114)">
      <path id="path130" d="M 12,0 C 12,0 0,0 0,0"/>
    </g>
    <g id="g132" style="fill:#000000;fill-rule:evenodd;stroke:none;stroke-width:0.975pt;stroke-linecap:butt;stroke-linejoin:miter;stroke-dasharray:none" transform="matrix(2,0,0,2,88.084895,-22.788612)">
      <path id="path134" d="M 4.5,2.25 C 4.5,1.0078 3.4922,0 2.25,0 C 1.0078,0 0,1.0078 0,2.25 C 0,3.4922 1.0078,4.5 2.25,4.5 C 3.4922,4.5 4.5,3.4922 4.5,2.25 z "/>
    </g>
    <g id="g136" style="fill:#000000;fill-rule:evenodd;stroke:none;stroke-width:0.975pt;stroke-linecap:butt;stroke-linejoin:miter;stroke-dasharray:none" transform="matrix(2,0,0,2,256.0849,97.211396)">
      <path id="path138" d="M 4.5,2.25 C 4.5,1.0078 3.492,0 2.25,0 C 1.008,0 0,1.0078 0,2.25 C 0,3.4922 1.008,4.5 2.25,4.5 C 3.492,4.5 4.5,3.4922 4.5,2.25 z "/>
    </g>
    <g id="g140" style="fill:#000000;fill-rule:evenodd;stroke:none;stroke-width:0.975pt;stroke-linecap:butt;stroke-linejoin:miter;stroke-dasharray:none" transform="matrix(2,0,0,2,88.084895,217.2114)">
      <path id="path142" d="M 4.5,2.25 C 4.5,1.008 3.4922,0 2.25,0 C 1.0078,0 0,1.008 0,2.25 C 0,3.492 1.0078,4.5 2.25,4.5 C 3.4922,4.5 4.5,3.492 4.5,2.25 z "/>
    </g>
    <g id="g144" style="fill:none;stroke:#000000;stroke-width:0.975pt;stroke-linecap:round;stroke-linejoin:miter;stroke-dasharray:none" transform="matrix(2,0,0,2,292.0849,97.211396)">
      <path id="path146" d="M 4.5,2.25 C 4.5,1.0078 3.492,0 2.25,0 C 1.008,0 0,1.0078 0,2.25 C 0,3.4922 1.008,4.5 2.25,4.5 C 3.492,4.5 4.5,3.4922 4.5,2.25"/>
    </g>
    <g id="g148" style="fill:none;stroke:#000000;stroke-width:0.975pt;stroke-linecap:round;stroke-linejoin:miter;stroke-dasharray:none" transform="matrix(2,0,0,2,284.5849,101.7114)">
      <path id="path150" d="M 3.75,0 C 3.75,0 0,0 0,0"/>
    </g>
    <g id="g152" style="fill:none;stroke:#000000;stroke-width:0.975pt;stroke-linecap:round;stroke-linejoin:miter;stroke-dasharray:none" transform="matrix(2,0,0,2,260.5849,101.7114)">
      <path id="path154" d="M 12,0 C 12,0 0,0 0,0"/>
    </g>
    <g id="g156" style="fill:none;stroke:#000000;stroke-width:0.975pt;stroke-linecap:round;stroke-linejoin:miter;stroke-dasharray:none" transform="matrix(2,0,0,2,184.0849,169.2114)">
      <path id="path158" d="M 2.25,4.5 C 3.492,4.5 4.5,3.492 4.5,2.25 C 4.5,1.008 3.492,0 2.25,0 C 1.008,0 0,1.008 0,2.25 C 0,3.492 1.008,4.5 2.25,4.5"/>
    </g>
    <g id="g160" style="fill:none;stroke:#000000;stroke-width:0.975pt;stroke-linecap:round;stroke-linejoin:miter;stroke-dasharray:none" transform="matrix(2,0,0,2,188.5849,161.7114)">
      <path id="path162" d="M 0,3.75 C 0,3.75 0,0 0,0"/>
    </g>
    <g id="g164" style="fill:none;stroke:#000000;stroke-width:0.975pt;stroke-linecap:round;stroke-linejoin:miter;stroke-dasharray:none" transform="matrix(2,0,0,2,184.0849,25.211388)">
      <path id="path166" d="M 2.25,0 C 1.008,0 0,1.0078 0,2.25 C 0,3.4922 1.008,4.5 2.25,4.5 C 3.492,4.5 4.5,3.4922 4.5,2.25 C 4.5,1.0078 3.492,0 2.25,0"/>
    </g>
    <g id="g168" style="fill:none;stroke:#000000;stroke-width:0.975pt;stroke-linecap:round;stroke-linejoin:miter;stroke-dasharray:none" transform="matrix(2,0,0,2,188.5849,34.211388)">
      <path id="path170" d="M 0,0 C 0,0 0,3.75 0,3.75"/>
    </g>
    <g id="g172" style="fill:none;stroke:#000000;stroke-width:0.975pt;stroke-linecap:round;stroke-linejoin:miter;stroke-dasharray:none" transform="matrix(2,0,0,2,188.5849,125.7114)">
      <path id="path174" d="M 0,0 C 0,0 0,18 0,18"/>
    </g>
    <g id="g176" style="fill:none;stroke:#000000;stroke-width:0.975pt;stroke-linecap:round;stroke-linejoin:miter;stroke-dasharray:none" transform="matrix(2,0,0,2,188.5849,41.711388)">
      <path id="path178" d="M 0,18 C 0,18 0,0 0,0"/>
    </g>
    <text id="text2311" y="267.92065" x="10.83371" style="font-size:24px;font-style:normal;font-weight:normal;fill:#000000;fill-opacity:1;stroke:none;stroke-width:1px;stroke-linecap:butt;stroke-linejoin:miter;stroke-opacity:1;font-family:Bitstream Vera Sans" xml:space="preserve"><tspan y="267.92065" x="10.83371" id="tspan2313" sodipodi:role="line">R</tspan></text>
    <text id="text2315" y="267.92065" x="180.4826" style="font-size:24px;font-style:normal;font-weight:normal;fill:#000000;fill-opacity:1;stroke:none;stroke-width:1px;stroke-linecap:butt;stroke-linejoin:miter;stroke-opacity:1;font-family:Bitstream Vera Sans" xml:space="preserve"><tspan y="267.92065" x="180.4826" id="tspan2317" sodipodi:role="line">R</tspan></text>
    <text id="text2319" y="-51.548359" x="180.4826" style="font-size:24px;font-style:normal;font-weight:normal;fill:#000000;fill-opacity:1;stroke:none;stroke-width:1px;stroke-linecap:butt;stroke-linejoin:miter;stroke-opacity:1;font-family:Bitstream Vera Sans" xml:space="preserve"><tspan y="-51.548359" x="180.4826" id="tspan2321" sodipodi:role="line">R</tspan></text>
    <text id="text2323" y="-51.560078" x="11.601288" style="font-size:24px;font-style:normal;font-weight:normal;fill:#000000;fill-opacity:1;stroke:none;stroke-width:1px;stroke-linecap:butt;stroke-linejoin:miter;stroke-opacity:1;font-family:Bitstream Vera Sans" xml:space="preserve"><tspan y="-51.560078" x="11.601288" id="tspan2325" sodipodi:role="line">C</tspan></text>
    <g transform="matrix(2,0,0,2,-134.50463,-90.496584)" id="g2351">
      <text xml:space="preserve" style="font-size:12px;font-style:italic;font-weight:normal;fill:#000000;fill-opacity:1;stroke:none;stroke-width:1px;stroke-linecap:butt;stroke-linejoin:miter;stroke-opacity:1;font-family:Bitstream Vera Sans" x="110.31222" y="30.008217" id="text2327"><tspan sodipodi:role="line" id="tspan2329" x="110.31222" y="30.008217">V</tspan></text>
      <text xml:space="preserve" style="font-size:8.89233971px;font-style:normal;font-weight:normal;fill:#000000;fill-opacity:1;stroke:none;stroke-width:1px;stroke-linecap:butt;stroke-linejoin:miter;stroke-opacity:1;font-family:Bitstream Vera Sans" x="78.882874" y="46.84988" id="text2331" transform="scale(1.4820567,0.674738)"><tspan sodipodi:role="line" id="tspan2333" x="78.882874" y="46.84988">-</tspan></text>
    </g>
    <g transform="matrix(2,0,0,2,-131.51092,-111.27878)" id="g2629">
      <text xml:space="preserve" style="font-size:12px;font-style:italic;font-weight:normal;fill:#000000;fill-opacity:1;stroke:none;stroke-width:1px;stroke-linecap:butt;stroke-linejoin:miter;stroke-opacity:1;font-family:Bitstream Vera Sans" x="218.95059" y="110.03078" id="text2335"><tspan sodipodi:role="line" id="tspan2337" x="218.95059" y="110.03078">V</tspan></text>
      <text xml:space="preserve" style="font-size:6px;font-style:normal;font-weight:normal;fill:#000000;fill-opacity:1;stroke:none;stroke-width:1px;stroke-linecap:butt;stroke-linejoin:miter;stroke-opacity:1;font-family:Bitstream Vera Sans" x="225.89777" y="111.63396" id="text2339"><tspan sodipodi:role="line" id="tspan2341" x="225.89777" y="111.63396">out</tspan></text>
    </g>
    <g transform="matrix(2,0,0,2,-133.09396,-91.729216)" id="g2357">
      <text xml:space="preserve" style="font-size:12px;font-style:italic;font-weight:normal;fill:#000000;fill-opacity:1;stroke:none;stroke-width:1px;stroke-linecap:butt;stroke-linejoin:miter;stroke-opacity:1;font-family:Bitstream Vera Sans" x="109.29182" y="170.83902" id="text2343"><tspan sodipodi:role="line" id="tspan2345" x="109.29182" y="170.83902">V</tspan></text>
      <text xml:space="preserve" style="font-size:6px;font-style:normal;font-weight:normal;fill:#000000;fill-opacity:1;stroke:none;stroke-width:1px;stroke-linecap:butt;stroke-linejoin:miter;stroke-opacity:1;font-family:Bitstream Vera Sans" x="116.23901" y="172.4422" id="text2347"><tspan sodipodi:role="line" id="tspan2349" x="116.23901" y="172.4422">+</tspan></text>
    </g>
    <g transform="matrix(2,0,0,2,-136.22882,-111.27878)" id="g2617">
      <text xml:space="preserve" style="font-size:12px;font-style:italic;font-weight:normal;fill:#000000;fill-opacity:1;stroke:none;stroke-width:1px;stroke-linecap:butt;stroke-linejoin:miter;stroke-opacity:1;font-family:Bitstream Vera Sans" x="165.96304" y="74.070496" id="text2601"><tspan sodipodi:role="line" id="tspan2603" x="165.96304" y="74.070496">V</tspan></text>
      <text xml:space="preserve" style="font-size:6px;font-style:italic;font-weight:normal;fill:#000000;fill-opacity:1;stroke:none;stroke-width:1px;stroke-linecap:butt;stroke-linejoin:miter;stroke-opacity:1;font-family:Bitstream Vera Sans" x="172.91022" y="75.673676" id="text2605"><tspan sodipodi:role="line" id="tspan2607" x="172.91022" y="75.673676">DD</tspan></text>
    </g>
    <g transform="matrix(2,0,0,2,-133.02243,-111.27878)" id="g2623">
      <text xml:space="preserve" style="font-size:12px;font-style:italic;font-weight:normal;fill:#000000;fill-opacity:1;stroke:none;stroke-width:1px;stroke-linecap:butt;stroke-linejoin:miter;stroke-opacity:1;font-family:Bitstream Vera Sans" x="164.35985" y="147.81741" id="text2609"><tspan sodipodi:role="line" id="tspan2611" x="164.35985" y="147.81741">V</tspan></text>
      <text xml:space="preserve" style="font-size:6px;font-style:italic;font-weight:normal;fill:#000000;fill-opacity:1;stroke:none;stroke-width:1px;stroke-linecap:butt;stroke-linejoin:miter;stroke-opacity:1;font-family:Bitstream Vera Sans" x="171.30702" y="149.42059" id="text2613"><tspan sodipodi:role="line" id="tspan2615" x="171.30702" y="149.42059">SS</tspan></text>
    </g>
  </g>
</svg>