<?xml version="1.0" encoding="UTF-8"?>
<svg xmlns="http://www.w3.org/2000/svg" xmlns:xlink="http://www.w3.org/1999/xlink" width="90.675pt" height="147.368pt" viewBox="0 0 90.675 147.368" version="1.1">
<defs>
<clipPath id="clip1">
  <path d="M 0 141 L 6 141 L 6 147.367188 L 0 147.367188 Z M 0 141 "/>
</clipPath>
<clipPath id="clip2">
  <path d="M 85 28 L 90.675781 28 L 90.675781 34 L 85 34 Z M 85 28 "/>
</clipPath>
<clipPath id="clip3">
  <path d="M 0 95 L 80 95 L 80 147.367188 L 0 147.367188 Z M 0 95 "/>
</clipPath>
<clipPath id="clip4">
  <path d="M 25 10 L 90.675781 10 L 90.675781 81 L 25 81 Z M 25 10 "/>
</clipPath>
<clipPath id="clip5">
  <path d="M 11 0 L 90.675781 0 L 90.675781 53 L 11 53 Z M 11 0 "/>
</clipPath>
</defs>
<g id="surface1">
<g clip-path="url(#clip1)" clip-rule="nonzero">
<path style=" stroke:none;fill-rule:nonzero;fill:rgb(79.998779%,44.999695%,47.499084%);fill-opacity:1;" d="M 5.636719 144.550781 C 5.636719 142.992188 4.375 141.730469 2.816406 141.730469 C 1.261719 141.730469 0 142.992188 0 144.550781 C 0 146.105469 1.261719 147.367188 2.816406 147.367188 C 4.375 147.367188 5.636719 146.105469 5.636719 144.550781 Z M 5.636719 144.550781 "/>
</g>
<path style=" stroke:none;fill-rule:nonzero;fill:rgb(79.998779%,44.999695%,47.499084%);fill-opacity:1;" d="M 62.328125 116.203125 C 62.328125 114.648438 61.066406 113.386719 59.511719 113.386719 C 57.957031 113.386719 56.695312 114.648438 56.695312 116.203125 C 56.695312 117.757812 57.957031 119.019531 59.511719 119.019531 C 61.066406 119.019531 62.328125 117.757812 62.328125 116.203125 Z M 62.328125 116.203125 "/>
<path style=" stroke:none;fill-rule:nonzero;fill:rgb(79.998779%,44.999695%,47.499084%);fill-opacity:1;" d="M 33.984375 87.855469 C 33.984375 86.300781 32.722656 85.039062 31.164062 85.039062 C 29.609375 85.039062 28.347656 86.300781 28.347656 87.855469 C 28.347656 89.414062 29.609375 90.675781 31.164062 90.675781 C 32.722656 90.675781 33.984375 89.414062 33.984375 87.855469 Z M 33.984375 87.855469 "/>
<path style=" stroke:none;fill-rule:nonzero;fill:rgb(79.998779%,44.999695%,47.499084%);fill-opacity:1;" d="M 48.15625 59.507812 C 48.15625 57.953125 46.894531 56.691406 45.339844 56.691406 C 43.78125 56.691406 42.519531 57.953125 42.519531 59.507812 C 42.519531 61.066406 43.78125 62.328125 45.339844 62.328125 C 46.894531 62.328125 48.15625 61.066406 48.15625 59.507812 Z M 48.15625 59.507812 "/>
<g clip-path="url(#clip2)" clip-rule="nonzero">
<path style=" stroke:none;fill-rule:nonzero;fill:rgb(79.998779%,44.999695%,47.499084%);fill-opacity:1;" d="M 90.675781 31.164062 C 90.675781 29.605469 89.414062 28.34375 87.859375 28.34375 C 86.300781 28.34375 85.039062 29.605469 85.039062 31.164062 C 85.039062 32.71875 86.300781 33.980469 87.859375 33.980469 C 89.414062 33.980469 90.675781 32.71875 90.675781 31.164062 Z M 90.675781 31.164062 "/>
</g>
<path style=" stroke:none;fill-rule:nonzero;fill:rgb(79.998779%,44.999695%,47.499084%);fill-opacity:1;" d="M 33.984375 2.816406 C 33.984375 1.257812 32.722656 -0.00390625 31.164062 -0.00390625 C 29.609375 -0.00390625 28.347656 1.257812 28.347656 2.816406 C 28.347656 4.371094 29.609375 5.632812 31.164062 5.632812 C 32.722656 5.632812 33.984375 4.371094 33.984375 2.816406 Z M 33.984375 2.816406 "/>
<g clip-path="url(#clip3)" clip-rule="nonzero">
<path style="fill:none;stroke-width:1.59404;stroke-linecap:butt;stroke-linejoin:miter;stroke:rgb(39.99939%,59.799194%,72.999573%);stroke-opacity:1;stroke-miterlimit:10;" d="M 2.877313 1.436719 L 53.818719 26.909375 " transform="matrix(1,0,0,-1,2.818,144.55)"/>
</g>
<path style="fill:none;stroke-width:1.59404;stroke-linecap:butt;stroke-linejoin:miter;stroke:rgb(39.99939%,59.799194%,72.999573%);stroke-opacity:1;stroke-miterlimit:10;" d="M 54.420281 30.620313 L 30.6195 54.421094 " transform="matrix(1,0,0,-1,2.818,144.55)"/>
<path style="fill:none;stroke-width:1.59404;stroke-linecap:butt;stroke-linejoin:miter;stroke:rgb(39.99939%,59.799194%,72.999573%);stroke-opacity:1;stroke-miterlimit:10;" d="M 29.783563 59.569531 L 41.080438 82.163281 " transform="matrix(1,0,0,-1,2.818,144.55)"/>
<g clip-path="url(#clip4)" clip-rule="nonzero">
<path style="fill:none;stroke-width:1.59404;stroke-linecap:butt;stroke-linejoin:miter;stroke:rgb(39.99939%,59.799194%,72.999573%);stroke-opacity:1;stroke-miterlimit:10;" d="M 45.197625 86.823438 L 82.365594 111.604688 " transform="matrix(1,0,0,-1,2.818,144.55)"/>
</g>
<g clip-path="url(#clip5)" clip-rule="nonzero">
<path style="fill:none;stroke-width:1.59404;stroke-linecap:butt;stroke-linejoin:miter;stroke:rgb(39.99939%,59.799194%,72.999573%);stroke-opacity:1;stroke-miterlimit:10;" d="M 82.162469 114.827344 L 31.224969 140.296094 " transform="matrix(1,0,0,-1,2.818,144.55)"/>
</g>
</g>
</svg>
