<svg xmlns="http://www.w3.org/2000/svg" width="24" height="24" viewBox="0 0 24 24"><path fill="currentColor" d="M15.152 9.032a2.643 2.643 0 1 0 .111-3.881c.182.32.318.669.4 1.038a1.643 1.643 0 1 1-.052 1.83a3.7 3.7 0 0 1-.459 1.013M8.737 5.15a2.643 2.643 0 1 0 .111 3.881a3.7 3.7 0 0 1-.458-1.012a1.642 1.642 0 0 1-3.033-.876a1.643 1.643 0 0 1 2.98-.954c.082-.37.218-.718.4-1.038m-4.036 5.146c-.3.08-.596.18-.891.278l-.254.084a2.63 2.63 0 0 0-1.73 1.843l-.298 2.133c-.113.816.325 1.674 1.22 1.887q.371.091.885.175a.5.5 0 1 0 .159-.988a11 11 0 0 1-.813-.16c-.303-.072-.516-.374-.46-.777l.283-2.049c.141-.52.54-1.05 1.066-1.223c.314-.103 1.094-.25 1.094-.25c.42.25.57.351.57.351a.5.5 0 0 0 .435-.9q-.152-.077-.296-.164c-.297-.176-.58-.344-.97-.24m15.489.278c-.295-.099-.59-.197-.891-.278c-.39-.104-.673.064-.97.24q-.144.087-.296.164a.5.5 0 0 0 .435.9s.15-.101.57-.351c0 0 .78.147 1.094.25c.526.173.924.703 1.066 1.223l.283 2.049c.056.403-.157.705-.46.777q-.335.082-.813.16a.5.5 0 1 0 .16.988q.512-.085.884-.175c.895-.213 1.333-1.07 1.22-1.887l-.299-2.133a2.62 2.62 0 0 0-1.73-1.843z" opacity="0.5"/><path fill="currentColor" d="M12 3.25a3.75 3.75 0 1 0 0 7.5a3.75 3.75 0 0 0 0-7.5M9.75 7a2.25 2.25 0 1 1 4.5 0a2.25 2.25 0 0 1-4.5 0m5.485 4.415c-.61-.173-1.187.034-1.582.297c-.36.238-.942.524-1.653.524s-1.294-.286-1.653-.524c-.396-.263-.973-.47-1.583-.297a12 12 0 0 0-.477.145l-.96.315a3.72 3.72 0 0 0-2.454 2.616l-.01.04l-.408 2.95c-.161 1.164.462 2.393 1.744 2.698c1.17.279 3.052.571 5.8.571c2.749 0 4.631-.292 5.801-.57c1.282-.306 1.906-1.535 1.744-2.698l-.408-2.95l-.01-.04a3.72 3.72 0 0 0-2.455-2.617l-.959-.315q-.237-.077-.477-.146m-.753 1.546c.174-.115.298-.117.345-.103q.21.06.417.127l.96.315c.72.237 1.264.812 1.458 1.523l.397 2.864c.075.544-.21.939-.606 1.033c-1.047.25-2.812.53-5.453.53s-4.407-.28-5.454-.53c-.395-.094-.68-.489-.606-1.033l.397-2.864A2.23 2.23 0 0 1 7.796 13.3l.96-.315q.206-.068.416-.127c.048-.014.17-.012.345.103c.501.333 1.372.775 2.483.775s1.98-.442 2.482-.775"/></svg>