<svg version="1.1" xmlns="http://www.w3.org/2000/svg" xmlns:xlink="http://www.w3.org/1999/xlink" width="1200" height="800"><defs/><g transform="scale(2,2)"><g id="background-cc6f967d"><rect fill="white" stroke="none" x="0" y="0" width="600" height="400" class="dcg-svg-background"/></g><g id="graphpaper-cc6f967d"><g id="grid-cc6f967d"><g><path fill="none" stroke="rgb(0,0,0)" class="dcg-svg-minor-gridline" paint-order="fill stroke markers" d=" M 199.5 0 L 199.5 400" stroke-opacity="0.3" stroke-miterlimit="10" stroke-dasharray=""/><path fill="none" stroke="rgb(0,0,0)" class="dcg-svg-minor-gridline" paint-order="fill stroke markers" d=" M 361.5 0 L 361.5 400" stroke-opacity="0.3" stroke-miterlimit="10" stroke-dasharray=""/><path fill="none" stroke="rgb(0,0,0)" class="dcg-svg-minor-gridline" paint-order="fill stroke markers" d=" M 523.5 0 L 523.5 400" stroke-opacity="0.3" stroke-miterlimit="10" stroke-dasharray=""/><path fill="none" stroke="rgb(0,0,0)" class="dcg-svg-minor-gridline" paint-order="fill stroke markers" d=" M 0 201.5 L 600 201.5" stroke-opacity="0.3" stroke-miterlimit="10" stroke-dasharray=""/><path fill="none" stroke="rgb(0,0,0)" class="dcg-svg-minor-gridline" paint-order="fill stroke markers" d=" M 0 53.5 L 600 53.5" stroke-opacity="0.3" stroke-miterlimit="10" stroke-dasharray=""/><path fill="none" stroke="rgb(0,0,0)" class="dcg-svg-major-gridline" paint-order="fill stroke markers" d=" M 199.5 0 L 199.5 400" stroke-opacity="0.4285714285714285" stroke-miterlimit="10" stroke-dasharray=""/><path fill="none" stroke="rgb(0,0,0)" class="dcg-svg-major-gridline" paint-order="fill stroke markers" d=" M 361.5 0 L 361.5 400" stroke-opacity="0.4285714285714285" stroke-miterlimit="10" stroke-dasharray=""/><path fill="none" stroke="rgb(0,0,0)" class="dcg-svg-major-gridline" paint-order="fill stroke markers" d=" M 523.5 0 L 523.5 400" stroke-opacity="0.4285714285714285" stroke-miterlimit="10" stroke-dasharray=""/><path fill="none" stroke="rgb(0,0,0)" class="dcg-svg-major-gridline" paint-order="fill stroke markers" d=" M 0 201.5 L 600 201.5" stroke-opacity="0.4285714285714285" stroke-miterlimit="10" stroke-dasharray=""/><path fill="none" stroke="rgb(0,0,0)" class="dcg-svg-major-gridline" paint-order="fill stroke markers" d=" M 0 53.5 L 600 53.5" stroke-opacity="0.4285714285714285" stroke-miterlimit="10" stroke-dasharray=""/></g></g><g id="axis-cc6f967d"><g id="yaxis-cc6f967d"><title>Population</title><g><path fill="none" stroke="rgb(0,0,0)" class="dcg-svg-axis-line" paint-order="fill stroke markers" d=" M 38 0 L 38 400" stroke-opacity="0.9" stroke-miterlimit="10" stroke-width="2" stroke-dasharray=""/></g></g><g id="xaxis-cc6f967d"><title>Iteration</title><g><path fill="none" stroke="rgb(0,0,0)" class="dcg-svg-axis-line" paint-order="fill stroke markers" d=" M 0 349 L 600 349" stroke-opacity="0.9" stroke-miterlimit="10" stroke-width="2" stroke-dasharray=""/></g></g><g><g class="dcg-svg-axis-value"><text fill="none" stroke="#ffffff" font-family="Arial" font-size="17px" font-style="normal" font-weight="normal" text-decoration="normal" x="27.910539504845815" y="367.3438808951304" text-anchor="middle" stroke-miterlimit="2" stroke-width="3" stroke-dasharray="">0</text><text fill="#000000" stroke="none" font-family="Arial" font-size="17px" font-style="normal" font-weight="normal" text-decoration="normal" x="27.910539504845815" y="367.3438808951304" text-anchor="middle">0</text></g><g class="dcg-svg-axis-value"><text fill="none" stroke="#ffffff" font-family="Arial" font-size="17px" font-style="normal" font-weight="normal" text-decoration="normal" x="199.56802004235368" y="367.3438808951304" text-anchor="middle" stroke-miterlimit="2" stroke-width="3" stroke-dasharray="">5</text><text fill="#000000" stroke="none" font-family="Arial" font-size="17px" font-style="normal" font-weight="normal" text-decoration="normal" x="199.56802004235368" y="367.3438808951304" text-anchor="middle">5</text></g><g class="dcg-svg-axis-value"><text fill="none" stroke="#ffffff" font-family="Arial" font-size="17px" font-style="normal" font-weight="normal" text-decoration="normal" x="361.500500675229" y="367.3438808951304" text-anchor="middle" stroke-miterlimit="2" stroke-width="3" stroke-dasharray="">10</text><text fill="#000000" stroke="none" font-family="Arial" font-size="17px" font-style="normal" font-weight="normal" text-decoration="normal" x="361.500500675229" y="367.3438808951304" text-anchor="middle">10</text></g><g class="dcg-svg-axis-value"><text fill="none" stroke="#ffffff" font-family="Arial" font-size="17px" font-style="normal" font-weight="normal" text-decoration="normal" x="523.4329813081042" y="367.3438808951304" text-anchor="middle" stroke-miterlimit="2" stroke-width="3" stroke-dasharray="">15</text><text fill="#000000" stroke="none" font-family="Arial" font-size="17px" font-style="normal" font-weight="normal" text-decoration="normal" x="523.4329813081042" y="367.3438808951304" text-anchor="middle">15</text></g><g class="dcg-svg-axis-value"><text fill="none" stroke="#ffffff" font-family="Arial" font-size="17px" font-style="normal" font-weight="normal" text-decoration="normal" x="23.185539600213247" y="206.14222936911383" text-anchor="middle" stroke-miterlimit="2" stroke-width="3" stroke-dasharray="">10</text><text fill="#000000" stroke="none" font-family="Arial" font-size="17px" font-style="normal" font-weight="normal" text-decoration="normal" x="23.185539600213247" y="206.14222936911383" text-anchor="middle">10</text></g><g class="dcg-svg-axis-value"><text fill="none" stroke="#ffffff" font-family="Arial" font-size="17px" font-style="normal" font-weight="normal" text-decoration="normal" x="23.185539600213247" y="58.44057784309732" text-anchor="middle" stroke-miterlimit="2" stroke-width="3" stroke-dasharray="">20</text><text fill="#000000" stroke="none" font-family="Arial" font-size="17px" font-style="normal" font-weight="normal" text-decoration="normal" x="23.185539600213247" y="58.44057784309732" text-anchor="middle">20</text></g></g><g class="dcg-svg-axis-label"><text fill="none" stroke="#ffffff" font-family="Arial" font-size="20px" font-style="normal" font-weight="normal" text-decoration="normal" x="512.7666702270508" y="388.21988089513036" text-anchor="start" stroke-miterlimit="2" stroke-width="3" stroke-dasharray="">Iteration</text><text fill="#000000" stroke="none" font-family="Arial" font-size="20px" font-style="normal" font-weight="normal" text-decoration="normal" x="512.7666702270508" y="388.21988089513036" text-anchor="start">Iteration</text></g><g class="dcg-svg-axis-label" transform="translate(55.63553940947838,109.48332977294922) rotate(-90,0,0)"><text fill="none" stroke="#ffffff" font-family="Arial" font-size="20px" font-style="normal" font-weight="normal" text-decoration="normal" x="0" y="0" text-anchor="start" stroke-miterlimit="2" stroke-width="3" stroke-dasharray="">Population</text><text fill="#000000" stroke="none" font-family="Arial" font-size="20px" font-style="normal" font-weight="normal" text-decoration="normal" x="0" y="0" text-anchor="start">Population</text></g></g></g><g id="expressions-cc6f967d"><g id="sketch-cc6f967d"><title/><path fill="#c74440" stroke="none" class="dcg-svg-point" paint-order="stroke fill markers" d=" M 42.88553940947838 201.51822936911384 A 5.25 5.25 0 1 1 42.8855367844786 201.51297936998884 Z"/><path fill="#c74440" stroke="none" class="dcg-svg-point" paint-order="stroke fill markers" d=" M 75.27203553605344 216.28839452171547 A 5.25 5.25 0 1 1 75.27203291105366 216.28314452259048 Z"/><path fill="#c74440" stroke="none" class="dcg-svg-point" paint-order="stroke fill markers" d=" M 107.6585316626285 229.581543159057 A 5.25 5.25 0 1 1 107.65852903762872 229.576293159932 Z"/><path fill="#c74440" stroke="none" class="dcg-svg-point" paint-order="stroke fill markers" d=" M 140.04502778920357 241.5453769326643 A 5.25 5.25 0 1 1 140.0450251642038 241.5401269335393 Z"/><path fill="#c74440" stroke="none" class="dcg-svg-point" paint-order="stroke fill markers" d=" M 172.43152391577863 252.3128273289109 A 5.25 5.25 0 1 1 172.43152129077885 252.30757732978591 Z"/><path fill="#c74440" stroke="none" class="dcg-svg-point" paint-order="stroke fill markers" d=" M 204.81802004235368 262.00353268553283 A 5.25 5.25 0 1 1 204.8180174173539 261.99828268640783 Z"/><path fill="#c74440" stroke="none" class="dcg-svg-point" paint-order="stroke fill markers" d=" M 237.20451616892876 270.7251675064926 A 5.25 5.25 0 1 1 237.20451354392898 270.7199175073676 Z"/><path fill="#c74440" stroke="none" class="dcg-svg-point" paint-order="stroke fill markers" d=" M 269.5910122955038 278.5746388453564 A 5.25 5.25 0 1 1 269.591009670504 278.5693888462314 Z"/><path fill="#c74440" stroke="none" class="dcg-svg-point" paint-order="stroke fill markers" d=" M 301.97750842207887 285.63916305033376 A 5.25 5.25 0 1 1 301.97750579707906 285.63391305120876 Z"/><path fill="#c74440" stroke="none" class="dcg-svg-point" paint-order="stroke fill markers" d=" M 334.36400454865395 291.9972348348134 A 5.25 5.25 0 1 1 334.36400192365414 291.9919848356884 Z"/><path fill="#c74440" stroke="none" class="dcg-svg-point" paint-order="stroke fill markers" d=" M 366.750500675229 297.71949944084514 A 5.25 5.25 0 1 1 366.75049805022917 297.71424944172014 Z"/><path fill="#c74440" stroke="none" class="dcg-svg-point" paint-order="stroke fill markers" d=" M 399.13699680180406 302.8695375862736 A 5.25 5.25 0 1 1 399.13699417680425 302.8642875871486 Z"/><path fill="#c74440" stroke="none" class="dcg-svg-point" paint-order="stroke fill markers" d=" M 431.52349292837914 307.5045719171593 A 5.25 5.25 0 1 1 431.52349030337933 307.4993219180343 Z"/><path fill="#c74440" stroke="none" class="dcg-svg-point" paint-order="stroke fill markers" d=" M 463.90998905495417 311.67610281495644 A 5.25 5.25 0 1 1 463.90998642995436 311.67085281583144 Z"/><path fill="#c74440" stroke="none" class="dcg-svg-point" paint-order="stroke fill markers" d=" M 496.29648518152925 315.43048062297385 A 5.25 5.25 0 1 1 496.29648255652944 315.42523062384885 Z"/><path fill="#c74440" stroke="none" class="dcg-svg-point" paint-order="stroke fill markers" d=" M 528.6829813081042 318.80942065018945 A 5.25 5.25 0 1 1 528.6829786831045 318.80417065106445 Z"/></g><g id="sketch-cc6f967d"><title/><path fill="#000000" stroke="none" class="dcg-svg-point" paint-order="stroke fill markers" d=" M 42.88553940947838 201.51822936911384 A 5.25 5.25 0 1 1 42.8855367844786 201.51297936998884 Z"/><path fill="#000000" stroke="none" class="dcg-svg-point" paint-order="stroke fill markers" d=" M 75.27203553605344 201.51822936911384 A 5.25 5.25 0 1 1 75.27203291105366 201.51297936998884 Z"/><path fill="#000000" stroke="none" class="dcg-svg-point" paint-order="stroke fill markers" d=" M 107.6585316626285 201.51822936911384 A 5.25 5.25 0 1 1 107.65852903762872 201.51297936998884 Z"/><path fill="#000000" stroke="none" class="dcg-svg-point" paint-order="stroke fill markers" d=" M 140.04502778920357 201.51822936911384 A 5.25 5.25 0 1 1 140.0450251642038 201.51297936998884 Z"/><path fill="#000000" stroke="none" class="dcg-svg-point" paint-order="stroke fill markers" d=" M 172.43152391577863 201.51822936911384 A 5.25 5.25 0 1 1 172.43152129077885 201.51297936998884 Z"/><path fill="#000000" stroke="none" class="dcg-svg-point" paint-order="stroke fill markers" d=" M 204.81802004235368 201.51822936911384 A 5.25 5.25 0 1 1 204.8180174173539 201.51297936998884 Z"/><path fill="#000000" stroke="none" class="dcg-svg-point" paint-order="stroke fill markers" d=" M 237.20451616892876 201.51822936911384 A 5.25 5.25 0 1 1 237.20451354392898 201.51297936998884 Z"/><path fill="#000000" stroke="none" class="dcg-svg-point" paint-order="stroke fill markers" d=" M 269.5910122955038 201.51822936911384 A 5.25 5.25 0 1 1 269.591009670504 201.51297936998884 Z"/><path fill="#000000" stroke="none" class="dcg-svg-point" paint-order="stroke fill markers" d=" M 301.97750842207887 201.51822936911384 A 5.25 5.25 0 1 1 301.97750579707906 201.51297936998884 Z"/><path fill="#000000" stroke="none" class="dcg-svg-point" paint-order="stroke fill markers" d=" M 334.36400454865395 201.51822936911384 A 5.25 5.25 0 1 1 334.36400192365414 201.51297936998884 Z"/><path fill="#000000" stroke="none" class="dcg-svg-point" paint-order="stroke fill markers" d=" M 366.750500675229 201.51822936911384 A 5.25 5.25 0 1 1 366.75049805022917 201.51297936998884 Z"/><path fill="#000000" stroke="none" class="dcg-svg-point" paint-order="stroke fill markers" d=" M 399.13699680180406 201.51822936911384 A 5.25 5.25 0 1 1 399.13699417680425 201.51297936998884 Z"/><path fill="#000000" stroke="none" class="dcg-svg-point" paint-order="stroke fill markers" d=" M 431.52349292837914 201.51822936911384 A 5.25 5.25 0 1 1 431.52349030337933 201.51297936998884 Z"/><path fill="#000000" stroke="none" class="dcg-svg-point" paint-order="stroke fill markers" d=" M 463.90998905495417 201.51822936911384 A 5.25 5.25 0 1 1 463.90998642995436 201.51297936998884 Z"/><path fill="#000000" stroke="none" class="dcg-svg-point" paint-order="stroke fill markers" d=" M 496.29648518152925 201.51822936911384 A 5.25 5.25 0 1 1 496.29648255652944 201.51297936998884 Z"/><path fill="#000000" stroke="none" class="dcg-svg-point" paint-order="stroke fill markers" d=" M 528.6829813081042 201.51822936911384 A 5.25 5.25 0 1 1 528.6829786831045 201.51297936998884 Z"/></g><g id="sketch-cc6f967d"><title/><path fill="#2d70b3" stroke="none" class="dcg-svg-point" paint-order="stroke fill markers" d=" M 75.27203553605344 186.74806421651218 A 5.25 5.25 0 1 1 75.27203291105366 186.74281421738718 Z"/><path fill="#2d70b3" stroke="none" class="dcg-svg-point" paint-order="stroke fill markers" d=" M 107.6585316626285 170.50088254865034 A 5.25 5.25 0 1 1 107.65852903762872 170.49563254952534 Z"/><path fill="#2d70b3" stroke="none" class="dcg-svg-point" paint-order="stroke fill markers" d=" M 140.04502778920357 152.62898271400232 A 5.25 5.25 0 1 1 140.0450251642038 152.62373271487732 Z"/><path fill="#2d70b3" stroke="none" class="dcg-svg-point" paint-order="stroke fill markers" d=" M 172.43152391577863 132.9698928958895 A 5.25 5.25 0 1 1 172.43152129077885 132.9646428967645 Z"/><path fill="#2d70b3" stroke="none" class="dcg-svg-point" paint-order="stroke fill markers" d=" M 204.81802004235368 111.34489409596543 A 5.25 5.25 0 1 1 204.8180174173539 111.33964409684043 Z"/><path fill="#2d70b3" stroke="none" class="dcg-svg-point" paint-order="stroke fill markers" d=" M 237.20451616892876 87.5573954160489 A 5.25 5.25 0 1 1 237.20451354392898 87.5521454169239 Z"/><path fill="#2d70b3" stroke="none" class="dcg-svg-point" paint-order="stroke fill markers" d=" M 269.5910122955038 61.391146868140765 A 5.25 5.25 0 1 1 269.591009670504 61.38589686901576 Z"/><path fill="#2d70b3" stroke="none" class="dcg-svg-point" paint-order="stroke fill markers" d=" M 301.97750842207887 32.608273465441755 A 5.25 5.25 0 1 1 301.97750579707906 32.60302346631675 Z"/><path fill="#2d70b3" stroke="none" class="dcg-svg-point" paint-order="stroke fill markers" d=" M 334.36400454865395 0.9471127224728662 A 5.25 5.25 0 1 1 334.36400192365414 0.941862723347863 Z"/></g></g><g id="labels-cc6f967d"/><g id="labels-cc6f967d"/></g></svg>