<?xml version="1.0" encoding="UTF-8"?>
<svg xmlns="http://www.w3.org/2000/svg" xmlns:xlink="http://www.w3.org/1999/xlink" width="181.351pt" height="124.658pt" viewBox="0 0 181.351 124.658" version="1.1">
<defs>
<clipPath id="clip1">
  <path d="M 0 113 L 12 113 L 12 124.65625 L 0 124.65625 Z M 0 113 "/>
</clipPath>
<clipPath id="clip2">
  <path d="M 170 56 L 181.351562 56 L 181.351562 68 L 170 68 Z M 170 56 "/>
</clipPath>
<clipPath id="clip3">
  <path d="M 113 113 L 125 113 L 125 124.65625 L 113 124.65625 Z M 113 113 "/>
</clipPath>
<clipPath id="clip4">
  <path d="M 0 44 L 81 44 L 81 124.65625 L 0 124.65625 Z M 0 44 "/>
</clipPath>
<clipPath id="clip5">
  <path d="M 101 0 L 181.351562 0 L 181.351562 81 L 101 81 Z M 101 0 "/>
</clipPath>
<clipPath id="clip6">
  <path d="M 44 44 L 138 44 L 138 124.65625 L 44 124.65625 Z M 44 44 "/>
</clipPath>
</defs>
<g id="surface1">
<path style=" stroke:none;fill-rule:nonzero;fill:rgb(79.998779%,44.999695%,47.499084%);fill-opacity:1;" d="M 124.660156 5.632812 C 124.660156 2.523438 122.136719 0 119.023438 0 C 115.910156 0 113.386719 2.523438 113.386719 5.632812 C 113.386719 8.746094 115.910156 11.269531 119.023438 11.269531 C 122.136719 11.269531 124.660156 8.746094 124.660156 5.632812 Z M 124.660156 5.632812 "/>
<path style=" stroke:none;fill-rule:nonzero;fill:rgb(79.998779%,44.999695%,47.499084%);fill-opacity:1;" d="M 67.964844 62.328125 C 67.964844 59.214844 65.441406 56.691406 62.328125 56.691406 C 59.21875 56.691406 56.695312 59.214844 56.695312 62.328125 C 56.695312 65.441406 59.21875 67.964844 62.328125 67.964844 C 65.441406 67.964844 67.964844 65.441406 67.964844 62.328125 Z M 67.964844 62.328125 "/>
<g clip-path="url(#clip1)" clip-rule="nonzero">
<path style=" stroke:none;fill-rule:nonzero;fill:rgb(79.998779%,44.999695%,47.499084%);fill-opacity:1;" d="M 11.273438 119.023438 C 11.273438 115.910156 8.75 113.386719 5.636719 113.386719 C 2.523438 113.386719 0 115.910156 0 119.023438 C 0 122.136719 2.523438 124.65625 5.636719 124.65625 C 8.75 124.65625 11.273438 122.136719 11.273438 119.023438 Z M 11.273438 119.023438 "/>
</g>
<g clip-path="url(#clip2)" clip-rule="nonzero">
<path style=" stroke:none;fill-rule:nonzero;fill:rgb(79.998779%,44.999695%,47.499084%);fill-opacity:1;" d="M 181.351562 62.328125 C 181.351562 59.214844 178.828125 56.691406 175.71875 56.691406 C 172.605469 56.691406 170.082031 59.214844 170.082031 62.328125 C 170.082031 65.441406 172.605469 67.964844 175.71875 67.964844 C 178.828125 67.964844 181.351562 65.441406 181.351562 62.328125 Z M 181.351562 62.328125 "/>
</g>
<g clip-path="url(#clip3)" clip-rule="nonzero">
<path style=" stroke:none;fill-rule:nonzero;fill:rgb(79.998779%,44.999695%,47.499084%);fill-opacity:1;" d="M 124.660156 119.023438 C 124.660156 115.910156 122.136719 113.386719 119.023438 113.386719 C 115.910156 113.386719 113.386719 115.910156 113.386719 119.023438 C 113.386719 122.136719 115.910156 124.65625 119.023438 124.65625 C 122.136719 124.65625 124.660156 122.136719 124.660156 119.023438 Z M 124.660156 119.023438 "/>
</g>
<path style="fill:none;stroke-width:1.59404;stroke-linecap:butt;stroke-linejoin:miter;stroke:rgb(39.99939%,59.799194%,72.999573%);stroke-opacity:1;stroke-miterlimit:10;" d="M 108.836656 108.838406 L 61.242906 61.24075 " transform="matrix(1,0,0,-1,5.636,119.022)"/>
<g clip-path="url(#clip4)" clip-rule="nonzero">
<path style="fill:none;stroke-width:1.59404;stroke-linecap:butt;stroke-linejoin:miter;stroke:rgb(39.99939%,59.799194%,72.999573%);stroke-opacity:1;stroke-miterlimit:10;" d="M 52.14525 52.143094 L 4.547594 4.549344 " transform="matrix(1,0,0,-1,5.636,119.022)"/>
</g>
<g clip-path="url(#clip5)" clip-rule="nonzero">
<path style="fill:none;stroke-width:1.59404;stroke-linecap:butt;stroke-linejoin:miter;stroke:rgb(39.99939%,59.799194%,72.999573%);stroke-opacity:1;stroke-miterlimit:10;" d="M 117.934313 108.838406 L 165.531969 61.24075 " transform="matrix(1,0,0,-1,5.636,119.022)"/>
</g>
<g clip-path="url(#clip6)" clip-rule="nonzero">
<path style="fill:none;stroke-width:1.59404;stroke-linecap:butt;stroke-linejoin:miter;stroke:rgb(39.99939%,59.799194%,72.999573%);stroke-opacity:1;stroke-miterlimit:10;" d="M 61.242906 52.143094 L 108.836656 4.549344 " transform="matrix(1,0,0,-1,5.636,119.022)"/>
</g>
</g>
</svg>
